<svg width="1531" height="806" viewBox="0 0 1531 806" fill="none" xmlns="http://www.w3.org/2000/svg">
<path d="M999.527 82.2002C1006.63 82.8002 997.628 103.2 995.928 107.101C991.628 116.001 979.427 119.8 978.627 130.7C977.927 135.5 978.328 140.501 977.728 145.301C976.227 154.701 970.728 163.801 975.228 173.001C978.528 179.301 984.927 182.801 988.827 188.501C994.227 196.101 991.128 206.3 994.428 214.7C1000.33 229.1 1011.23 242.9 1015.03 258.2C1020.23 292.6 993.127 309.201 996.827 335.601C999.927 363.8 1011.83 363.501 1010.23 398.7C1009.53 414 1007.03 431.101 995.428 441.801C983.328 451.501 974.228 432.401 956.228 443.001C941.228 451.001 935.427 469.4 916.527 474.9C910.727 476.8 904.427 476.601 898.728 478.301C885.428 483.501 881.427 494.001 864.127 491.601C833.427 487.001 848.027 494.2 842.127 523.2C843.727 545 824.828 536.301 813.228 529.001C806.328 525.201 798.128 522.801 790.428 524.001C781.528 525.201 777.127 534.601 769.027 537.601C741.928 542.701 761.927 557.2 760.228 574.7C758.828 587.2 761.127 600.701 772.127 608.301C777.927 612.701 783.628 618.801 789.428 623.501C793.528 626.501 798.627 627.201 801.827 631.001C805.527 636.801 799.927 645.5 802.027 652.4C802.727 656.8 805.427 661.4 804.428 665.2C802.728 670.4 795.228 671 790.428 668.801C784.228 666.601 779.227 661.201 772.428 661.101C750.528 665.201 756.727 637.401 736.928 639.2C731.128 640.1 725.427 642.4 719.728 643.2C714.328 644 708.127 643.8 702.127 645.2C694.027 645.9 688.227 651.801 682.827 657.301C674.027 666.1 655.327 648.001 642.027 652.101C631.327 656.801 641.328 671.001 639.428 679.301C637.428 686.801 629.628 689.101 623.428 694.501C600.128 719.001 602.327 706.201 574.228 709.9C559.728 713.4 556.927 730.101 539.527 721.301C535.527 720.001 530.927 719.601 527.127 717.601C521.727 714.601 518.427 709.5 512.827 707.7C497.527 705.2 479.327 709.8 466.527 698.601C453.327 688.801 457.927 715.601 450.027 720.301C445.927 723.301 440.827 719.101 435.827 717.801C427.427 715.001 419.528 711.601 413.728 704.301C408.528 698.901 407.828 691.201 413.428 685.501C418.128 680.001 426.028 678.601 430.428 673.001C438.928 660.201 432.427 639.001 425.027 627.301C419.627 620.001 405.728 616.801 401.428 626.801C396.528 634.401 398.027 649.5 388.228 653.9C382.928 655.2 374.627 651.401 368.327 653.101C358.127 655.901 349.628 656.8 347.228 643.301C345.528 635.301 347.628 626.701 347.728 618.601C347.828 613.701 347.228 608.6 347.728 603.7C348.428 594.2 352.227 583.401 345.527 575.601C340.327 571.401 340.827 587.9 339.228 590.9C336.828 600.5 329.927 594.5 329.827 586.4C329.327 579.4 331.428 572.3 330.928 565.2C330.428 557.9 325.627 551.6 323.627 544.601C321.027 536.801 323.127 527.901 319.728 520.301C316.728 513.401 310.628 506.701 307.228 499.301C302.928 490.801 302.528 481.4 299.928 472.4C293.228 456.2 292.627 442.8 299.027 426.4C302.527 410.601 284.428 400.201 277.928 387.801C273.928 382.601 264.027 384.2 263.327 376.001C263.027 365.201 263.127 354.6 263.127 343.7C264.427 332.8 260.227 325.2 252.728 317.7C239.628 302.2 239.627 284.401 242.627 265.301C243.227 258.901 241.328 249.701 248.228 246.301C252.928 244.101 261.127 245.101 267.327 244.001C278.527 243.201 270.928 232.901 276.228 227.301C279.328 224.301 284.028 222.301 287.728 220.001C297.627 214.801 300.527 203.201 305.827 194.501C309.727 188.401 315.927 184.401 319.527 178.101C323.227 171.901 325.028 163.901 329.428 157.801C337.828 147.201 348.728 138.5 360.428 131.9C372.128 124.901 385.627 126.701 398.527 125.301C411.827 123.701 424.828 112.5 438.428 118.4C461.628 128.1 488.027 130.201 512.327 123.601C528.327 120.201 544.628 127.501 560.728 126.101C568.827 125.601 575.927 121.101 583.627 118.801C599.427 114.901 623.227 116.601 630.627 133.601C644.427 164.801 652.828 130.001 659.728 134.301C665.027 140.501 668.727 151.101 675.627 157.101C689.127 172.601 697.928 162.9 713.428 160.7C726.128 161.9 739.427 167.101 746.827 177.801C751.027 183.201 756.428 187.4 762.728 190.2C769.028 192.9 777.028 194.801 783.428 192.801C792.428 189.501 799.527 178.3 795.027 168.9C789.827 158.301 781.928 148.601 778.928 137.001C778.028 123.301 796.427 129.1 803.827 123.4C808.527 120.6 811.227 115.3 816.327 113.2C820.327 111.7 825.127 112.8 829.327 112.4C838.227 112.5 843.928 101.9 850.228 97.7002C856.327 94.2006 860.328 101.9 864.228 106.4C869.628 112.8 877.927 117.101 884.127 122.9C888.327 126.6 891.627 131.5 897.127 133.2C909.927 137.4 917.727 128.201 925.627 119.801C928.227 118.001 931.427 118.101 934.527 118.101C944.227 118.601 950.727 111.2 957.627 103.9C967.427 90.6005 978.328 102.201 986.228 94.001C989.228 91.101 992.027 86.1002 995.327 83.7002C996.527 82.8002 997.928 82.001 999.428 82.001L999.527 82.2002ZM361.928 669.101C366.928 666.301 376.227 671.5 378.228 676.7C379.428 679.7 378.527 683.201 375.527 684.501C368.627 688.001 354.528 675.7 361.728 669.2H361.827L361.928 669.101Z" fill="#C6E0F1"/>
<g filter="url(#filter0_d_1497_16961)">
<rect x="288" y="533" width="128" height="40" rx="20" fill="#004EA2" shape-rendering="crispEdges"/>
<path d="M304.944 547.372H319.088V549.084H304.944V547.372ZM310.976 545.916H312.976V560.94H310.976V545.916ZM310.736 554.78L312.24 555.42C311.739 556.156 311.141 556.849 310.448 557.5C309.755 558.151 309.003 558.737 308.192 559.26C307.381 559.772 306.555 560.199 305.712 560.54C305.616 560.38 305.488 560.199 305.328 559.996C305.179 559.804 305.024 559.612 304.864 559.42C304.704 559.217 304.549 559.057 304.4 558.94C305.232 558.673 306.048 558.327 306.848 557.9C307.648 557.463 308.384 556.983 309.056 556.46C309.739 555.927 310.299 555.367 310.736 554.78ZM313.392 554.956C313.819 555.511 314.363 556.044 315.024 556.556C315.685 557.068 316.405 557.527 317.184 557.932C317.973 558.327 318.773 558.641 319.584 558.876C319.445 559.015 319.291 559.185 319.12 559.388C318.949 559.58 318.789 559.777 318.64 559.98C318.491 560.193 318.363 560.385 318.256 560.556C317.445 560.225 316.645 559.809 315.856 559.308C315.077 558.796 314.352 558.22 313.68 557.58C313.008 556.94 312.432 556.263 311.952 555.548L313.392 554.956ZM307.872 551.5V554.204H316.304V551.5H307.872ZM306.128 550.012H318.16V555.692H306.128V550.012ZM314.32 551.676L315.856 552.124C315.632 552.487 315.413 552.849 315.2 553.212C314.997 553.564 314.805 553.863 314.624 554.108L313.456 553.708C313.563 553.516 313.669 553.303 313.776 553.068C313.883 552.823 313.984 552.577 314.08 552.332C314.187 552.087 314.267 551.868 314.32 551.676ZM308.272 552.108L309.568 551.708C309.771 552.007 309.957 552.332 310.128 552.684C310.309 553.036 310.432 553.351 310.496 553.628L309.12 554.076C309.067 553.799 308.96 553.479 308.8 553.116C308.64 552.743 308.464 552.407 308.272 552.108ZM325.584 548.012H335.552V549.772H325.584V548.012ZM326.24 550.844H333.76V552.476H328.064V560.908H326.24V550.844ZM333.104 550.844H334.96V558.956C334.96 559.361 334.923 559.692 334.848 559.948C334.773 560.204 334.608 560.412 334.352 560.572C334.117 560.711 333.835 560.796 333.504 560.828C333.173 560.871 332.795 560.892 332.368 560.892C332.336 560.636 332.267 560.337 332.16 559.996C332.064 559.665 331.957 559.377 331.84 559.132C332.064 559.143 332.277 559.148 332.48 559.148C332.683 559.148 332.821 559.148 332.896 559.148C333.035 559.148 333.104 559.073 333.104 558.924V550.844ZM329.6 545.9H331.456V560.86H329.6V545.9ZM327.36 553.5H333.824V555.02H327.36V553.5ZM327.36 556.108H333.824V557.708H327.36V556.108ZM331.936 546.812L333.056 545.788C333.269 545.927 333.504 546.087 333.76 546.268C334.016 546.439 334.261 546.615 334.496 546.796C334.741 546.967 334.939 547.121 335.088 547.26L333.92 548.428C333.781 548.279 333.595 548.113 333.36 547.932C333.125 547.74 332.885 547.548 332.64 547.356C332.395 547.153 332.16 546.972 331.936 546.812ZM320.704 549.724H325.552V551.548H320.704V549.724ZM322.336 546.124H324.128V556.716H322.336V546.124ZM320.352 556.588C320.8 556.428 321.312 556.236 321.888 556.012C322.464 555.788 323.072 555.543 323.712 555.276C324.363 555.009 325.008 554.743 325.648 554.476L326.064 556.236C325.211 556.641 324.336 557.047 323.44 557.452C322.555 557.847 321.739 558.209 320.992 558.54L320.352 556.588ZM341.024 548.924H342.832V553.5H341.024V548.924ZM345.296 548.956H347.136V553.404H345.296V548.956ZM337.12 547.116H350.928V550.188H349.104V548.668H338.848V550.188H337.12V547.116ZM338.544 549.612H349.392V550.844H338.544V549.612ZM339.744 556.076H348.24V557.516H339.744V556.076ZM338.88 551.42H349.136V552.572H338.88V551.42ZM336.944 553.132H351.12V554.62H336.944V553.132ZM341.056 553.708L342.496 554.412C342.091 554.839 341.605 555.271 341.04 555.708C340.485 556.135 339.904 556.535 339.296 556.908C338.699 557.281 338.128 557.591 337.584 557.836C337.456 557.633 337.269 557.399 337.024 557.132C336.789 556.865 336.581 556.647 336.4 556.476C336.944 556.273 337.509 556.028 338.096 555.74C338.683 555.441 339.237 555.116 339.76 554.764C340.283 554.412 340.715 554.06 341.056 553.708ZM341.12 557.532L342.496 558.108C342.219 558.417 341.883 558.727 341.488 559.036C341.093 559.345 340.672 559.628 340.224 559.884C339.787 560.14 339.349 560.343 338.912 560.492C338.784 560.289 338.603 560.049 338.368 559.772C338.144 559.505 337.936 559.287 337.744 559.116C338.16 559.009 338.581 558.876 339.008 558.716C339.435 558.556 339.829 558.375 340.192 558.172C340.565 557.959 340.875 557.745 341.12 557.532ZM346.96 553.644C347.312 553.975 347.744 554.311 348.256 554.652C348.779 554.993 349.323 555.313 349.888 555.612C350.453 555.911 350.992 556.156 351.504 556.348C351.301 556.508 351.077 556.727 350.832 557.004C350.597 557.281 350.416 557.521 350.288 557.724C349.797 557.468 349.264 557.153 348.688 556.78C348.123 556.396 347.573 555.991 347.04 555.564C346.507 555.137 346.043 554.721 345.648 554.316L346.96 553.644ZM345.376 558.636L346.432 557.548C346.795 557.708 347.189 557.895 347.616 558.108C348.053 558.321 348.469 558.54 348.864 558.764C349.259 558.977 349.584 559.18 349.84 559.372L348.72 560.588C348.485 560.385 348.176 560.167 347.792 559.932C347.419 559.708 347.019 559.479 346.592 559.244C346.165 559.009 345.76 558.807 345.376 558.636ZM342.512 546.316L344.496 545.756C344.667 546.044 344.827 546.369 344.976 546.732C345.136 547.095 345.253 547.404 345.328 547.66L343.248 548.3C343.195 548.033 343.099 547.713 342.96 547.34C342.821 546.967 342.672 546.625 342.512 546.316ZM343.072 555.004H344.928V560.94H343.072V555.004ZM352.912 551.548H367.104V553.372H352.912V551.548ZM358.112 549.34L360.128 549.788C359.712 551.217 359.2 552.577 358.592 553.868C357.995 555.159 357.323 556.343 356.576 557.42C355.829 558.487 355.008 559.409 354.112 560.188C354.005 560.06 353.851 559.9 353.648 559.708C353.456 559.516 353.253 559.329 353.04 559.148C352.827 558.967 352.64 558.817 352.48 558.7C353.365 558.017 354.165 557.196 354.88 556.236C355.595 555.276 356.219 554.209 356.752 553.036C357.296 551.863 357.749 550.631 358.112 549.34ZM362.096 556.172L363.712 555.276C364.085 555.745 364.485 556.257 364.912 556.812C365.349 557.367 365.771 557.911 366.176 558.444C366.581 558.977 366.912 559.447 367.168 559.852L365.392 560.924C365.168 560.519 364.869 560.044 364.496 559.5C364.123 558.945 363.723 558.375 363.296 557.788C362.869 557.201 362.469 556.663 362.096 556.172ZM353.024 547.436H366.96V550.764H365.008V549.18H354.896V550.764H353.024V547.436ZM358.72 546.3L360.736 545.756C360.875 546.044 361.024 546.369 361.184 546.732C361.344 547.084 361.472 547.383 361.568 547.628L359.44 548.252C359.376 547.996 359.275 547.681 359.136 547.308C358.997 546.935 358.859 546.599 358.72 546.3ZM357.024 560.7C356.981 560.561 356.923 560.38 356.848 560.156C356.784 559.943 356.709 559.724 356.624 559.5C356.539 559.265 356.459 559.068 356.384 558.908C356.587 558.855 356.773 558.753 356.944 558.604C357.125 558.444 357.328 558.231 357.552 557.964C357.68 557.825 357.845 557.617 358.048 557.34C358.261 557.052 358.496 556.716 358.752 556.332C359.019 555.937 359.285 555.505 359.552 555.036C359.829 554.567 360.085 554.092 360.32 553.612L362.32 554.236C361.755 555.281 361.125 556.279 360.432 557.228C359.739 558.177 359.072 558.999 358.432 559.692V559.724C358.432 559.724 358.363 559.756 358.224 559.82C358.085 559.895 357.92 559.98 357.728 560.076C357.536 560.183 357.371 560.289 357.232 560.396C357.093 560.503 357.024 560.604 357.024 560.7ZM357.024 560.7L356.976 559.276L358.016 558.668L364.656 558.268C364.688 558.513 364.736 558.796 364.8 559.116C364.875 559.425 364.939 559.681 364.992 559.884C363.701 559.991 362.613 560.076 361.728 560.14C360.853 560.204 360.133 560.263 359.568 560.316C359.013 560.369 358.571 560.412 358.24 560.444C357.909 560.487 357.653 560.524 357.472 560.556C357.291 560.599 357.141 560.647 357.024 560.7ZM370.8 555.228H381.168V556.892H370.8V555.228ZM371.568 551.692H380.384V553.388H371.568V551.692ZM369.216 558.844H382.896V560.556H369.216V558.844ZM374.944 552.444H376.96V559.788H374.944V552.444ZM371.504 546.396H376.864V548.172H371.504V546.396ZM374.912 546.396H377.024C377.365 546.908 377.776 547.409 378.256 547.9C378.736 548.391 379.269 548.86 379.856 549.308C380.443 549.756 381.061 550.167 381.712 550.54C382.363 550.903 383.029 551.207 383.712 551.452C383.584 551.591 383.435 551.767 383.264 551.98C383.104 552.183 382.944 552.396 382.784 552.62C382.635 552.833 382.512 553.031 382.416 553.212C381.488 552.775 380.587 552.247 379.712 551.628C378.848 550.999 378.048 550.327 377.312 549.612C376.587 548.887 375.952 548.167 375.408 547.452H374.912V546.396ZM375.216 546.396L376.624 547.372C376.229 547.927 375.755 548.481 375.2 549.036C374.656 549.591 374.064 550.129 373.424 550.652C372.795 551.164 372.149 551.644 371.488 552.092C370.827 552.529 370.176 552.903 369.536 553.212C369.397 552.977 369.216 552.711 368.992 552.412C368.779 552.113 368.565 551.863 368.352 551.66C368.981 551.404 369.627 551.084 370.288 550.7C370.949 550.305 371.589 549.873 372.208 549.404C372.827 548.924 373.392 548.428 373.904 547.916C374.416 547.404 374.853 546.897 375.216 546.396ZM395.2 551.372H399.376V552.94H395.2V551.372ZM387.568 552.492H392.912V553.884H388.864V560.716H387.568V552.492ZM389.808 549.26H391.408V553.388H389.808V549.26ZM392.4 552.492H393.776V559.132C393.776 559.463 393.739 559.729 393.664 559.932C393.589 560.145 393.44 560.316 393.216 560.444C392.992 560.551 392.715 560.615 392.384 560.636C392.053 560.668 391.653 560.679 391.184 560.668C391.163 560.476 391.109 560.252 391.024 559.996C390.949 559.74 390.869 559.516 390.784 559.324C391.083 559.335 391.36 559.34 391.616 559.34C391.883 559.34 392.064 559.335 392.16 559.324C392.32 559.324 392.4 559.249 392.4 559.1V552.492ZM389.792 554.62H391.824V558.396H389.792V557.212H391.008V555.804H389.792V554.62ZM389.392 554.62H390.192V558.892H389.392V554.62ZM394.96 549.212L396.608 549.516C396.395 550.679 396.096 551.799 395.712 552.876C395.339 553.953 394.891 554.86 394.368 555.596C394.283 555.489 394.165 555.367 394.016 555.228C393.867 555.079 393.707 554.935 393.536 554.796C393.376 554.647 393.232 554.529 393.104 554.444C393.584 553.825 393.973 553.052 394.272 552.124C394.581 551.185 394.811 550.215 394.96 549.212ZM387.248 550.172L388.416 549.628C388.661 549.937 388.891 550.284 389.104 550.668C389.317 551.052 389.467 551.388 389.552 551.676L388.304 552.284C388.229 551.996 388.091 551.655 387.888 551.26C387.696 550.855 387.483 550.492 387.248 550.172ZM395.664 552.62C395.867 553.633 396.139 554.599 396.48 555.516C396.821 556.423 397.253 557.228 397.776 557.932C398.299 558.625 398.923 559.18 399.648 559.596C399.467 559.745 399.264 559.953 399.04 560.22C398.827 560.487 398.656 560.732 398.528 560.956C397.76 560.444 397.104 559.788 396.56 558.988C396.027 558.177 395.584 557.255 395.232 556.22C394.891 555.175 394.619 554.055 394.416 552.86L395.664 552.62ZM392.496 549.612L393.952 550.076C393.717 550.471 393.477 550.871 393.232 551.276C392.987 551.671 392.757 552.012 392.544 552.3L391.36 551.868C391.488 551.665 391.621 551.436 391.76 551.18C391.909 550.913 392.048 550.641 392.176 550.364C392.315 550.087 392.421 549.836 392.496 549.612ZM386.624 547.324H399.328V548.924H386.624V547.324ZM385.472 547.324H387.216V552.172C387.216 552.801 387.195 553.495 387.152 554.252C387.12 555.009 387.056 555.788 386.96 556.588C386.864 557.377 386.72 558.145 386.528 558.892C386.347 559.628 386.112 560.3 385.824 560.908C385.728 560.791 385.589 560.657 385.408 560.508C385.227 560.369 385.04 560.231 384.848 560.092C384.667 559.964 384.507 559.868 384.368 559.804C384.635 559.26 384.837 558.668 384.976 558.028C385.125 557.377 385.232 556.711 385.296 556.028C385.371 555.345 385.419 554.679 385.44 554.028C385.461 553.367 385.472 552.748 385.472 552.172V547.324ZM397.264 552.172L398.912 552.348C398.784 553.223 398.603 554.081 398.368 554.924C398.144 555.767 397.851 556.572 397.488 557.34C397.125 558.108 396.672 558.807 396.128 559.436C395.595 560.065 394.944 560.599 394.176 561.036C394.069 560.865 393.92 560.652 393.728 560.396C393.547 560.14 393.381 559.943 393.232 559.804C393.925 559.42 394.507 558.951 394.976 558.396C395.456 557.841 395.851 557.228 396.16 556.556C396.469 555.873 396.709 555.159 396.88 554.412C397.061 553.665 397.189 552.919 397.264 552.172ZM391.328 546.268L393.04 545.628C393.211 545.852 393.371 546.108 393.52 546.396C393.68 546.684 393.797 546.935 393.872 547.148L392.064 547.884C392.011 547.671 391.915 547.409 391.776 547.1C391.637 546.78 391.488 546.503 391.328 546.268Z" fill="#FEFBF9"/>
</g>
<g filter="url(#filter1_dd_1497_16961)">
<ellipse cx="443.553" cy="569.339" rx="7.24288" ry="4.8201" fill="white" fill-opacity="0.6"/>
<path d="M443.554 562.127C446.669 562.127 449.466 562.968 451.471 564.302C453.478 565.638 454.642 567.429 454.642 569.339C454.642 571.249 453.479 573.04 451.471 574.376C449.466 575.71 446.669 576.552 443.554 576.552C440.438 576.552 437.64 575.71 435.636 574.376C433.628 573.04 432.465 571.249 432.465 569.339C432.465 567.429 433.628 565.638 435.636 564.302C437.64 562.968 440.438 562.127 443.554 562.127Z" stroke="white" stroke-opacity="0.6"/>
<path d="M454.756 556.51C453.121 559.673 447.994 564.234 443.507 568.491C438.954 564.428 433.893 558.714 432.835 557.277C431.778 555.839 429.305 549.552 432.835 544.625C435.692 540.494 438.697 538.509 443.507 538.491C448.35 538.472 451.154 540.415 454.275 544.625C456.606 549.737 456.39 553.347 454.756 556.51Z" fill="#FFC936" stroke="black"/>
<path d="M443.725 543.02C439.674 543.02 436.412 546.217 436.412 550.132C436.412 554.048 439.674 557.244 443.725 557.244C447.775 557.244 451.037 554.048 451.037 550.132C451.037 546.217 447.776 543.02 443.725 543.02Z" fill="#F5F5F5" stroke="black"/>
</g>
<defs>
<filter id="filter0_d_1497_16961" x="278" y="527" width="148" height="60" filterUnits="userSpaceOnUse" color-interpolation-filters="sRGB">
<feFlood flood-opacity="0" result="BackgroundImageFix"/>
<feColorMatrix in="SourceAlpha" type="matrix" values="0 0 0 0 0 0 0 0 0 0 0 0 0 0 0 0 0 0 127 0" result="hardAlpha"/>
<feOffset dy="4"/>
<feGaussianBlur stdDeviation="5"/>
<feComposite in2="hardAlpha" operator="out"/>
<feColorMatrix type="matrix" values="0 0 0 0 0 0 0 0 0 0 0 0 0 0 0 0 0 0 0.2 0"/>
<feBlend mode="normal" in2="BackgroundImageFix" result="effect1_dropShadow_1497_16961"/>
<feBlend mode="normal" in="SourceGraphic" in2="effect1_dropShadow_1497_16961" result="shape"/>
</filter>
<filter id="filter1_dd_1497_16961" x="414.504" y="501" width="75.3301" height="92.0513" filterUnits="userSpaceOnUse" color-interpolation-filters="sRGB">
<feFlood flood-opacity="0" result="BackgroundImageFix"/>
<feColorMatrix in="SourceAlpha" type="matrix" values="0 0 0 0 0 0 0 0 0 0 0 0 0 0 0 0 0 0 127 0" result="hardAlpha"/>
<feOffset/>
<feGaussianBlur stdDeviation="8"/>
<feColorMatrix type="matrix" values="0 0 0 0 0.975962 0 0 0 0 0.830975 0 0 0 0 0.00938425 0 0 0 1 0"/>
<feBlend mode="normal" in2="BackgroundImageFix" result="effect1_dropShadow_1497_16961"/>
<feColorMatrix in="SourceAlpha" type="matrix" values="0 0 0 0 0 0 0 0 0 0 0 0 0 0 0 0 0 0 127 0" result="hardAlpha"/>
<feOffset/>
<feGaussianBlur stdDeviation="4"/>
<feComposite in2="hardAlpha" operator="out"/>
<feColorMatrix type="matrix" values="0 0 0 0 1 0 0 0 0 1 0 0 0 0 1 0 0 0 1 0"/>
<feBlend mode="normal" in2="effect1_dropShadow_1497_16961" result="effect2_dropShadow_1497_16961"/>
<feBlend mode="normal" in="SourceGraphic" in2="effect2_dropShadow_1497_16961" result="shape"/>
</filter>
</defs>
</svg>
