<svg width="1531" height="806" viewBox="0 0 1531 806" fill="none" xmlns="http://www.w3.org/2000/svg">
<path d="M240.048 153.048C249.648 152.148 253.648 164.248 260.448 168.848C264.648 171.648 271.348 171.747 276.748 172.147C283.848 172.747 290.348 174.247 293.948 180.447C295.748 183.247 296.148 186.948 296.948 190.048C298.449 198.747 308.549 196.748 314.349 200.348C319.848 203.848 319.449 212.347 318.349 218.447C317.249 226.647 312.449 234.447 312.349 242.747C312.349 247.047 315.648 255.047 320.048 251.848C322.548 249.548 324.048 245.748 326.548 243.348C329.548 240.248 334.248 239.348 339.148 237.848C344.248 236.548 349.248 234.048 354.548 234.048C367.348 234.448 369.848 260.347 384.548 243.147C390.548 235.847 392.749 225.747 397.849 217.647C400.949 212.747 402.248 206.147 408.148 205.947C412.148 206.247 415.049 209.447 418.648 211.747C423.648 215.247 428.748 218.647 432.648 223.647C436.048 228.547 437.548 234.647 441.148 239.447C444.348 244.147 448.648 248.048 452.548 252.848C460.648 262.648 470.048 271.948 480.248 279.848C487.948 285.248 495.549 291.247 499.849 299.447C505.449 309.947 510.948 321.347 515.948 331.947C518.148 336.747 519.949 341.647 520.349 346.947C521.049 353.747 519.148 360.447 518.748 367.247C518.148 374.347 518.949 381.947 517.849 388.947C517.149 393.347 515.448 397.148 513.948 401.348C511.848 406.848 510.148 413.147 508.148 419.247C506.648 424.447 503.848 429.248 503.248 434.548C502.548 441.348 506.748 447.448 508.048 454.048C509.848 462.848 506.448 471.848 505.148 480.548C504.148 492.648 501.249 504.847 507.349 515.747C509.949 520.447 513.349 524.648 517.349 528.348C523.449 534.047 531.749 538.748 535.648 546.548C540.248 556.648 545.248 566.847 548.448 577.447C551.548 585.747 555.148 593.947 557.648 602.447C560.948 611.847 563.848 621.548 565.948 631.348C567.548 637.847 567.948 645.347 562.849 650.247C558.449 654.447 552.248 654.748 548.548 650.048C546.148 647.248 543.748 643.748 539.948 643.048C537.248 642.448 534.348 642.448 531.648 641.848C525.549 640.848 517.848 633.048 513.148 640.747C508.948 647.247 502.348 651.647 494.748 651.247C491.648 650.647 489.848 647.548 488.248 644.848C485.648 640.048 483.448 634.948 480.548 630.348C477.348 625.148 473.548 620.247 468.148 617.247C460.549 613.347 451.448 613.247 444.148 608.647C431.248 601.247 419.148 589.347 407.548 580.647C402.548 577.048 397.448 573.947 392.248 570.247C384.448 565.247 377.848 558.848 370.648 553.048C362.149 547.148 355.148 539.048 347.349 532.048C339.449 525.648 329.749 520.347 322.849 512.747C318.249 507.547 313.548 501.747 310.548 495.447C307.548 488.847 306.948 481.248 305.648 474.048C304.148 466.548 302.048 459.347 298.748 452.147C294.448 443.047 289.848 434.447 283.248 426.747C281.148 424.247 277.748 421.147 276.648 418.647C275.648 416.548 276.148 414.448 275.948 412.348C275.248 408.648 270.748 408.048 268.748 404.348C266.648 400.648 267.948 396.148 267.748 392.048C267.948 383.848 259.748 379.247 258.048 371.647C255.848 361.247 262.248 350.747 263.448 340.447C263.948 333.947 263.548 326.547 259.948 320.947C252.848 312.447 243.548 314.147 245.948 299.147C246.848 293.147 247.648 286.947 247.048 280.947C246.648 276.547 246.148 271.847 246.448 267.147C247.648 251.547 249.449 237.047 248.849 221.747C248.848 208.147 236.248 197.747 234.548 184.647C234.248 180.147 234.248 175.647 234.248 170.947C234.548 164.847 233.248 155.048 240.648 153.048H240.048ZM1244.04 186.151C1253.73 186.452 1249.77 203.96 1258.25 208.147C1264.05 212.147 1273.65 212.848 1275.45 220.848C1277.55 228.747 1275.85 238.147 1270.55 244.547C1257.15 258.647 1267.15 259.547 1279.55 253.647C1285.45 251.147 1292.15 244.847 1296.55 249.047C1298.05 251.947 1296.75 256.547 1297.35 259.747C1297.75 263.747 1300.65 263.947 1304.15 263.247C1322.65 256.847 1321.15 263.047 1334.15 273.747C1339.25 277.347 1346.05 280.447 1352.25 282.647C1355.65 283.747 1359.55 284.147 1362.55 285.647C1377.35 294.348 1351.35 309.648 1342.75 311.348C1332.95 313.747 1321.75 302.548 1313.15 310.348C1307.55 315.448 1308.85 324.648 1313.65 329.848C1317.25 334.047 1323.85 337.247 1325.45 341.747C1327.55 350.447 1309.25 354.347 1303.05 355.447C1296.75 356.047 1290.75 353.847 1284.95 352.047C1275.95 348.747 1273.75 357.347 1267.25 360.247C1261.25 361.647 1254.65 358.648 1248.55 358.147C1238.35 357.347 1227.35 357.947 1217.15 358.647C1211.25 359.047 1205.75 357.547 1199.75 358.147C1195.35 358.148 1190.85 359.447 1186.45 360.247C1179.55 361.747 1173.85 355.647 1167.45 355.247C1158.85 355.547 1153.45 366.147 1152.55 373.947C1151.55 383.147 1156.75 393.647 1158.55 403.447C1160.15 411.847 1158.55 418.747 1156.55 426.547C1155.05 431.947 1154.35 438.547 1150.25 442.647C1146.95 445.947 1141.55 444.747 1137.55 447.247C1133.85 449.447 1131.35 456.247 1132.35 460.547C1133.05 464.447 1135.95 467.847 1136.65 471.747C1137.65 476.647 1132.55 480.548 1128.55 483.348C1099.95 501.948 1120.65 497.847 1111.45 518.447C1108.35 524.347 1104.85 531.348 1100.15 535.647C1091.85 543.447 1079.75 540.747 1069.65 543.947C1063.05 545.847 1057.95 550.548 1051.35 552.348C1035.05 557.448 1020.65 544.848 1007.15 537.348C1000.85 533.848 993.949 534.348 986.749 535.348C957.45 539.248 967.149 560.347 950.949 572.547C925.749 589.047 913.649 573.347 894.249 580.647C869.05 594.647 866.149 585.347 846.35 568.848C838.25 561.948 830.249 555.147 821.949 548.547C815.449 543.547 808.75 537.147 806.35 529.348C804.95 524.848 805.749 520.448 807.649 519.647C812.949 518.747 816.65 526.447 820.35 529.647C824.25 533.947 829.25 537.147 835.05 538.147C842.75 539.547 852.049 538.147 859.949 540.447C866.349 542.147 870.949 547.447 877.249 549.147C881.749 550.647 886.25 550.347 891.35 553.047C893.55 553.947 908.95 565.747 909.05 560.247C906.15 554.247 889.55 550.047 897.35 542.147C900.25 539.847 900.45 537.747 899.55 533.747C898.95 530.847 898.45 528.047 898.05 524.547C897.65 521.147 898.249 517.647 898.749 514.147C900.149 506.547 898.75 498.447 905.05 493.647C916.05 487.248 929.75 488.947 941.55 493.147C944.35 494.047 947.449 495.047 950.249 495.147C951.449 495.147 952.049 494.847 951.949 494.348C946.449 487.248 933.249 488.747 927.249 482.647C921.749 477.147 920.35 466.648 923.85 459.848C925.85 456.448 929.849 454.847 934.749 454.247C943.649 453.247 952.849 454.347 961.649 452.547C984.749 447.447 1007.45 434.947 1020.15 414.147C1026.85 403.548 1035.75 395.647 1042.75 385.447C1048.75 375.747 1056.95 367.647 1061.85 357.447C1064.85 347.447 1068.15 342.747 1078.35 347.247C1089.85 352.347 1099.55 386.847 1112.35 361.747C1114.85 356.847 1117.05 351.747 1118.55 346.647C1119.75 343.847 1121.05 334.747 1125.05 336.047C1128.35 337.747 1130.75 344.747 1134.15 346.647C1137.65 348.847 1139.35 345.347 1139.95 341.447C1140.75 336.747 1138.85 331.447 1139.55 326.647C1140.25 314.647 1159.65 312.447 1150.45 299.447C1147.15 294.747 1144.05 288.347 1147.35 282.947C1151.25 276.447 1159.35 280.848 1165.15 278.348C1169.75 276.248 1172.35 271.647 1175.55 267.147C1180.35 260.747 1182.45 252.847 1184.35 245.447C1186.95 236.947 1193.75 230.648 1199.35 223.848C1205.45 216.148 1212.75 209.047 1216.25 199.747C1217.95 195.347 1222.25 179.648 1226.05 189.848C1227.15 193.448 1226.45 199.047 1227.55 201.747C1228.85 205.747 1232.85 202.647 1234.15 200.147C1237.25 195.851 1238.55 187.662 1244.04 186.151ZM1130.85 288.747C1131.95 288.747 1132.95 289.647 1133.65 291.447C1135.45 295.947 1134.55 303.548 1129.65 305.848C1128.05 306.347 1126.65 305.047 1125.65 303.047C1124.25 300.447 1124.05 296.647 1125.65 293.747C1126.75 291.747 1128.65 289.147 1130.75 288.647H1130.85V288.747ZM217.648 268.947C220.448 266.847 225.349 266.947 228.749 268.247C237.149 270.747 234.748 281.047 229.648 285.747C222.148 293.347 214.348 293.547 214.148 281.947C214.148 277.647 213.849 271.547 217.449 269.047H217.549L217.648 268.947ZM193.05 200.147C196.85 199.747 200.15 202.847 199.05 206.547C198.25 208.947 195.55 210.747 192.45 212.047C188.05 213.847 183.049 214.747 179.149 213.147C177.35 212.447 175.55 210.747 176.35 208.747C176.85 207.247 178.95 205.647 180.55 204.547C184.05 202.247 188.75 200.347 192.85 200.047H193.05V200.147ZM188.649 175.947C193.449 174.647 198.849 176.047 201.849 180.047C205.049 184.047 207.449 189.847 203.749 193.547C200.549 195.747 196.049 194.347 192.449 195.547C189.249 196.247 186.149 198.247 182.949 198.447C177.749 198.647 174.349 193.247 170.349 189.747C167.449 187.147 163.349 181.247 168.349 178.747C170.949 177.547 174.749 178.447 178.649 178.047C181.849 177.747 185.049 176.747 188.349 175.947H188.649ZM1244.04 186.151C1244.01 186.15 1243.98 186.148 1243.95 186.147H1244.05C1244.05 186.149 1244.04 186.15 1244.04 186.151Z" fill="#C6E0F1"/>
<g filter="url(#filter0_d_1497_16933)">
<rect x="113" y="324" width="195" height="60" rx="30" fill="#004EA2" shape-rendering="crispEdges"/>
<path d="M132.691 343.176H142.643V344.68H132.691V343.176ZM132.691 340.68H142.643V342.184H132.691V340.68ZM131.683 345.688H142.803V347.336H131.683V345.688ZM142.435 345.688H144.371C144.371 345.688 144.366 345.779 144.355 345.96C144.355 346.141 144.35 346.296 144.339 346.424C144.275 347.544 144.206 348.467 144.131 349.192C144.056 349.907 143.966 350.472 143.859 350.888C143.752 351.293 143.624 351.581 143.475 351.752C143.294 351.955 143.107 352.099 142.915 352.184C142.723 352.28 142.499 352.344 142.243 352.376C142.03 352.408 141.747 352.424 141.395 352.424C141.054 352.435 140.686 352.435 140.291 352.424C140.28 352.147 140.227 351.843 140.131 351.512C140.035 351.181 139.912 350.893 139.763 350.648C140.083 350.68 140.382 350.701 140.659 350.712C140.936 350.723 141.144 350.723 141.283 350.712C141.411 350.712 141.512 350.701 141.587 350.68C141.662 350.659 141.736 350.611 141.811 350.536C141.907 350.429 141.992 350.216 142.067 349.896C142.142 349.565 142.206 349.085 142.259 348.456C142.323 347.816 142.382 346.984 142.435 345.96V345.688ZM136.323 348.424L137.811 348.056C138.024 348.525 138.222 349.037 138.403 349.592C138.595 350.136 138.723 350.6 138.787 350.984L137.203 351.416C137.15 351.021 137.038 350.547 136.867 349.992C136.707 349.427 136.526 348.904 136.323 348.424ZM138.899 348.152L140.275 347.688C140.52 348.029 140.755 348.413 140.979 348.84C141.214 349.256 141.379 349.613 141.475 349.912L140.003 350.456C139.907 350.157 139.752 349.789 139.539 349.352C139.336 348.904 139.123 348.504 138.899 348.152ZM133.571 348.472L135.187 348.216C135.358 348.739 135.496 349.309 135.603 349.928C135.72 350.536 135.79 351.064 135.811 351.512L134.083 351.816C134.083 351.507 134.062 351.165 134.019 350.792C133.976 350.408 133.912 350.013 133.827 349.608C133.752 349.203 133.667 348.824 133.571 348.472ZM131.267 347.736L132.963 348.2C132.867 348.723 132.744 349.24 132.595 349.752C132.446 350.264 132.254 350.739 132.019 351.176C131.784 351.613 131.486 351.997 131.123 352.328L129.571 351.352C130.03 350.925 130.398 350.397 130.675 349.768C130.963 349.128 131.16 348.451 131.267 347.736ZM136.467 338.92H138.371V346.328H136.467V338.92ZM131.683 338.04H143.203V339.688H133.571V346.488H131.683V338.04ZM146.291 339.416H160.211V341.288H146.291V339.416ZM152.131 337.416H154.163V352.44H152.131V337.416ZM152.355 344.632L153.955 345.256C153.56 345.96 153.107 346.637 152.595 347.288C152.094 347.939 151.544 348.547 150.947 349.112C150.35 349.677 149.715 350.189 149.043 350.648C148.382 351.107 147.694 351.507 146.979 351.848C146.883 351.677 146.755 351.485 146.595 351.272C146.435 351.069 146.27 350.872 146.099 350.68C145.928 350.477 145.768 350.312 145.619 350.184C146.302 349.917 146.974 349.587 147.635 349.192C148.307 348.797 148.936 348.36 149.523 347.88C150.11 347.389 150.643 346.872 151.123 346.328C151.614 345.773 152.024 345.208 152.355 344.632ZM154.083 344.76C154.531 345.496 155.102 346.205 155.795 346.888C156.499 347.571 157.278 348.189 158.131 348.744C158.984 349.288 159.87 349.731 160.787 350.072C160.627 350.2 160.456 350.371 160.275 350.584C160.104 350.787 159.934 350.995 159.763 351.208C159.603 351.432 159.47 351.64 159.363 351.832C158.446 351.405 157.56 350.867 156.707 350.216C155.854 349.555 155.07 348.813 154.355 347.992C153.64 347.171 153.022 346.301 152.499 345.384L154.083 344.76ZM148.227 344.056L149.443 342.856C149.688 343.048 149.955 343.272 150.243 343.528C150.531 343.773 150.808 344.013 151.075 344.248C151.342 344.483 151.56 344.691 151.731 344.872L150.451 346.232C150.302 346.04 150.094 345.816 149.827 345.56C149.571 345.304 149.304 345.048 149.027 344.792C148.75 344.525 148.483 344.28 148.227 344.056ZM148.883 341.384L150.739 341.736C150.451 342.899 150.03 343.965 149.475 344.936C148.92 345.896 148.27 346.685 147.523 347.304C147.416 347.187 147.272 347.048 147.091 346.888C146.91 346.728 146.723 346.573 146.531 346.424C146.35 346.264 146.184 346.141 146.035 346.056C146.75 345.533 147.347 344.867 147.827 344.056C148.307 343.245 148.659 342.355 148.883 341.384ZM155.891 344.136L157.139 342.984C157.47 343.229 157.838 343.512 158.243 343.832C158.659 344.141 159.059 344.451 159.443 344.76C159.827 345.059 160.136 345.325 160.371 345.56L159.043 346.872C158.819 346.637 158.526 346.36 158.163 346.04C157.8 345.72 157.416 345.395 157.011 345.064C156.606 344.723 156.232 344.413 155.891 344.136ZM156.419 341.384L158.291 341.72C158.067 342.669 157.747 343.555 157.331 344.376C156.915 345.187 156.435 345.859 155.891 346.392C155.774 346.296 155.614 346.184 155.411 346.056C155.219 345.928 155.016 345.805 154.803 345.688C154.59 345.56 154.408 345.459 154.259 345.384C154.803 344.925 155.256 344.344 155.619 343.64C155.992 342.936 156.259 342.184 156.419 341.384ZM163.891 349.688H174.659V351.464H163.891V349.688ZM162.803 341.864H175.811V352.344H173.859V343.64H164.659V352.376H162.803V341.864ZM161.987 338.28H176.371V340.136H161.987V338.28ZM166.579 339.432H168.291V343.096C168.291 343.704 168.216 344.323 168.067 344.952C167.928 345.581 167.64 346.173 167.203 346.728C166.776 347.283 166.142 347.752 165.299 348.136C165.235 348.008 165.128 347.859 164.979 347.688C164.84 347.507 164.691 347.336 164.531 347.176C164.382 347.005 164.254 346.877 164.147 346.792C164.883 346.472 165.422 346.109 165.763 345.704C166.115 345.299 166.339 344.872 166.435 344.424C166.531 343.976 166.579 343.517 166.579 343.048V339.432ZM169.987 339.432H171.811V345.336C171.811 345.603 171.838 345.768 171.891 345.832C171.944 345.896 172.083 345.928 172.307 345.928C172.35 345.928 172.424 345.928 172.531 345.928C172.648 345.928 172.776 345.928 172.915 345.928C173.054 345.928 173.182 345.928 173.299 345.928C173.427 345.928 173.518 345.928 173.571 345.928C173.72 345.928 173.816 345.917 173.859 345.896C173.912 345.864 173.955 345.827 173.987 345.784C174.168 345.923 174.414 346.056 174.723 346.184C175.043 346.312 175.336 346.408 175.603 346.472C175.475 346.941 175.267 347.267 174.979 347.448C174.702 347.619 174.296 347.704 173.763 347.704C173.678 347.704 173.555 347.704 173.395 347.704C173.235 347.704 173.064 347.704 172.883 347.704C172.702 347.704 172.531 347.704 172.371 347.704C172.222 347.704 172.104 347.704 172.019 347.704C171.464 347.704 171.038 347.635 170.739 347.496C170.451 347.357 170.254 347.117 170.147 346.776C170.04 346.424 169.987 345.944 169.987 345.336V339.432ZM178.195 338.248H192.259V339.992H178.195V338.248ZM177.923 350.024H192.499V351.768H177.923V350.024ZM180.131 346.136H184.307V351.032H182.467V347.768H180.131V346.136ZM178.995 341.944H184.307V343.576H180.883V347.768H178.995V341.944ZM184.307 339.048V342.696H182.467V339.048H184.307ZM185.971 339.112H187.827V342.76H185.971V339.112ZM185.971 341.944H191.411V347.768H189.459V343.56H185.971V341.944ZM185.971 346.136H190.483V347.768H187.827V351.08H185.971V346.136ZM199.475 351.224C198.728 351.224 198.03 351.096 197.379 350.84C196.728 350.573 196.152 350.179 195.651 349.656C195.16 349.133 194.771 348.493 194.483 347.736C194.206 346.979 194.067 346.109 194.067 345.128C194.067 344.147 194.211 343.277 194.499 342.52C194.787 341.752 195.182 341.101 195.683 340.568C196.195 340.035 196.782 339.629 197.443 339.352C198.115 339.075 198.824 338.936 199.571 338.936C200.328 338.936 201 339.091 201.587 339.4C202.184 339.699 202.67 340.051 203.043 340.456L201.811 341.96C201.512 341.661 201.182 341.421 200.819 341.24C200.467 341.059 200.067 340.968 199.619 340.968C199.022 340.968 198.483 341.133 198.003 341.464C197.534 341.784 197.166 342.248 196.899 342.856C196.632 343.464 196.499 344.195 196.499 345.048C196.499 345.912 196.622 346.653 196.867 347.272C197.123 347.88 197.48 348.349 197.939 348.68C198.408 349.011 198.952 349.176 199.571 349.176C200.083 349.176 200.536 349.069 200.931 348.856C201.336 348.632 201.694 348.349 202.003 348.008L203.267 349.48C202.776 350.056 202.216 350.493 201.587 350.792C200.958 351.08 200.254 351.224 199.475 351.224ZM208.711 351.224C207.964 351.224 207.26 351.037 206.599 350.664C205.948 350.291 205.42 349.757 205.015 349.064C204.61 348.36 204.407 347.512 204.407 346.52C204.407 345.528 204.61 344.685 205.015 343.992C205.42 343.288 205.948 342.749 206.599 342.376C207.26 342.003 207.964 341.816 208.711 341.816C209.276 341.816 209.815 341.923 210.327 342.136C210.839 342.349 211.298 342.659 211.703 343.064C212.108 343.459 212.428 343.949 212.663 344.536C212.898 345.112 213.015 345.773 213.015 346.52C213.015 347.512 212.812 348.36 212.407 349.064C212.002 349.757 211.468 350.291 210.807 350.664C210.156 351.037 209.458 351.224 208.711 351.224ZM208.711 349.304C209.116 349.304 209.458 349.192 209.735 348.968C210.023 348.733 210.236 348.408 210.375 347.992C210.524 347.576 210.599 347.085 210.599 346.52C210.599 345.955 210.524 345.464 210.375 345.048C210.236 344.632 210.023 344.312 209.735 344.088C209.458 343.853 209.116 343.736 208.711 343.736C208.306 343.736 207.959 343.853 207.671 344.088C207.394 344.312 207.18 344.632 207.031 345.048C206.892 345.464 206.823 345.955 206.823 346.52C206.823 347.085 206.892 347.576 207.031 347.992C207.18 348.408 207.394 348.733 207.671 348.968C207.959 349.192 208.306 349.304 208.711 349.304ZM218.791 351.224C217.969 351.224 217.228 351.037 216.567 350.664C215.905 350.291 215.383 349.757 214.999 349.064C214.615 348.36 214.423 347.512 214.423 346.52C214.423 345.528 214.631 344.685 215.047 343.992C215.473 343.288 216.033 342.749 216.727 342.376C217.431 342.003 218.188 341.816 218.999 341.816C219.553 341.816 220.044 341.912 220.471 342.104C220.897 342.285 221.276 342.525 221.607 342.824L220.487 344.312C220.273 344.12 220.055 343.976 219.831 343.88C219.607 343.784 219.372 343.736 219.127 343.736C218.668 343.736 218.263 343.853 217.911 344.088C217.569 344.312 217.303 344.632 217.111 345.048C216.929 345.464 216.839 345.955 216.839 346.52C216.839 347.085 216.929 347.576 217.111 347.992C217.303 348.408 217.564 348.733 217.895 348.968C218.236 349.192 218.62 349.304 219.047 349.304C219.367 349.304 219.676 349.235 219.975 349.096C220.273 348.957 220.545 348.787 220.791 348.584L221.719 350.136C221.292 350.509 220.817 350.787 220.295 350.968C219.783 351.139 219.281 351.224 218.791 351.224ZM226.602 351.224C225.855 351.224 225.151 351.037 224.49 350.664C223.839 350.291 223.311 349.757 222.906 349.064C222.5 348.36 222.298 347.512 222.298 346.52C222.298 345.528 222.5 344.685 222.906 343.992C223.311 343.288 223.839 342.749 224.49 342.376C225.151 342.003 225.855 341.816 226.602 341.816C227.167 341.816 227.706 341.923 228.218 342.136C228.73 342.349 229.188 342.659 229.594 343.064C229.999 343.459 230.319 343.949 230.554 344.536C230.788 345.112 230.906 345.773 230.906 346.52C230.906 347.512 230.703 348.36 230.298 349.064C229.892 349.757 229.359 350.291 228.698 350.664C228.047 351.037 227.348 351.224 226.602 351.224ZM226.602 349.304C227.007 349.304 227.348 349.192 227.626 348.968C227.914 348.733 228.127 348.408 228.266 347.992C228.415 347.576 228.49 347.085 228.49 346.52C228.49 345.955 228.415 345.464 228.266 345.048C228.127 344.632 227.914 344.312 227.626 344.088C227.348 343.853 227.007 343.736 226.602 343.736C226.196 343.736 225.85 343.853 225.562 344.088C225.284 344.312 225.071 344.632 224.922 345.048C224.783 345.464 224.714 345.955 224.714 346.52C224.714 347.085 224.783 347.576 224.922 347.992C225.071 348.408 225.284 348.733 225.562 348.968C225.85 349.192 226.196 349.304 226.602 349.304ZM234.753 351.224C234.23 351.224 233.766 351.112 233.361 350.888C232.966 350.653 232.657 350.333 232.433 349.928C232.22 349.523 232.113 349.064 232.113 348.552C232.113 347.603 232.524 346.867 233.345 346.344C234.166 345.811 235.473 345.448 237.265 345.256C237.254 344.957 237.201 344.696 237.105 344.472C237.009 344.237 236.849 344.051 236.625 343.912C236.412 343.773 236.118 343.704 235.745 343.704C235.329 343.704 234.918 343.784 234.513 343.944C234.108 344.104 233.697 344.312 233.281 344.568L232.449 343C232.801 342.776 233.174 342.579 233.569 342.408C233.964 342.237 234.38 342.099 234.817 341.992C235.254 341.875 235.708 341.816 236.177 341.816C236.934 341.816 237.569 341.965 238.081 342.264C238.593 342.563 238.977 343.005 239.233 343.592C239.489 344.179 239.617 344.904 239.617 345.768V351H237.697L237.537 350.04H237.457C237.073 350.381 236.657 350.664 236.209 350.888C235.761 351.112 235.276 351.224 234.753 351.224ZM235.537 349.384C235.868 349.384 236.166 349.309 236.433 349.16C236.71 349 236.988 348.781 237.265 348.504V346.712C236.54 346.797 235.964 346.92 235.537 347.08C235.11 347.24 234.806 347.432 234.625 347.656C234.444 347.869 234.353 348.109 234.353 348.376C234.353 348.728 234.46 348.984 234.673 349.144C234.897 349.304 235.185 349.384 235.537 349.384ZM244.238 351.224C243.683 351.224 243.246 351.112 242.926 350.888C242.606 350.653 242.371 350.333 242.222 349.928C242.083 349.512 242.014 349.032 242.014 348.488V338.232H244.366V348.584C244.366 348.851 244.414 349.037 244.51 349.144C244.617 349.251 244.723 349.304 244.83 349.304C244.883 349.304 244.931 349.304 244.974 349.304C245.017 349.293 245.075 349.283 245.15 349.272L245.438 351.016C245.299 351.069 245.129 351.117 244.926 351.16C244.734 351.203 244.505 351.224 244.238 351.224ZM249.253 351.224C248.73 351.224 248.266 351.112 247.861 350.888C247.466 350.653 247.157 350.333 246.933 349.928C246.72 349.523 246.613 349.064 246.613 348.552C246.613 347.603 247.024 346.867 247.845 346.344C248.666 345.811 249.973 345.448 251.765 345.256C251.754 344.957 251.701 344.696 251.605 344.472C251.509 344.237 251.349 344.051 251.125 343.912C250.912 343.773 250.618 343.704 250.245 343.704C249.829 343.704 249.418 343.784 249.013 343.944C248.608 344.104 248.197 344.312 247.781 344.568L246.949 343C247.301 342.776 247.674 342.579 248.069 342.408C248.464 342.237 248.88 342.099 249.317 341.992C249.754 341.875 250.208 341.816 250.677 341.816C251.434 341.816 252.069 341.965 252.581 342.264C253.093 342.563 253.477 343.005 253.733 343.592C253.989 344.179 254.117 344.904 254.117 345.768V351H252.197L252.037 350.04H251.957C251.573 350.381 251.157 350.664 250.709 350.888C250.261 351.112 249.776 351.224 249.253 351.224ZM250.037 349.384C250.368 349.384 250.666 349.309 250.933 349.16C251.21 349 251.488 348.781 251.765 348.504V346.712C251.04 346.797 250.464 346.92 250.037 347.08C249.61 347.24 249.306 347.432 249.125 347.656C248.944 347.869 248.853 348.109 248.853 348.376C248.853 348.728 248.96 348.984 249.173 349.144C249.397 349.304 249.685 349.384 250.037 349.384ZM256.514 351V342.04H258.434L258.61 343.224H258.658C259.053 342.84 259.485 342.509 259.954 342.232C260.423 341.955 260.962 341.816 261.57 341.816C262.541 341.816 263.245 342.136 263.682 342.776C264.119 343.405 264.338 344.285 264.338 345.416V351H261.986V345.704C261.986 345.011 261.885 344.525 261.682 344.248C261.49 343.971 261.17 343.832 260.722 343.832C260.359 343.832 260.039 343.917 259.762 344.088C259.495 344.259 259.197 344.509 258.866 344.84V351H256.514ZM269.916 351.224C269.169 351.224 268.519 351.037 267.964 350.664C267.42 350.291 266.999 349.752 266.7 349.048C266.401 348.344 266.252 347.501 266.252 346.52C266.252 345.549 266.428 344.717 266.78 344.024C267.143 343.32 267.612 342.776 268.188 342.392C268.764 342.008 269.372 341.816 270.012 341.816C270.513 341.816 270.935 341.907 271.276 342.088C271.628 342.259 271.964 342.493 272.284 342.792L272.204 341.384V338.232H274.556V351H272.636L272.46 350.072H272.396C272.065 350.392 271.687 350.664 271.26 350.888C270.833 351.112 270.385 351.224 269.916 351.224ZM270.524 349.288C270.844 349.288 271.137 349.219 271.404 349.08C271.681 348.931 271.948 348.691 272.204 348.36V344.424C271.937 344.179 271.66 344.008 271.372 343.912C271.095 343.805 270.812 343.752 270.524 343.752C270.193 343.752 269.884 343.859 269.596 344.072C269.319 344.275 269.095 344.579 268.924 344.984C268.753 345.389 268.668 345.891 268.668 346.488C268.668 347.107 268.737 347.624 268.876 348.04C269.025 348.456 269.239 348.771 269.516 348.984C269.793 349.187 270.129 349.288 270.524 349.288ZM286.997 342.872H291.173V344.44H286.997V342.872ZM279.365 343.992H284.709V345.384H280.661V352.216H279.365V343.992ZM281.605 340.76H283.205V344.888H281.605V340.76ZM284.197 343.992H285.573V350.632C285.573 350.963 285.536 351.229 285.461 351.432C285.386 351.645 285.237 351.816 285.013 351.944C284.789 352.051 284.512 352.115 284.181 352.136C283.85 352.168 283.45 352.179 282.981 352.168C282.96 351.976 282.906 351.752 282.821 351.496C282.746 351.24 282.666 351.016 282.581 350.824C282.88 350.835 283.157 350.84 283.413 350.84C283.68 350.84 283.861 350.835 283.957 350.824C284.117 350.824 284.197 350.749 284.197 350.6V343.992ZM281.589 346.12H283.621V349.896H281.589V348.712H282.805V347.304H281.589V346.12ZM281.189 346.12H281.989V350.392H281.189V346.12ZM286.757 340.712L288.405 341.016C288.192 342.179 287.893 343.299 287.509 344.376C287.136 345.453 286.688 346.36 286.165 347.096C286.08 346.989 285.962 346.867 285.813 346.728C285.664 346.579 285.504 346.435 285.333 346.296C285.173 346.147 285.029 346.029 284.901 345.944C285.381 345.325 285.77 344.552 286.069 343.624C286.378 342.685 286.608 341.715 286.757 340.712ZM279.045 341.672L280.213 341.128C280.458 341.437 280.688 341.784 280.901 342.168C281.114 342.552 281.264 342.888 281.349 343.176L280.101 343.784C280.026 343.496 279.888 343.155 279.685 342.76C279.493 342.355 279.28 341.992 279.045 341.672ZM287.461 344.12C287.664 345.133 287.936 346.099 288.277 347.016C288.618 347.923 289.05 348.728 289.573 349.432C290.096 350.125 290.72 350.68 291.445 351.096C291.264 351.245 291.061 351.453 290.837 351.72C290.624 351.987 290.453 352.232 290.325 352.456C289.557 351.944 288.901 351.288 288.357 350.488C287.824 349.677 287.381 348.755 287.029 347.72C286.688 346.675 286.416 345.555 286.213 344.36L287.461 344.12ZM284.293 341.112L285.749 341.576C285.514 341.971 285.274 342.371 285.029 342.776C284.784 343.171 284.554 343.512 284.341 343.8L283.157 343.368C283.285 343.165 283.418 342.936 283.557 342.68C283.706 342.413 283.845 342.141 283.973 341.864C284.112 341.587 284.218 341.336 284.293 341.112ZM278.421 338.824H291.125V340.424H278.421V338.824ZM277.269 338.824H279.013V343.672C279.013 344.301 278.992 344.995 278.949 345.752C278.917 346.509 278.853 347.288 278.757 348.088C278.661 348.877 278.517 349.645 278.325 350.392C278.144 351.128 277.909 351.8 277.621 352.408C277.525 352.291 277.386 352.157 277.205 352.008C277.024 351.869 276.837 351.731 276.645 351.592C276.464 351.464 276.304 351.368 276.165 351.304C276.432 350.76 276.634 350.168 276.773 349.528C276.922 348.877 277.029 348.211 277.093 347.528C277.168 346.845 277.216 346.179 277.237 345.528C277.258 344.867 277.269 344.248 277.269 343.672V338.824ZM289.061 343.672L290.709 343.848C290.581 344.723 290.4 345.581 290.165 346.424C289.941 347.267 289.648 348.072 289.285 348.84C288.922 349.608 288.469 350.307 287.925 350.936C287.392 351.565 286.741 352.099 285.973 352.536C285.866 352.365 285.717 352.152 285.525 351.896C285.344 351.64 285.178 351.443 285.029 351.304C285.722 350.92 286.304 350.451 286.773 349.896C287.253 349.341 287.648 348.728 287.957 348.056C288.266 347.373 288.506 346.659 288.677 345.912C288.858 345.165 288.986 344.419 289.061 343.672ZM283.125 337.768L284.837 337.128C285.008 337.352 285.168 337.608 285.317 337.896C285.477 338.184 285.594 338.435 285.669 338.648L283.861 339.384C283.808 339.171 283.712 338.909 283.573 338.6C283.434 338.28 283.285 338.003 283.125 337.768Z" fill="#FEFBF9"/>
<path d="M165.658 373.232C164.901 371.995 164.309 370.704 163.882 369.36C163.466 368.016 163.258 366.549 163.258 364.96C163.258 363.36 163.466 361.888 163.882 360.544C164.309 359.2 164.901 357.909 165.658 356.672L167.114 357.296C166.442 358.469 165.946 359.712 165.626 361.024C165.317 362.336 165.162 363.648 165.162 364.96C165.162 366.272 165.317 367.584 165.626 368.896C165.946 370.208 166.442 371.445 167.114 372.608L165.658 373.232ZM169.401 370V358.144H171.769V370H169.401ZM174.491 370V361.04H176.411L176.587 362.224H176.635C177.029 361.84 177.461 361.509 177.931 361.232C178.4 360.955 178.939 360.816 179.547 360.816C180.517 360.816 181.221 361.136 181.659 361.776C182.096 362.405 182.315 363.285 182.315 364.416V370H179.963V364.704C179.963 364.011 179.861 363.525 179.659 363.248C179.467 362.971 179.147 362.832 178.699 362.832C178.336 362.832 178.016 362.917 177.739 363.088C177.472 363.259 177.173 363.509 176.843 363.84V370H174.491ZM184.261 366.272V364.576H188.629V366.272H184.261ZM190.662 370V357.232H193.014V360.448L192.902 362.128C193.254 361.787 193.66 361.483 194.118 361.216C194.577 360.949 195.11 360.816 195.718 360.816C196.689 360.816 197.393 361.136 197.83 361.776C198.268 362.405 198.486 363.285 198.486 364.416V370H196.134V364.704C196.134 364.011 196.033 363.525 195.83 363.248C195.638 362.971 195.318 362.832 194.87 362.832C194.508 362.832 194.188 362.917 193.91 363.088C193.644 363.259 193.345 363.509 193.014 363.84V370H190.662ZM204.641 370.224C203.894 370.224 203.19 370.037 202.529 369.664C201.878 369.291 201.35 368.757 200.945 368.064C200.539 367.36 200.337 366.512 200.337 365.52C200.337 364.528 200.539 363.685 200.945 362.992C201.35 362.288 201.878 361.749 202.529 361.376C203.19 361.003 203.894 360.816 204.641 360.816C205.206 360.816 205.745 360.923 206.257 361.136C206.769 361.349 207.227 361.659 207.633 362.064C208.038 362.459 208.358 362.949 208.593 363.536C208.827 364.112 208.945 364.773 208.945 365.52C208.945 366.512 208.742 367.36 208.337 368.064C207.931 368.757 207.398 369.291 206.737 369.664C206.086 370.037 205.387 370.224 204.641 370.224ZM204.641 368.304C205.046 368.304 205.387 368.192 205.665 367.968C205.953 367.733 206.166 367.408 206.305 366.992C206.454 366.576 206.529 366.085 206.529 365.52C206.529 364.955 206.454 364.464 206.305 364.048C206.166 363.632 205.953 363.312 205.665 363.088C205.387 362.853 205.046 362.736 204.641 362.736C204.235 362.736 203.889 362.853 203.601 363.088C203.323 363.312 203.11 363.632 202.961 364.048C202.822 364.464 202.753 364.955 202.753 365.52C202.753 366.085 202.822 366.576 202.961 366.992C203.11 367.408 203.323 367.733 203.601 367.968C203.889 368.192 204.235 368.304 204.641 368.304ZM213.584 370.224C212.614 370.224 211.91 369.909 211.472 369.28C211.035 368.64 210.816 367.755 210.816 366.624V361.04H213.152V366.336C213.152 367.029 213.254 367.515 213.456 367.792C213.659 368.069 213.984 368.208 214.432 368.208C214.795 368.208 215.11 368.123 215.376 367.952C215.654 367.771 215.942 367.483 216.24 367.088V361.04H218.592V370H216.672L216.496 368.704H216.432C216.048 369.163 215.632 369.531 215.184 369.808C214.736 370.085 214.203 370.224 213.584 370.224ZM223.66 370.224C223.063 370.224 222.455 370.107 221.836 369.872C221.228 369.637 220.7 369.339 220.252 368.976L221.324 367.488C221.719 367.787 222.108 368.027 222.492 368.208C222.887 368.379 223.297 368.464 223.724 368.464C224.172 368.464 224.497 368.379 224.7 368.208C224.913 368.027 225.02 367.797 225.02 367.52C225.02 367.296 224.929 367.109 224.748 366.96C224.567 366.8 224.332 366.661 224.044 366.544C223.756 366.416 223.457 366.293 223.148 366.176C222.775 366.027 222.401 365.845 222.028 365.632C221.665 365.419 221.361 365.147 221.116 364.816C220.871 364.475 220.748 364.053 220.748 363.552C220.748 363.019 220.887 362.549 221.164 362.144C221.441 361.728 221.825 361.403 222.316 361.168C222.817 360.933 223.409 360.816 224.092 360.816C224.743 360.816 225.319 360.928 225.82 361.152C226.332 361.376 226.769 361.632 227.132 361.92L226.076 363.344C225.756 363.109 225.436 362.923 225.116 362.784C224.807 362.645 224.487 362.576 224.156 362.576C223.74 362.576 223.436 362.656 223.244 362.816C223.052 362.976 222.956 363.184 222.956 363.44C222.956 363.653 223.036 363.835 223.196 363.984C223.356 364.123 223.575 364.245 223.852 364.352C224.129 364.459 224.423 364.571 224.732 364.688C225.031 364.795 225.324 364.923 225.612 365.072C225.911 365.211 226.183 365.381 226.428 365.584C226.673 365.787 226.865 366.037 227.004 366.336C227.153 366.624 227.228 366.976 227.228 367.392C227.228 367.915 227.089 368.395 226.812 368.832C226.545 369.259 226.145 369.6 225.612 369.856C225.089 370.101 224.439 370.224 223.66 370.224ZM232.926 370.224C232.094 370.224 231.342 370.037 230.67 369.664C229.998 369.291 229.459 368.752 229.054 368.048C228.659 367.344 228.462 366.501 228.462 365.52C228.462 364.795 228.574 364.144 228.798 363.568C229.032 362.992 229.347 362.501 229.742 362.096C230.147 361.68 230.595 361.365 231.086 361.152C231.587 360.928 232.104 360.816 232.638 360.816C233.459 360.816 234.147 361.003 234.702 361.376C235.256 361.739 235.672 362.245 235.95 362.896C236.238 363.536 236.382 364.272 236.382 365.104C236.382 365.317 236.371 365.525 236.35 365.728C236.328 365.92 236.302 366.075 236.27 366.192H230.75C230.814 366.672 230.958 367.077 231.182 367.408C231.406 367.739 231.694 367.989 232.046 368.16C232.398 368.32 232.798 368.4 233.246 368.4C233.608 368.4 233.95 368.352 234.27 368.256C234.59 368.149 234.915 367.995 235.246 367.792L236.046 369.232C235.608 369.531 235.118 369.771 234.574 369.952C234.03 370.133 233.48 370.224 232.926 370.224ZM230.702 364.608H234.366C234.366 364.011 234.227 363.536 233.95 363.184C233.683 362.821 233.256 362.64 232.67 362.64C232.36 362.64 232.067 362.715 231.79 362.864C231.512 363.003 231.278 363.221 231.086 363.52C230.894 363.808 230.766 364.171 230.702 364.608ZM248.255 361.872H252.431V363.44H248.255V361.872ZM240.623 362.992H245.967V364.384H241.919V371.216H240.623V362.992ZM242.863 359.76H244.463V363.888H242.863V359.76ZM245.455 362.992H246.831V369.632C246.831 369.963 246.793 370.229 246.719 370.432C246.644 370.645 246.495 370.816 246.271 370.944C246.047 371.051 245.769 371.115 245.439 371.136C245.108 371.168 244.708 371.179 244.239 371.168C244.217 370.976 244.164 370.752 244.079 370.496C244.004 370.24 243.924 370.016 243.839 369.824C244.137 369.835 244.415 369.84 244.671 369.84C244.937 369.84 245.119 369.835 245.215 369.824C245.375 369.824 245.455 369.749 245.455 369.6V362.992ZM242.847 365.12H244.879V368.896H242.847V367.712H244.063V366.304H242.847V365.12ZM242.447 365.12H243.247V369.392H242.447V365.12ZM248.015 359.712L249.663 360.016C249.449 361.179 249.151 362.299 248.767 363.376C248.393 364.453 247.945 365.36 247.423 366.096C247.337 365.989 247.22 365.867 247.071 365.728C246.921 365.579 246.761 365.435 246.591 365.296C246.431 365.147 246.287 365.029 246.159 364.944C246.639 364.325 247.028 363.552 247.327 362.624C247.636 361.685 247.865 360.715 248.015 359.712ZM240.303 360.672L241.471 360.128C241.716 360.437 241.945 360.784 242.159 361.168C242.372 361.552 242.521 361.888 242.607 362.176L241.359 362.784C241.284 362.496 241.145 362.155 240.943 361.76C240.751 361.355 240.537 360.992 240.303 360.672ZM248.719 363.12C248.921 364.133 249.193 365.099 249.535 366.016C249.876 366.923 250.308 367.728 250.831 368.432C251.353 369.125 251.977 369.68 252.703 370.096C252.521 370.245 252.319 370.453 252.095 370.72C251.881 370.987 251.711 371.232 251.583 371.456C250.815 370.944 250.159 370.288 249.615 369.488C249.081 368.677 248.639 367.755 248.287 366.72C247.945 365.675 247.673 364.555 247.471 363.36L248.719 363.12ZM245.551 360.112L247.007 360.576C246.772 360.971 246.532 361.371 246.287 361.776C246.041 362.171 245.812 362.512 245.599 362.8L244.415 362.368C244.543 362.165 244.676 361.936 244.815 361.68C244.964 361.413 245.103 361.141 245.231 360.864C245.369 360.587 245.476 360.336 245.551 360.112ZM239.679 357.824H252.383V359.424H239.679V357.824ZM238.527 357.824H240.271V362.672C240.271 363.301 240.249 363.995 240.207 364.752C240.175 365.509 240.111 366.288 240.015 367.088C239.919 367.877 239.775 368.645 239.583 369.392C239.401 370.128 239.167 370.8 238.879 371.408C238.783 371.291 238.644 371.157 238.463 371.008C238.281 370.869 238.095 370.731 237.903 370.592C237.721 370.464 237.561 370.368 237.423 370.304C237.689 369.76 237.892 369.168 238.031 368.528C238.18 367.877 238.287 367.211 238.351 366.528C238.425 365.845 238.473 365.179 238.495 364.528C238.516 363.867 238.527 363.248 238.527 362.672V357.824ZM250.319 362.672L251.967 362.848C251.839 363.723 251.657 364.581 251.423 365.424C251.199 366.267 250.905 367.072 250.543 367.84C250.18 368.608 249.727 369.307 249.183 369.936C248.649 370.565 247.999 371.099 247.231 371.536C247.124 371.365 246.975 371.152 246.783 370.896C246.601 370.64 246.436 370.443 246.287 370.304C246.98 369.92 247.561 369.451 248.031 368.896C248.511 368.341 248.905 367.728 249.215 367.056C249.524 366.373 249.764 365.659 249.935 364.912C250.116 364.165 250.244 363.419 250.319 362.672ZM244.383 356.768L246.095 356.128C246.265 356.352 246.425 356.608 246.575 356.896C246.735 357.184 246.852 357.435 246.927 357.648L245.119 358.384C245.065 358.171 244.969 357.909 244.831 357.6C244.692 357.28 244.543 357.003 244.383 356.768ZM255.343 373.232L253.887 372.608C254.559 371.445 255.049 370.208 255.359 368.896C255.679 367.584 255.839 366.272 255.839 364.96C255.839 363.648 255.679 362.336 255.359 361.024C255.049 359.712 254.559 358.469 253.887 357.296L255.343 356.672C256.1 357.909 256.687 359.2 257.103 360.544C257.529 361.888 257.743 363.36 257.743 364.96C257.743 366.549 257.529 368.016 257.103 369.36C256.687 370.704 256.1 371.995 255.343 373.232Z" fill="#FEFBF9"/>
</g>
<g filter="url(#filter1_d_1497_16933)">
<rect x="470" y="516" width="128" height="40" rx="20" fill="#004EA2" shape-rendering="crispEdges"/>
<path d="M489.488 534.676H499.44V536.18H489.488V534.676ZM489.488 532.18H499.44V533.684H489.488V532.18ZM488.48 537.188H499.6V538.836H488.48V537.188ZM499.232 537.188H501.168C501.168 537.188 501.163 537.279 501.152 537.46C501.152 537.641 501.147 537.796 501.136 537.924C501.072 539.044 501.003 539.967 500.928 540.692C500.853 541.407 500.763 541.972 500.656 542.388C500.549 542.793 500.421 543.081 500.272 543.252C500.091 543.455 499.904 543.599 499.712 543.684C499.52 543.78 499.296 543.844 499.04 543.876C498.827 543.908 498.544 543.924 498.192 543.924C497.851 543.935 497.483 543.935 497.088 543.924C497.077 543.647 497.024 543.343 496.928 543.012C496.832 542.681 496.709 542.393 496.56 542.148C496.88 542.18 497.179 542.201 497.456 542.212C497.733 542.223 497.941 542.223 498.08 542.212C498.208 542.212 498.309 542.201 498.384 542.18C498.459 542.159 498.533 542.111 498.608 542.036C498.704 541.929 498.789 541.716 498.864 541.396C498.939 541.065 499.003 540.585 499.056 539.956C499.12 539.316 499.179 538.484 499.232 537.46V537.188ZM493.12 539.924L494.608 539.556C494.821 540.025 495.019 540.537 495.2 541.092C495.392 541.636 495.52 542.1 495.584 542.484L494 542.916C493.947 542.521 493.835 542.047 493.664 541.492C493.504 540.927 493.323 540.404 493.12 539.924ZM495.696 539.652L497.072 539.188C497.317 539.529 497.552 539.913 497.776 540.34C498.011 540.756 498.176 541.113 498.272 541.412L496.8 541.956C496.704 541.657 496.549 541.289 496.336 540.852C496.133 540.404 495.92 540.004 495.696 539.652ZM490.368 539.972L491.984 539.716C492.155 540.239 492.293 540.809 492.4 541.428C492.517 542.036 492.587 542.564 492.608 543.012L490.88 543.316C490.88 543.007 490.859 542.665 490.816 542.292C490.773 541.908 490.709 541.513 490.624 541.108C490.549 540.703 490.464 540.324 490.368 539.972ZM488.064 539.236L489.76 539.7C489.664 540.223 489.541 540.74 489.392 541.252C489.243 541.764 489.051 542.239 488.816 542.676C488.581 543.113 488.283 543.497 487.92 543.828L486.368 542.852C486.827 542.425 487.195 541.897 487.472 541.268C487.76 540.628 487.957 539.951 488.064 539.236ZM493.264 530.42H495.168V537.828H493.264V530.42ZM488.48 529.54H500V531.188H490.368V537.988H488.48V529.54ZM503.088 530.916H517.008V532.788H503.088V530.916ZM508.928 528.916H510.96V543.94H508.928V528.916ZM509.152 536.132L510.752 536.756C510.357 537.46 509.904 538.137 509.392 538.788C508.891 539.439 508.341 540.047 507.744 540.612C507.147 541.177 506.512 541.689 505.84 542.148C505.179 542.607 504.491 543.007 503.776 543.348C503.68 543.177 503.552 542.985 503.392 542.772C503.232 542.569 503.067 542.372 502.896 542.18C502.725 541.977 502.565 541.812 502.416 541.684C503.099 541.417 503.771 541.087 504.432 540.692C505.104 540.297 505.733 539.86 506.32 539.38C506.907 538.889 507.44 538.372 507.92 537.828C508.411 537.273 508.821 536.708 509.152 536.132ZM510.88 536.26C511.328 536.996 511.899 537.705 512.592 538.388C513.296 539.071 514.075 539.689 514.928 540.244C515.781 540.788 516.667 541.231 517.584 541.572C517.424 541.7 517.253 541.871 517.072 542.084C516.901 542.287 516.731 542.495 516.56 542.708C516.4 542.932 516.267 543.14 516.16 543.332C515.243 542.905 514.357 542.367 513.504 541.716C512.651 541.055 511.867 540.313 511.152 539.492C510.437 538.671 509.819 537.801 509.296 536.884L510.88 536.26ZM505.024 535.556L506.24 534.356C506.485 534.548 506.752 534.772 507.04 535.028C507.328 535.273 507.605 535.513 507.872 535.748C508.139 535.983 508.357 536.191 508.528 536.372L507.248 537.732C507.099 537.54 506.891 537.316 506.624 537.06C506.368 536.804 506.101 536.548 505.824 536.292C505.547 536.025 505.28 535.78 505.024 535.556ZM505.68 532.884L507.536 533.236C507.248 534.399 506.827 535.465 506.272 536.436C505.717 537.396 505.067 538.185 504.32 538.804C504.213 538.687 504.069 538.548 503.888 538.388C503.707 538.228 503.52 538.073 503.328 537.924C503.147 537.764 502.981 537.641 502.832 537.556C503.547 537.033 504.144 536.367 504.624 535.556C505.104 534.745 505.456 533.855 505.68 532.884ZM512.688 535.636L513.936 534.484C514.267 534.729 514.635 535.012 515.04 535.332C515.456 535.641 515.856 535.951 516.24 536.26C516.624 536.559 516.933 536.825 517.168 537.06L515.84 538.372C515.616 538.137 515.323 537.86 514.96 537.54C514.597 537.22 514.213 536.895 513.808 536.564C513.403 536.223 513.029 535.913 512.688 535.636ZM513.216 532.884L515.088 533.22C514.864 534.169 514.544 535.055 514.128 535.876C513.712 536.687 513.232 537.359 512.688 537.892C512.571 537.796 512.411 537.684 512.208 537.556C512.016 537.428 511.813 537.305 511.6 537.188C511.387 537.06 511.205 536.959 511.056 536.884C511.6 536.425 512.053 535.844 512.416 535.14C512.789 534.436 513.056 533.684 513.216 532.884ZM520.688 541.188H531.456V542.964H520.688V541.188ZM519.6 533.364H532.608V543.844H530.656V535.14H521.456V543.876H519.6V533.364ZM518.784 529.78H533.168V531.636H518.784V529.78ZM523.376 530.932H525.088V534.596C525.088 535.204 525.013 535.823 524.864 536.452C524.725 537.081 524.437 537.673 524 538.228C523.573 538.783 522.939 539.252 522.096 539.636C522.032 539.508 521.925 539.359 521.776 539.188C521.637 539.007 521.488 538.836 521.328 538.676C521.179 538.505 521.051 538.377 520.944 538.292C521.68 537.972 522.219 537.609 522.56 537.204C522.912 536.799 523.136 536.372 523.232 535.924C523.328 535.476 523.376 535.017 523.376 534.548V530.932ZM526.784 530.932H528.608V536.836C528.608 537.103 528.635 537.268 528.688 537.332C528.741 537.396 528.88 537.428 529.104 537.428C529.147 537.428 529.221 537.428 529.328 537.428C529.445 537.428 529.573 537.428 529.712 537.428C529.851 537.428 529.979 537.428 530.096 537.428C530.224 537.428 530.315 537.428 530.368 537.428C530.517 537.428 530.613 537.417 530.656 537.396C530.709 537.364 530.752 537.327 530.784 537.284C530.965 537.423 531.211 537.556 531.52 537.684C531.84 537.812 532.133 537.908 532.4 537.972C532.272 538.441 532.064 538.767 531.776 538.948C531.499 539.119 531.093 539.204 530.56 539.204C530.475 539.204 530.352 539.204 530.192 539.204C530.032 539.204 529.861 539.204 529.68 539.204C529.499 539.204 529.328 539.204 529.168 539.204C529.019 539.204 528.901 539.204 528.816 539.204C528.261 539.204 527.835 539.135 527.536 538.996C527.248 538.857 527.051 538.617 526.944 538.276C526.837 537.924 526.784 537.444 526.784 536.836V530.932ZM534.992 529.748H549.056V531.492H534.992V529.748ZM534.72 541.524H549.296V543.268H534.72V541.524ZM536.928 537.636H541.104V542.532H539.264V539.268H536.928V537.636ZM535.792 533.444H541.104V535.076H537.68V539.268H535.792V533.444ZM541.104 530.548V534.196H539.264V530.548H541.104ZM542.768 530.612H544.624V534.26H542.768V530.612ZM542.768 533.444H548.208V539.268H546.256V535.06H542.768V533.444ZM542.768 537.636H547.28V539.268H544.624V542.58H542.768V537.636ZM554.368 535.604L555.632 535.252C555.76 535.583 555.883 535.94 556 536.324C556.117 536.697 556.224 537.065 556.32 537.428C556.427 537.791 556.496 538.105 556.528 538.372L555.184 538.82C555.141 538.543 555.077 538.223 554.992 537.86C554.907 537.487 554.811 537.103 554.704 536.708C554.597 536.313 554.485 535.945 554.368 535.604ZM552.864 539.668L554.112 539.364C554.208 539.908 554.293 540.489 554.368 541.108C554.453 541.727 554.507 542.265 554.528 542.724L553.216 543.06C553.216 542.751 553.195 542.399 553.152 542.004C553.12 541.609 553.077 541.215 553.024 540.82C552.971 540.415 552.917 540.031 552.864 539.668ZM551.28 539.476L552.624 539.7C552.549 540.404 552.437 541.108 552.288 541.812C552.149 542.516 551.989 543.108 551.808 543.588C551.659 543.513 551.445 543.428 551.168 543.332C550.901 543.247 550.683 543.183 550.512 543.14C550.715 542.66 550.875 542.095 550.992 541.444C551.12 540.783 551.216 540.127 551.28 539.476ZM550.944 535.268C550.912 535.151 550.864 534.996 550.8 534.804C550.736 534.601 550.667 534.399 550.592 534.196C550.517 533.983 550.448 533.807 550.384 533.668C550.544 533.625 550.693 533.529 550.832 533.38C550.971 533.231 551.115 533.033 551.264 532.788C551.381 532.639 551.547 532.361 551.76 531.956C551.984 531.551 552.219 531.076 552.464 530.532C552.72 529.977 552.933 529.417 553.104 528.852L554.768 529.54C554.405 530.404 553.973 531.268 553.472 532.132C552.971 532.985 552.469 533.732 551.968 534.372V534.404C551.968 534.404 551.915 534.436 551.808 534.5C551.712 534.553 551.595 534.628 551.456 534.724C551.317 534.809 551.195 534.9 551.088 534.996C550.992 535.092 550.944 535.183 550.944 535.268ZM550.944 535.268L550.912 534.036L551.632 533.556L554.4 533.364C554.357 533.577 554.32 533.817 554.288 534.084C554.256 534.351 554.235 534.575 554.224 534.756C553.403 534.831 552.773 534.9 552.336 534.964C551.899 535.017 551.584 535.071 551.392 535.124C551.2 535.167 551.051 535.215 550.944 535.268ZM551.072 538.98C551.04 538.873 550.992 538.724 550.928 538.532C550.864 538.34 550.795 538.143 550.72 537.94C550.656 537.737 550.587 537.567 550.512 537.428C550.715 537.375 550.907 537.257 551.088 537.076C551.28 536.884 551.499 536.639 551.744 536.34C551.872 536.191 552.059 535.945 552.304 535.604C552.549 535.263 552.821 534.857 553.12 534.388C553.419 533.919 553.717 533.412 554.016 532.868C554.315 532.324 554.587 531.775 554.832 531.22L556.336 532.052C555.952 532.777 555.52 533.508 555.04 534.244C554.571 534.969 554.08 535.668 553.568 536.34C553.056 537.001 552.539 537.599 552.016 538.132V538.164C552.016 538.164 551.968 538.196 551.872 538.26C551.776 538.313 551.664 538.383 551.536 538.468C551.419 538.553 551.312 538.644 551.216 538.74C551.12 538.825 551.072 538.905 551.072 538.98ZM551.072 538.98L550.96 537.684L551.664 537.172L555.632 536.484C555.611 536.697 555.6 536.943 555.6 537.22C555.6 537.487 555.605 537.705 555.616 537.876C554.709 538.057 553.979 538.207 553.424 538.324C552.869 538.441 552.437 538.543 552.128 538.628C551.819 538.703 551.584 538.767 551.424 538.82C551.275 538.873 551.157 538.927 551.072 538.98ZM554.4 539.348L555.6 538.996C555.739 539.412 555.861 539.86 555.968 540.34C556.085 540.809 556.171 541.22 556.224 541.572L554.96 541.972C554.917 541.609 554.837 541.183 554.72 540.692C554.613 540.201 554.507 539.753 554.4 539.348ZM562.96 539.604L564.24 539.092C564.4 539.455 564.56 539.844 564.72 540.26C564.891 540.665 565.051 541.065 565.2 541.46C565.349 541.844 565.472 542.191 565.568 542.5L564.24 543.108C564.144 542.788 564.027 542.425 563.888 542.02C563.749 541.615 563.595 541.204 563.424 540.788C563.264 540.361 563.109 539.967 562.96 539.604ZM558.192 539.268H559.776V541.844C559.776 542.036 559.808 542.164 559.872 542.228C559.936 542.281 560.085 542.308 560.32 542.308C560.373 542.308 560.464 542.308 560.592 542.308C560.72 542.308 560.859 542.308 561.008 542.308C561.157 542.308 561.296 542.308 561.424 542.308C561.563 542.308 561.669 542.308 561.744 542.308C561.883 542.308 561.984 542.276 562.048 542.212C562.123 542.137 562.176 541.993 562.208 541.78C562.24 541.567 562.267 541.247 562.288 540.82C562.437 540.948 562.651 541.06 562.928 541.156C563.205 541.252 563.445 541.327 563.648 541.38C563.605 541.977 563.52 542.436 563.392 542.756C563.264 543.087 563.083 543.316 562.848 543.444C562.613 543.572 562.299 543.636 561.904 543.636C561.829 543.636 561.707 543.636 561.536 543.636C561.365 543.636 561.184 543.636 560.992 543.636C560.8 543.636 560.619 543.636 560.448 543.636C560.288 543.636 560.171 543.636 560.096 543.636C559.584 543.636 559.189 543.583 558.912 543.476C558.645 543.369 558.459 543.183 558.352 542.916C558.245 542.66 558.192 542.308 558.192 541.86V539.268ZM556.816 539.22L558.128 539.684C558.043 540.068 557.947 540.484 557.84 540.932C557.733 541.369 557.611 541.807 557.472 542.244C557.333 542.671 557.184 543.044 557.024 543.364L555.68 542.74C555.84 542.431 555.995 542.079 556.144 541.684C556.293 541.279 556.427 540.863 556.544 540.436C556.661 540.009 556.752 539.604 556.816 539.22ZM559.728 528.772L561.664 529.076C561.493 529.439 561.317 529.791 561.136 530.132C560.955 530.463 560.795 530.745 560.656 530.98L559.168 530.66C559.275 530.372 559.381 530.052 559.488 529.7C559.595 529.348 559.675 529.039 559.728 528.772ZM560.752 531.988L561.904 532.196C561.605 532.729 561.221 533.236 560.752 533.716C560.283 534.196 559.707 534.639 559.024 535.044C558.949 534.916 558.837 534.767 558.688 534.596C558.539 534.425 558.405 534.303 558.288 534.228C558.885 533.908 559.387 533.551 559.792 533.156C560.208 532.761 560.528 532.372 560.752 531.988ZM558.704 532.724L559.648 532.1C560.096 532.463 560.533 532.873 560.96 533.332C561.397 533.78 561.797 534.228 562.16 534.676C562.533 535.113 562.827 535.513 563.04 535.876L562.032 536.612C561.808 536.228 561.515 535.807 561.152 535.348C560.789 534.889 560.395 534.431 559.968 533.972C559.541 533.503 559.12 533.087 558.704 532.724ZM562.048 532.98L563.2 533.172C562.816 533.823 562.315 534.452 561.696 535.06C561.088 535.668 560.336 536.217 559.44 536.708C559.376 536.569 559.275 536.42 559.136 536.26C558.997 536.089 558.864 535.956 558.736 535.86C559.269 535.593 559.749 535.3 560.176 534.98C560.603 534.66 560.971 534.329 561.28 533.988C561.6 533.636 561.856 533.3 562.048 532.98ZM558.448 531.908V536.74H563.072V531.908H558.448ZM556.8 530.372H564.8V538.276H556.8V530.372ZM559.968 538.788L561.2 538.212C561.371 538.468 561.547 538.751 561.728 539.06C561.92 539.359 562.101 539.647 562.272 539.924C562.443 540.201 562.581 540.447 562.688 540.66L561.376 541.332C561.28 541.119 561.152 540.868 560.992 540.58C560.843 540.281 560.677 539.977 560.496 539.668C560.315 539.348 560.139 539.055 559.968 538.788ZM577.2 534.372H581.376V535.94H577.2V534.372ZM569.568 535.492H574.912V536.884H570.864V543.716H569.568V535.492ZM571.808 532.26H573.408V536.388H571.808V532.26ZM574.4 535.492H575.776V542.132C575.776 542.463 575.739 542.729 575.664 542.932C575.589 543.145 575.44 543.316 575.216 543.444C574.992 543.551 574.715 543.615 574.384 543.636C574.053 543.668 573.653 543.679 573.184 543.668C573.163 543.476 573.109 543.252 573.024 542.996C572.949 542.74 572.869 542.516 572.784 542.324C573.083 542.335 573.36 542.34 573.616 542.34C573.883 542.34 574.064 542.335 574.16 542.324C574.32 542.324 574.4 542.249 574.4 542.1V535.492ZM571.792 537.62H573.824V541.396H571.792V540.212H573.008V538.804H571.792V537.62ZM571.392 537.62H572.192V541.892H571.392V537.62ZM576.96 532.212L578.608 532.516C578.395 533.679 578.096 534.799 577.712 535.876C577.339 536.953 576.891 537.86 576.368 538.596C576.283 538.489 576.165 538.367 576.016 538.228C575.867 538.079 575.707 537.935 575.536 537.796C575.376 537.647 575.232 537.529 575.104 537.444C575.584 536.825 575.973 536.052 576.272 535.124C576.581 534.185 576.811 533.215 576.96 532.212ZM569.248 533.172L570.416 532.628C570.661 532.937 570.891 533.284 571.104 533.668C571.317 534.052 571.467 534.388 571.552 534.676L570.304 535.284C570.229 534.996 570.091 534.655 569.888 534.26C569.696 533.855 569.483 533.492 569.248 533.172ZM577.664 535.62C577.867 536.633 578.139 537.599 578.48 538.516C578.821 539.423 579.253 540.228 579.776 540.932C580.299 541.625 580.923 542.18 581.648 542.596C581.467 542.745 581.264 542.953 581.04 543.22C580.827 543.487 580.656 543.732 580.528 543.956C579.76 543.444 579.104 542.788 578.56 541.988C578.027 541.177 577.584 540.255 577.232 539.22C576.891 538.175 576.619 537.055 576.416 535.86L577.664 535.62ZM574.496 532.612L575.952 533.076C575.717 533.471 575.477 533.871 575.232 534.276C574.987 534.671 574.757 535.012 574.544 535.3L573.36 534.868C573.488 534.665 573.621 534.436 573.76 534.18C573.909 533.913 574.048 533.641 574.176 533.364C574.315 533.087 574.421 532.836 574.496 532.612ZM568.624 530.324H581.328V531.924H568.624V530.324ZM567.472 530.324H569.216V535.172C569.216 535.801 569.195 536.495 569.152 537.252C569.12 538.009 569.056 538.788 568.96 539.588C568.864 540.377 568.72 541.145 568.528 541.892C568.347 542.628 568.112 543.3 567.824 543.908C567.728 543.791 567.589 543.657 567.408 543.508C567.227 543.369 567.04 543.231 566.848 543.092C566.667 542.964 566.507 542.868 566.368 542.804C566.635 542.26 566.837 541.668 566.976 541.028C567.125 540.377 567.232 539.711 567.296 539.028C567.371 538.345 567.419 537.679 567.44 537.028C567.461 536.367 567.472 535.748 567.472 535.172V530.324ZM579.264 535.172L580.912 535.348C580.784 536.223 580.603 537.081 580.368 537.924C580.144 538.767 579.851 539.572 579.488 540.34C579.125 541.108 578.672 541.807 578.128 542.436C577.595 543.065 576.944 543.599 576.176 544.036C576.069 543.865 575.92 543.652 575.728 543.396C575.547 543.14 575.381 542.943 575.232 542.804C575.925 542.42 576.507 541.951 576.976 541.396C577.456 540.841 577.851 540.228 578.16 539.556C578.469 538.873 578.709 538.159 578.88 537.412C579.061 536.665 579.189 535.919 579.264 535.172ZM573.328 529.268L575.04 528.628C575.211 528.852 575.371 529.108 575.52 529.396C575.68 529.684 575.797 529.935 575.872 530.148L574.064 530.884C574.011 530.671 573.915 530.409 573.776 530.1C573.637 529.78 573.488 529.503 573.328 529.268Z" fill="#FEFBF9"/>
</g>
<g filter="url(#filter2_dd_1497_16933)">
<ellipse cx="444.553" cy="552.339" rx="7.24288" ry="4.8201" fill="white" fill-opacity="0.6"/>
<path d="M444.554 545.127C447.669 545.127 450.466 545.968 452.471 547.302C454.478 548.638 455.642 550.429 455.642 552.339C455.642 554.249 454.479 556.04 452.471 557.376C450.466 558.71 447.669 559.552 444.554 559.552C441.438 559.552 438.64 558.71 436.636 557.376C434.628 556.04 433.465 554.249 433.465 552.339C433.465 550.429 434.628 548.638 436.636 547.302C438.64 545.968 441.438 545.127 444.554 545.127Z" stroke="white" stroke-opacity="0.6"/>
<path d="M455.756 539.51C454.121 542.673 448.994 547.234 444.507 551.49C439.954 547.427 434.893 541.714 433.835 540.276C432.778 538.839 430.305 532.551 433.835 527.625C436.692 523.494 439.697 521.509 444.507 521.491C449.35 521.472 452.154 523.415 455.275 527.625C457.606 532.736 457.39 536.347 455.756 539.51Z" fill="#FFC936" stroke="black"/>
<path d="M444.725 526.02C440.674 526.02 437.412 529.216 437.412 533.132C437.412 537.048 440.674 540.243 444.725 540.243C448.775 540.243 452.037 537.048 452.037 533.132C452.037 529.216 448.776 526.02 444.725 526.02Z" fill="#F5F5F5" stroke="black"/>
</g>
<g filter="url(#filter3_dd_1497_16933)">
<ellipse cx="332.553" cy="373.339" rx="7.24288" ry="4.8201" fill="white" fill-opacity="0.6"/>
<path d="M332.554 366.127C335.669 366.127 338.466 366.968 340.471 368.302C342.478 369.638 343.642 371.429 343.642 373.339C343.642 375.249 342.479 377.04 340.471 378.376C338.466 379.71 335.669 380.552 332.554 380.552C329.438 380.552 326.64 379.71 324.636 378.376C322.628 377.04 321.465 375.249 321.465 373.339C321.465 371.429 322.628 369.638 324.636 368.302C326.64 366.968 329.438 366.127 332.554 366.127Z" stroke="white" stroke-opacity="0.6"/>
<path d="M343.756 360.51C342.121 363.673 336.994 368.234 332.507 372.49C327.954 368.427 322.893 362.714 321.835 361.276C320.778 359.839 318.305 353.551 321.835 348.625C324.692 344.494 327.697 342.509 332.507 342.491C337.35 342.472 340.154 344.415 343.275 348.625C345.606 353.736 345.39 357.347 343.756 360.51Z" fill="#FFC936" stroke="black"/>
<path d="M332.725 347.02C328.674 347.02 325.412 350.216 325.412 354.132C325.412 358.048 328.674 361.243 332.725 361.243C336.775 361.243 340.037 358.048 340.037 354.132C340.037 350.216 336.776 347.02 332.725 347.02Z" fill="#F5F5F5" stroke="black"/>
</g>
<defs>
<filter id="filter0_d_1497_16933" x="103" y="318" width="215" height="80" filterUnits="userSpaceOnUse" color-interpolation-filters="sRGB">
<feFlood flood-opacity="0" result="BackgroundImageFix"/>
<feColorMatrix in="SourceAlpha" type="matrix" values="0 0 0 0 0 0 0 0 0 0 0 0 0 0 0 0 0 0 127 0" result="hardAlpha"/>
<feOffset dy="4"/>
<feGaussianBlur stdDeviation="5"/>
<feComposite in2="hardAlpha" operator="out"/>
<feColorMatrix type="matrix" values="0 0 0 0 0 0 0 0 0 0 0 0 0 0 0 0 0 0 0.2 0"/>
<feBlend mode="normal" in2="BackgroundImageFix" result="effect1_dropShadow_1497_16933"/>
<feBlend mode="normal" in="SourceGraphic" in2="effect1_dropShadow_1497_16933" result="shape"/>
</filter>
<filter id="filter1_d_1497_16933" x="460" y="510" width="148" height="60" filterUnits="userSpaceOnUse" color-interpolation-filters="sRGB">
<feFlood flood-opacity="0" result="BackgroundImageFix"/>
<feColorMatrix in="SourceAlpha" type="matrix" values="0 0 0 0 0 0 0 0 0 0 0 0 0 0 0 0 0 0 127 0" result="hardAlpha"/>
<feOffset dy="4"/>
<feGaussianBlur stdDeviation="5"/>
<feComposite in2="hardAlpha" operator="out"/>
<feColorMatrix type="matrix" values="0 0 0 0 0 0 0 0 0 0 0 0 0 0 0 0 0 0 0.2 0"/>
<feBlend mode="normal" in2="BackgroundImageFix" result="effect1_dropShadow_1497_16933"/>
<feBlend mode="normal" in="SourceGraphic" in2="effect1_dropShadow_1497_16933" result="shape"/>
</filter>
<filter id="filter2_dd_1497_16933" x="415.504" y="484" width="75.3301" height="92.0513" filterUnits="userSpaceOnUse" color-interpolation-filters="sRGB">
<feFlood flood-opacity="0" result="BackgroundImageFix"/>
<feColorMatrix in="SourceAlpha" type="matrix" values="0 0 0 0 0 0 0 0 0 0 0 0 0 0 0 0 0 0 127 0" result="hardAlpha"/>
<feOffset/>
<feGaussianBlur stdDeviation="8"/>
<feColorMatrix type="matrix" values="0 0 0 0 0.975962 0 0 0 0 0.830975 0 0 0 0 0.00938425 0 0 0 1 0"/>
<feBlend mode="normal" in2="BackgroundImageFix" result="effect1_dropShadow_1497_16933"/>
<feColorMatrix in="SourceAlpha" type="matrix" values="0 0 0 0 0 0 0 0 0 0 0 0 0 0 0 0 0 0 127 0" result="hardAlpha"/>
<feOffset/>
<feGaussianBlur stdDeviation="4"/>
<feComposite in2="hardAlpha" operator="out"/>
<feColorMatrix type="matrix" values="0 0 0 0 1 0 0 0 0 1 0 0 0 0 1 0 0 0 1 0"/>
<feBlend mode="normal" in2="effect1_dropShadow_1497_16933" result="effect2_dropShadow_1497_16933"/>
<feBlend mode="normal" in="SourceGraphic" in2="effect2_dropShadow_1497_16933" result="shape"/>
</filter>
<filter id="filter3_dd_1497_16933" x="303.504" y="305" width="75.3301" height="92.0513" filterUnits="userSpaceOnUse" color-interpolation-filters="sRGB">
<feFlood flood-opacity="0" result="BackgroundImageFix"/>
<feColorMatrix in="SourceAlpha" type="matrix" values="0 0 0 0 0 0 0 0 0 0 0 0 0 0 0 0 0 0 127 0" result="hardAlpha"/>
<feOffset/>
<feGaussianBlur stdDeviation="8"/>
<feColorMatrix type="matrix" values="0 0 0 0 0.975962 0 0 0 0 0.830975 0 0 0 0 0.00938425 0 0 0 1 0"/>
<feBlend mode="normal" in2="BackgroundImageFix" result="effect1_dropShadow_1497_16933"/>
<feColorMatrix in="SourceAlpha" type="matrix" values="0 0 0 0 0 0 0 0 0 0 0 0 0 0 0 0 0 0 127 0" result="hardAlpha"/>
<feOffset/>
<feGaussianBlur stdDeviation="4"/>
<feComposite in2="hardAlpha" operator="out"/>
<feColorMatrix type="matrix" values="0 0 0 0 1 0 0 0 0 1 0 0 0 0 1 0 0 0 1 0"/>
<feBlend mode="normal" in2="effect1_dropShadow_1497_16933" result="effect2_dropShadow_1497_16933"/>
<feBlend mode="normal" in="SourceGraphic" in2="effect2_dropShadow_1497_16933" result="shape"/>
</filter>
</defs>
</svg>
