<svg width="1531" height="806" viewBox="0 0 1531 806" fill="none" xmlns="http://www.w3.org/2000/svg">
<path d="M976.788 32.0099C989.288 31.4099 979.588 58.2099 978.688 65.0099C977.088 72.4099 979.288 80.4099 979.988 88.0099C981.088 94.9099 980.388 101.91 980.488 108.81C980.788 113.71 983.288 119.11 982.888 123.81C982.588 127.91 979.388 131.91 980.088 136.11C983.688 146.41 981.088 158.71 983.188 169.91C984.088 177.71 982.188 185.51 986.688 192.31C988.188 197.11 992.188 202.01 991.988 207.61C991.688 218.81 982.188 224.01 982.988 236.01C980.988 244.91 971.988 250.31 967.088 257.71C953.988 276.01 951.188 284.71 930.188 295.41C923.988 299.31 920.688 303.81 914.688 306.61C904.888 310.31 894.188 311.71 884.488 315.81C874.388 318.71 864.988 322.71 855.988 327.91C849.788 330.91 843.088 333.51 838.088 338.51C831.288 345.11 828.188 353.51 821.388 360.01C813.788 366.01 808.788 374.11 801.988 380.61C795.188 385.61 785.588 385.11 779.388 391.31C768.588 400.71 760.888 416.01 746.488 419.81C742.188 420.61 736.588 415.91 734.088 415.21C733.088 415.81 734.588 418.01 734.988 419.31C741.788 430.91 731.788 442.31 738.388 452.21C743.988 458.71 748.788 465.91 748.688 474.91C748.688 483.91 752.888 492.31 755.488 500.81C758.188 509.41 755.988 519.91 757.988 528.71C758.188 529.21 758.388 529.81 758.988 529.61C760.488 529.31 762.588 521.51 764.088 525.61C765.588 531.21 763.388 537.51 763.288 543.11C762.888 548.11 764.788 552.41 764.588 557.21C762.988 568.11 756.888 581.11 756.688 592.01C756.688 594.01 758.388 595.21 759.588 596.51C763.288 601.41 757.488 609.11 754.488 613.61C749.388 620.41 745.088 627.11 737.488 630.41C722.788 637.31 706.288 641.71 691.288 647.21C676.088 653.61 658.588 654.61 650.188 671.21C647.288 675.91 642.888 681.91 644.188 687.11C644.688 689.61 646.288 692.11 648.688 693.01C650.288 693.81 652.188 693.01 653.488 693.01C655.388 694.01 654.288 698.31 654.188 700.51C652.988 707.01 653.088 715.71 648.088 719.71C641.588 722.71 632.388 719.91 625.888 718.61C619.488 717.01 622.388 703.21 621.088 697.81C621.788 689.01 617.588 681.71 616.788 672.91C617.888 660.61 619.988 648.01 619.888 635.41C621.888 621.31 620.088 607.71 616.088 594.11C611.188 581.71 604.588 569.71 604.588 556.01C604.988 544.51 592.388 529.81 602.888 520.51C613.488 512.61 623.188 501.31 631.988 491.71C635.488 488.11 638.588 484.21 640.688 479.61C645.888 471.11 644.088 459.91 650.188 452.01C660.788 441.61 672.788 424.91 663.488 410.21C659.088 402.81 662.488 394.11 660.288 386.21C657.588 374.61 671.088 368.21 668.988 351.81C667.388 334.71 674.088 319.21 667.488 302.21C666.888 297.31 667.588 293.11 664.688 289.21C659.288 284.11 652.988 279.41 645.488 277.31C624.788 276.91 614.688 260.61 595.688 257.61C576.888 256.01 570.788 261.41 567.188 238.51C564.088 229.61 558.288 216.51 570.088 211.81C583.988 205.91 602.988 201.51 616.688 197.01C633.488 188.61 652.888 187.31 669.888 178.71C685.388 169.21 687.388 188.61 696.688 195.41C699.288 197.01 701.888 196.11 704.688 195.71C711.488 195.51 718.988 193.11 725.688 193.61C737.288 195.91 735.888 217.61 734.688 226.41C729.288 241.31 721.288 248.61 729.088 265.41C734.888 280.51 750.988 289.11 757.788 303.51C760.188 306.31 762.588 302.31 762.488 299.81C761.388 288.91 755.588 277.31 766.088 269.01C782.788 260.61 785.188 264.21 786.488 242.51C785.988 231.81 786.688 222.01 787.988 211.51C787.988 204.21 783.388 198.01 778.888 192.71C774.088 186.31 770.588 179.51 765.488 173.21C760.988 166.81 755.888 162.11 751.188 156.31C741.288 142.61 746.388 124.71 743.188 108.91C742.388 99.2099 749.788 92.0099 752.588 83.1099C755.788 71.3099 769.188 77.5099 777.888 74.7099C781.688 73.5099 784.788 71.2099 788.888 71.1099C793.788 71.1099 798.388 74.6099 802.688 76.8099C812.488 83.4099 823.288 78.2099 833.588 77.1099C844.388 78.7099 856.888 83.9099 865.688 74.2099C869.688 70.5099 872.788 65.2099 878.288 63.8099C896.188 62.9099 890.188 72.2099 911.588 61.0099C918.488 58.8099 926.088 58.7099 932.488 55.3099C939.088 51.6099 946.188 48.9099 953.188 45.8099C961.088 41.9099 967.888 34.7099 976.188 32.4099H976.288L976.788 32.0099Z" fill="#C6E0F1"/>
<g filter="url(#filter0_dd_1497_16968)">
<ellipse cx="627.553" cy="647.849" rx="7.24288" ry="4.8201" fill="white" fill-opacity="0.6"/>
<path d="M627.554 640.637C630.669 640.637 633.466 641.478 635.471 642.812C637.478 644.148 638.642 645.939 638.642 647.849C638.642 649.759 637.479 651.55 635.471 652.886C633.466 654.22 630.669 655.061 627.554 655.062C624.438 655.062 621.64 654.22 619.636 652.886C617.628 651.55 616.465 649.759 616.465 647.849C616.465 645.939 617.628 644.148 619.636 642.812C621.64 641.478 624.438 640.637 627.554 640.637Z" stroke="white" stroke-opacity="0.6"/>
<path d="M638.756 635.019C637.121 638.182 631.994 642.743 627.507 647C622.954 642.937 617.893 637.224 616.835 635.786C615.778 634.348 613.305 628.061 616.835 623.134C619.692 619.004 622.697 617.019 627.507 617C632.35 616.981 635.154 618.924 638.275 623.134C640.606 628.246 640.39 631.856 638.756 635.019Z" fill="#FFC936" stroke="black"/>
<path d="M627.725 621.529C623.674 621.529 620.412 624.726 620.412 628.642C620.412 632.557 623.674 635.753 627.725 635.753C631.775 635.753 635.037 632.557 635.037 628.642C635.037 624.726 631.776 621.529 627.725 621.529Z" fill="#F5F5F5" stroke="black"/>
</g>
<g filter="url(#filter1_dd_1497_16968)">
<ellipse cx="627.553" cy="671.849" rx="7.24288" ry="4.8201" fill="white" fill-opacity="0.6"/>
<path d="M627.554 664.637C630.669 664.637 633.466 665.478 635.471 666.812C637.478 668.148 638.642 669.939 638.642 671.849C638.642 673.759 637.479 675.55 635.471 676.886C633.466 678.22 630.669 679.061 627.554 679.062C624.438 679.062 621.64 678.22 619.636 676.886C617.628 675.55 616.465 673.759 616.465 671.849C616.465 669.939 617.628 668.148 619.636 666.812C621.64 665.478 624.438 664.637 627.554 664.637Z" stroke="white" stroke-opacity="0.6"/>
<path d="M638.756 659.019C637.121 662.182 631.994 666.743 627.507 671C622.954 666.937 617.893 661.224 616.835 659.786C615.778 658.348 613.305 652.061 616.835 647.134C619.692 643.004 622.697 641.019 627.507 641C632.35 640.981 635.154 642.924 638.275 647.134C640.606 652.246 640.39 655.856 638.756 659.019Z" fill="#FFC936" stroke="black"/>
<path d="M627.725 645.529C623.674 645.529 620.412 648.726 620.412 652.642C620.412 656.557 623.674 659.753 627.725 659.753C631.775 659.753 635.037 656.557 635.037 652.642C635.037 648.726 631.776 645.529 627.725 645.529Z" fill="#F5F5F5" stroke="black"/>
</g>
<g filter="url(#filter2_d_1497_16968)">
<rect x="459" y="611.911" width="144" height="40" rx="20" fill="#004EA2" shape-rendering="crispEdges"/>
<path d="M475.848 634.939H490.184V636.619H475.848V634.939ZM479.32 631.947V632.715H486.664V631.947H479.32ZM479.32 629.915V630.667H486.664V629.915H479.32ZM477.512 628.555H488.568V634.075H477.512V628.555ZM481.896 633.803H483.768C483.704 634.496 483.597 635.126 483.448 635.691C483.309 636.256 483.085 636.763 482.776 637.211C482.467 637.659 482.04 638.054 481.496 638.395C480.963 638.726 480.275 639.014 479.432 639.259C478.589 639.504 477.555 639.707 476.328 639.867C476.296 639.696 476.232 639.504 476.136 639.291C476.04 639.088 475.928 638.886 475.8 638.683C475.683 638.48 475.571 638.31 475.464 638.171C476.573 638.075 477.496 637.947 478.232 637.787C478.979 637.616 479.581 637.414 480.04 637.179C480.499 636.944 480.851 636.667 481.096 636.347C481.352 636.027 481.533 635.659 481.64 635.243C481.757 634.816 481.843 634.336 481.896 633.803ZM479.144 624.811H481.016V628.315H479.144V624.811ZM485.016 624.827H486.888V628.315H485.016V624.827ZM475.896 625.659H482.76V627.339H475.896V625.659ZM483.288 625.659H490.104V627.339H483.288V625.659ZM483.144 637.675L484.072 636.379C484.552 636.507 485.085 636.656 485.672 636.827C486.259 636.987 486.845 637.158 487.432 637.339C488.029 637.51 488.595 637.686 489.128 637.867C489.661 638.048 490.115 638.208 490.488 638.347L489.528 639.819C489.165 639.67 488.728 639.499 488.216 639.307C487.704 639.126 487.155 638.934 486.568 638.731C485.981 638.539 485.389 638.352 484.792 638.171C484.205 637.979 483.656 637.814 483.144 637.675ZM492.904 626.347H505.112V628.315H492.904V626.347ZM494.008 631.499H503.832V633.451H494.008V631.499ZM492.008 636.923H505.96V638.875H492.008V636.923ZM510.456 629.595H514.632V631.467H510.456V629.595ZM515.544 624.811H517.544V636.651C517.544 637.11 517.581 637.403 517.656 637.531C517.731 637.648 517.923 637.707 518.232 637.707C518.296 637.707 518.408 637.707 518.568 637.707C518.728 637.707 518.899 637.707 519.08 637.707C519.272 637.707 519.448 637.707 519.608 637.707C519.779 637.707 519.901 637.707 519.976 637.707C520.179 637.707 520.328 637.632 520.424 637.483C520.531 637.323 520.605 637.046 520.648 636.651C520.701 636.246 520.744 635.68 520.776 634.955C521.011 635.126 521.299 635.296 521.64 635.467C521.992 635.627 522.307 635.734 522.584 635.787C522.52 636.694 522.403 637.424 522.232 637.979C522.072 638.534 521.827 638.934 521.496 639.179C521.176 639.435 520.728 639.563 520.152 639.563C520.067 639.563 519.949 639.563 519.8 639.563C519.661 639.563 519.496 639.563 519.304 639.563C519.123 639.563 518.941 639.563 518.76 639.563C518.579 639.563 518.413 639.563 518.264 639.563C518.115 639.563 518.008 639.563 517.944 639.563C517.325 639.563 516.84 639.472 516.488 639.291C516.147 639.12 515.901 638.827 515.752 638.411C515.613 637.984 515.544 637.387 515.544 636.619V624.811ZM509.128 639.547C509.085 639.398 509.011 639.216 508.904 639.003C508.808 638.8 508.696 638.603 508.568 638.411C508.451 638.23 508.344 638.08 508.248 637.963C508.429 637.846 508.605 637.67 508.776 637.435C508.957 637.19 509.048 636.875 509.048 636.491V624.843H511.064V637.675C511.064 637.675 510.995 637.718 510.856 637.803C510.728 637.878 510.568 637.984 510.376 638.123C510.195 638.262 510.008 638.411 509.816 638.571C509.624 638.731 509.459 638.896 509.32 639.067C509.192 639.248 509.128 639.408 509.128 639.547ZM509.128 639.547L508.968 637.819L509.848 637.163L514.712 636.107C514.712 636.384 514.728 636.699 514.76 637.051C514.803 637.403 514.84 637.686 514.872 637.899C513.752 638.176 512.84 638.406 512.136 638.587C511.443 638.768 510.899 638.912 510.504 639.019C510.109 639.136 509.811 639.232 509.608 639.307C509.416 639.392 509.256 639.472 509.128 639.547ZM517.304 629.595H521.48V631.467H517.304V629.595ZM527.576 630.891V632.619H534.44V630.891H527.576ZM525.72 629.195H536.424V634.331H525.72V629.195ZM524.04 626.187H538.024V627.915H524.04V626.187ZM529.96 624.795H531.912V630.187H529.96V624.795ZM531.784 633.355H533.752V637.243C533.752 637.52 533.789 637.691 533.864 637.755C533.949 637.819 534.131 637.851 534.408 637.851C534.472 637.851 534.573 637.851 534.712 637.851C534.851 637.851 535 637.851 535.16 637.851C535.331 637.851 535.491 637.851 535.64 637.851C535.8 637.851 535.917 637.851 535.992 637.851C536.173 637.851 536.312 637.803 536.408 637.707C536.504 637.6 536.568 637.392 536.6 637.083C536.643 636.763 536.675 636.294 536.696 635.675C536.835 635.771 537.011 635.872 537.224 635.979C537.437 636.075 537.656 636.166 537.88 636.251C538.104 636.326 538.301 636.384 538.472 636.427C538.408 637.28 538.296 637.942 538.136 638.411C537.976 638.88 537.741 639.206 537.432 639.387C537.123 639.568 536.701 639.659 536.168 639.659C536.093 639.659 535.987 639.659 535.848 639.659C535.72 639.659 535.571 639.659 535.4 639.659C535.229 639.659 535.059 639.659 534.888 639.659C534.728 639.659 534.579 639.659 534.44 639.659C534.312 639.659 534.205 639.659 534.12 639.659C533.501 639.659 533.021 639.584 532.68 639.435C532.339 639.296 532.104 639.051 531.976 638.699C531.848 638.347 531.784 637.872 531.784 637.275V633.355ZM527.896 634.027H529.976C529.901 634.742 529.773 635.403 529.592 636.011C529.421 636.608 529.144 637.152 528.76 637.643C528.387 638.134 527.859 638.56 527.176 638.923C526.504 639.296 525.629 639.616 524.552 639.883C524.488 639.702 524.392 639.499 524.264 639.275C524.147 639.051 524.013 638.832 523.864 638.619C523.715 638.416 523.571 638.24 523.432 638.091C524.371 637.92 525.123 637.712 525.688 637.467C526.253 637.211 526.685 636.918 526.984 636.587C527.283 636.246 527.496 635.867 527.624 635.451C527.752 635.024 527.843 634.55 527.896 634.027ZM539.912 630.459H554.104V632.283H539.912V630.459ZM545.112 628.251L547.128 628.699C546.712 630.128 546.2 631.488 545.592 632.779C544.995 634.07 544.323 635.254 543.576 636.331C542.829 637.398 542.008 638.32 541.112 639.099C541.005 638.971 540.851 638.811 540.648 638.619C540.456 638.427 540.253 638.24 540.04 638.059C539.827 637.878 539.64 637.728 539.48 637.611C540.365 636.928 541.165 636.107 541.88 635.147C542.595 634.187 543.219 633.12 543.752 631.947C544.296 630.774 544.749 629.542 545.112 628.251ZM549.096 635.083L550.712 634.187C551.085 634.656 551.485 635.168 551.912 635.723C552.349 636.278 552.771 636.822 553.176 637.355C553.581 637.888 553.912 638.358 554.168 638.763L552.392 639.835C552.168 639.43 551.869 638.955 551.496 638.411C551.123 637.856 550.723 637.286 550.296 636.699C549.869 636.112 549.469 635.574 549.096 635.083ZM540.024 626.347H553.96V629.675H552.008V628.091H541.896V629.675H540.024V626.347ZM545.72 625.211L547.736 624.667C547.875 624.955 548.024 625.28 548.184 625.643C548.344 625.995 548.472 626.294 548.568 626.539L546.44 627.163C546.376 626.907 546.275 626.592 546.136 626.219C545.997 625.846 545.859 625.51 545.72 625.211ZM544.024 639.611C543.981 639.472 543.923 639.291 543.848 639.067C543.784 638.854 543.709 638.635 543.624 638.411C543.539 638.176 543.459 637.979 543.384 637.819C543.587 637.766 543.773 637.664 543.944 637.515C544.125 637.355 544.328 637.142 544.552 636.875C544.68 636.736 544.845 636.528 545.048 636.251C545.261 635.963 545.496 635.627 545.752 635.243C546.019 634.848 546.285 634.416 546.552 633.947C546.829 633.478 547.085 633.003 547.32 632.523L549.32 633.147C548.755 634.192 548.125 635.19 547.432 636.139C546.739 637.088 546.072 637.91 545.432 638.603V638.635C545.432 638.635 545.363 638.667 545.224 638.731C545.085 638.806 544.92 638.891 544.728 638.987C544.536 639.094 544.371 639.2 544.232 639.307C544.093 639.414 544.024 639.515 544.024 639.611ZM544.024 639.611L543.976 638.187L545.016 637.579L551.656 637.179C551.688 637.424 551.736 637.707 551.8 638.027C551.875 638.336 551.939 638.592 551.992 638.795C550.701 638.902 549.613 638.987 548.728 639.051C547.853 639.115 547.133 639.174 546.568 639.227C546.013 639.28 545.571 639.323 545.24 639.355C544.909 639.398 544.653 639.435 544.472 639.467C544.291 639.51 544.141 639.558 544.024 639.611ZM556.248 625.851H569.88V627.723H556.248V625.851ZM563.4 631.259H569.064V633.131H563.4V631.259ZM555.704 637.371H570.328V639.243H555.704V637.371ZM562.472 626.603H564.504V638.283H562.472V626.603ZM557.688 630.219H559.688V638.363H557.688V630.219ZM582.2 630.283H586.376V631.851H582.2V630.283ZM574.568 631.403H579.912V632.795H575.864V639.627H574.568V631.403ZM576.808 628.171H578.408V632.299H576.808V628.171ZM579.4 631.403H580.776V638.043C580.776 638.374 580.739 638.64 580.664 638.843C580.589 639.056 580.44 639.227 580.216 639.355C579.992 639.462 579.715 639.526 579.384 639.547C579.053 639.579 578.653 639.59 578.184 639.579C578.163 639.387 578.109 639.163 578.024 638.907C577.949 638.651 577.869 638.427 577.784 638.235C578.083 638.246 578.36 638.251 578.616 638.251C578.883 638.251 579.064 638.246 579.16 638.235C579.32 638.235 579.4 638.16 579.4 638.011V631.403ZM576.792 633.531H578.824V637.307H576.792V636.123H578.008V634.715H576.792V633.531ZM576.392 633.531H577.192V637.803H576.392V633.531ZM581.96 628.123L583.608 628.427C583.395 629.59 583.096 630.71 582.712 631.787C582.339 632.864 581.891 633.771 581.368 634.507C581.283 634.4 581.165 634.278 581.016 634.139C580.867 633.99 580.707 633.846 580.536 633.707C580.376 633.558 580.232 633.44 580.104 633.355C580.584 632.736 580.973 631.963 581.272 631.035C581.581 630.096 581.811 629.126 581.96 628.123ZM574.248 629.083L575.416 628.539C575.661 628.848 575.891 629.195 576.104 629.579C576.317 629.963 576.467 630.299 576.552 630.587L575.304 631.195C575.229 630.907 575.091 630.566 574.888 630.171C574.696 629.766 574.483 629.403 574.248 629.083ZM582.664 631.531C582.867 632.544 583.139 633.51 583.48 634.427C583.821 635.334 584.253 636.139 584.776 636.843C585.299 637.536 585.923 638.091 586.648 638.507C586.467 638.656 586.264 638.864 586.04 639.131C585.827 639.398 585.656 639.643 585.528 639.867C584.76 639.355 584.104 638.699 583.56 637.899C583.027 637.088 582.584 636.166 582.232 635.131C581.891 634.086 581.619 632.966 581.416 631.771L582.664 631.531ZM579.496 628.523L580.952 628.987C580.717 629.382 580.477 629.782 580.232 630.187C579.987 630.582 579.757 630.923 579.544 631.211L578.36 630.779C578.488 630.576 578.621 630.347 578.76 630.091C578.909 629.824 579.048 629.552 579.176 629.275C579.315 628.998 579.421 628.747 579.496 628.523ZM573.624 626.235H586.328V627.835H573.624V626.235ZM572.472 626.235H574.216V631.083C574.216 631.712 574.195 632.406 574.152 633.163C574.12 633.92 574.056 634.699 573.96 635.499C573.864 636.288 573.72 637.056 573.528 637.803C573.347 638.539 573.112 639.211 572.824 639.819C572.728 639.702 572.589 639.568 572.408 639.419C572.227 639.28 572.04 639.142 571.848 639.003C571.667 638.875 571.507 638.779 571.368 638.715C571.635 638.171 571.837 637.579 571.976 636.939C572.125 636.288 572.232 635.622 572.296 634.939C572.371 634.256 572.419 633.59 572.44 632.939C572.461 632.278 572.472 631.659 572.472 631.083V626.235ZM584.264 631.083L585.912 631.259C585.784 632.134 585.603 632.992 585.368 633.835C585.144 634.678 584.851 635.483 584.488 636.251C584.125 637.019 583.672 637.718 583.128 638.347C582.595 638.976 581.944 639.51 581.176 639.947C581.069 639.776 580.92 639.563 580.728 639.307C580.547 639.051 580.381 638.854 580.232 638.715C580.925 638.331 581.507 637.862 581.976 637.307C582.456 636.752 582.851 636.139 583.16 635.467C583.469 634.784 583.709 634.07 583.88 633.323C584.061 632.576 584.189 631.83 584.264 631.083ZM578.328 625.179L580.04 624.539C580.211 624.763 580.371 625.019 580.52 625.307C580.68 625.595 580.797 625.846 580.872 626.059L579.064 626.795C579.011 626.582 578.915 626.32 578.776 626.011C578.637 625.691 578.488 625.414 578.328 625.179Z" fill="#FEFBF9"/>
</g>
<g filter="url(#filter3_d_1497_16968)">
<rect x="647" y="637" width="182" height="40" rx="20" fill="#004EA2" shape-rendering="crispEdges"/>
<path d="M663.996 660.028H678.332V661.708H663.996V660.028ZM667.468 657.036V657.804H674.812V657.036H667.468ZM667.468 655.004V655.756H674.812V655.004H667.468ZM665.66 653.644H676.716V659.164H665.66V653.644ZM670.044 658.892H671.916C671.852 659.585 671.746 660.215 671.596 660.78C671.458 661.345 671.234 661.852 670.924 662.3C670.615 662.748 670.188 663.143 669.644 663.484C669.111 663.815 668.423 664.103 667.58 664.348C666.738 664.593 665.703 664.796 664.476 664.956C664.444 664.785 664.38 664.593 664.284 664.38C664.188 664.177 664.076 663.975 663.948 663.772C663.831 663.569 663.719 663.399 663.612 663.26C664.722 663.164 665.644 663.036 666.38 662.876C667.127 662.705 667.73 662.503 668.188 662.268C668.647 662.033 668.999 661.756 669.244 661.436C669.5 661.116 669.682 660.748 669.788 660.332C669.906 659.905 669.991 659.425 670.044 658.892ZM667.292 649.9H669.164V653.404H667.292V649.9ZM673.164 649.916H675.036V653.404H673.164V649.916ZM664.044 650.748H670.908V652.428H664.044V650.748ZM671.436 650.748H678.252V652.428H671.436V650.748ZM671.292 662.764L672.22 661.468C672.7 661.596 673.234 661.745 673.82 661.916C674.407 662.076 674.994 662.247 675.58 662.428C676.178 662.599 676.743 662.775 677.276 662.956C677.81 663.137 678.263 663.297 678.636 663.436L677.676 664.908C677.314 664.759 676.876 664.588 676.364 664.396C675.852 664.215 675.303 664.023 674.716 663.82C674.13 663.628 673.538 663.441 672.94 663.26C672.354 663.068 671.804 662.903 671.292 662.764ZM681.052 651.436H693.26V653.404H681.052V651.436ZM682.156 656.588H691.98V658.54H682.156V656.588ZM680.156 662.012H694.108V663.964H680.156V662.012ZM698.604 654.684H702.78V656.556H698.604V654.684ZM703.692 649.9H705.692V661.74C705.692 662.199 705.73 662.492 705.804 662.62C705.879 662.737 706.071 662.796 706.38 662.796C706.444 662.796 706.556 662.796 706.716 662.796C706.876 662.796 707.047 662.796 707.228 662.796C707.42 662.796 707.596 662.796 707.756 662.796C707.927 662.796 708.05 662.796 708.124 662.796C708.327 662.796 708.476 662.721 708.572 662.572C708.679 662.412 708.754 662.135 708.796 661.74C708.85 661.335 708.892 660.769 708.924 660.044C709.159 660.215 709.447 660.385 709.788 660.556C710.14 660.716 710.455 660.823 710.732 660.876C710.668 661.783 710.551 662.513 710.38 663.068C710.22 663.623 709.975 664.023 709.644 664.268C709.324 664.524 708.876 664.652 708.3 664.652C708.215 664.652 708.098 664.652 707.948 664.652C707.81 664.652 707.644 664.652 707.452 664.652C707.271 664.652 707.09 664.652 706.908 664.652C706.727 664.652 706.562 664.652 706.412 664.652C706.263 664.652 706.156 664.652 706.092 664.652C705.474 664.652 704.988 664.561 704.636 664.38C704.295 664.209 704.05 663.916 703.9 663.5C703.762 663.073 703.692 662.476 703.692 661.708V649.9ZM697.276 664.636C697.234 664.487 697.159 664.305 697.052 664.092C696.956 663.889 696.844 663.692 696.716 663.5C696.599 663.319 696.492 663.169 696.396 663.052C696.578 662.935 696.754 662.759 696.924 662.524C697.106 662.279 697.196 661.964 697.196 661.58V649.932H699.212V662.764C699.212 662.764 699.143 662.807 699.004 662.892C698.876 662.967 698.716 663.073 698.524 663.212C698.343 663.351 698.156 663.5 697.964 663.66C697.772 663.82 697.607 663.985 697.468 664.156C697.34 664.337 697.276 664.497 697.276 664.636ZM697.276 664.636L697.116 662.908L697.996 662.252L702.86 661.196C702.86 661.473 702.876 661.788 702.908 662.14C702.951 662.492 702.988 662.775 703.02 662.988C701.9 663.265 700.988 663.495 700.284 663.676C699.591 663.857 699.047 664.001 698.652 664.108C698.258 664.225 697.959 664.321 697.756 664.396C697.564 664.481 697.404 664.561 697.276 664.636ZM705.452 654.684H709.628V656.556H705.452V654.684ZM715.724 655.98V657.708H722.588V655.98H715.724ZM713.868 654.284H724.572V659.42H713.868V654.284ZM712.188 651.276H726.172V653.004H712.188V651.276ZM718.108 649.884H720.06V655.276H718.108V649.884ZM719.932 658.444H721.9V662.332C721.9 662.609 721.938 662.78 722.012 662.844C722.098 662.908 722.279 662.94 722.556 662.94C722.62 662.94 722.722 662.94 722.86 662.94C722.999 662.94 723.148 662.94 723.308 662.94C723.479 662.94 723.639 662.94 723.788 662.94C723.948 662.94 724.066 662.94 724.14 662.94C724.322 662.94 724.46 662.892 724.556 662.796C724.652 662.689 724.716 662.481 724.748 662.172C724.791 661.852 724.823 661.383 724.844 660.764C724.983 660.86 725.159 660.961 725.372 661.068C725.586 661.164 725.804 661.255 726.028 661.34C726.252 661.415 726.45 661.473 726.62 661.516C726.556 662.369 726.444 663.031 726.284 663.5C726.124 663.969 725.89 664.295 725.58 664.476C725.271 664.657 724.85 664.748 724.316 664.748C724.242 664.748 724.135 664.748 723.996 664.748C723.868 664.748 723.719 664.748 723.548 664.748C723.378 664.748 723.207 664.748 723.036 664.748C722.876 664.748 722.727 664.748 722.588 664.748C722.46 664.748 722.354 664.748 722.268 664.748C721.65 664.748 721.17 664.673 720.828 664.524C720.487 664.385 720.252 664.14 720.124 663.788C719.996 663.436 719.932 662.961 719.932 662.364V658.444ZM716.044 659.116H718.124C718.05 659.831 717.922 660.492 717.74 661.1C717.57 661.697 717.292 662.241 716.908 662.732C716.535 663.223 716.007 663.649 715.324 664.012C714.652 664.385 713.778 664.705 712.7 664.972C712.636 664.791 712.54 664.588 712.412 664.364C712.295 664.14 712.162 663.921 712.012 663.708C711.863 663.505 711.719 663.329 711.58 663.18C712.519 663.009 713.271 662.801 713.836 662.556C714.402 662.3 714.834 662.007 715.132 661.676C715.431 661.335 715.644 660.956 715.772 660.54C715.9 660.113 715.991 659.639 716.044 659.116ZM732.14 663.724C731.351 663.724 730.578 663.575 729.82 663.276C729.063 662.977 728.396 662.551 727.82 661.996L729.18 660.364C729.596 660.759 730.071 661.079 730.604 661.324C731.148 661.559 731.676 661.676 732.188 661.676C732.807 661.676 733.276 661.553 733.596 661.308C733.916 661.063 734.076 660.732 734.076 660.316C734.076 660.017 733.996 659.783 733.836 659.612C733.687 659.431 733.479 659.271 733.212 659.132C732.946 658.993 732.636 658.855 732.284 658.716L730.716 658.028C730.322 657.868 729.938 657.655 729.564 657.388C729.202 657.111 728.898 656.764 728.652 656.348C728.418 655.932 728.3 655.436 728.3 654.86C728.3 654.209 728.476 653.628 728.828 653.116C729.18 652.604 729.666 652.199 730.284 651.9C730.903 651.591 731.607 651.436 732.396 651.436C733.1 651.436 733.778 651.569 734.428 651.836C735.079 652.103 735.644 652.481 736.124 652.972L734.924 654.444C734.551 654.135 734.162 653.895 733.756 653.724C733.351 653.553 732.898 653.468 732.396 653.468C731.884 653.468 731.474 653.58 731.164 653.804C730.866 654.017 730.716 654.321 730.716 654.716C730.716 654.993 730.802 655.223 730.972 655.404C731.143 655.585 731.367 655.745 731.644 655.884C731.922 656.012 732.226 656.145 732.556 656.284L734.108 656.908C734.588 657.1 735.004 657.34 735.356 657.628C735.719 657.916 735.996 658.263 736.188 658.668C736.391 659.073 736.492 659.564 736.492 660.14C736.492 660.78 736.316 661.372 735.964 661.916C735.623 662.46 735.127 662.897 734.476 663.228C733.836 663.559 733.058 663.724 732.14 663.724ZM738.397 663.5V650.732H740.749V653.948L740.637 655.628C740.989 655.287 741.394 654.983 741.853 654.716C742.311 654.449 742.845 654.316 743.453 654.316C744.423 654.316 745.127 654.636 745.565 655.276C746.002 655.905 746.221 656.785 746.221 657.916V663.5H743.869V658.204C743.869 657.511 743.767 657.025 743.565 656.748C743.373 656.471 743.053 656.332 742.605 656.332C742.242 656.332 741.922 656.417 741.645 656.588C741.378 656.759 741.079 657.009 740.749 657.34V663.5H738.397ZM748.631 663.5V654.54H750.983V663.5H748.631ZM749.815 653.084C749.399 653.084 749.069 652.972 748.823 652.748C748.578 652.513 748.455 652.199 748.455 651.804C748.455 651.42 748.578 651.111 748.823 650.876C749.069 650.641 749.399 650.524 749.815 650.524C750.21 650.524 750.535 650.641 750.791 650.876C751.047 651.111 751.175 651.42 751.175 651.804C751.175 652.199 751.047 652.513 750.791 652.748C750.535 652.972 750.21 653.084 749.815 653.084ZM753.491 663.5V654.54H755.411L755.587 655.74H755.635C756.008 655.356 756.413 655.025 756.851 654.748C757.288 654.46 757.8 654.316 758.387 654.316C759.027 654.316 759.539 654.455 759.923 654.732C760.317 654.999 760.621 655.383 760.835 655.884C761.261 655.447 761.699 655.079 762.147 654.78C762.605 654.471 763.123 654.316 763.699 654.316C764.659 654.316 765.357 654.636 765.795 655.276C766.243 655.905 766.467 656.785 766.467 657.916V663.5H764.131V658.204C764.131 657.511 764.029 657.025 763.827 656.748C763.624 656.471 763.309 656.332 762.883 656.332C762.627 656.332 762.355 656.417 762.067 656.588C761.789 656.748 761.485 656.999 761.155 657.34V663.5H758.803V658.204C758.803 657.511 758.701 657.025 758.499 656.748C758.296 656.471 757.981 656.332 757.555 656.332C757.309 656.332 757.037 656.417 756.739 656.588C756.451 656.748 756.152 656.999 755.843 657.34V663.5H753.491ZM771.104 663.724C770.582 663.724 770.118 663.612 769.712 663.388C769.318 663.153 769.008 662.833 768.784 662.428C768.571 662.023 768.464 661.564 768.464 661.052C768.464 660.103 768.875 659.367 769.696 658.844C770.518 658.311 771.824 657.948 773.616 657.756C773.606 657.457 773.552 657.196 773.456 656.972C773.36 656.737 773.2 656.551 772.976 656.412C772.763 656.273 772.47 656.204 772.096 656.204C771.68 656.204 771.27 656.284 770.864 656.444C770.459 656.604 770.048 656.812 769.632 657.068L768.8 655.5C769.152 655.276 769.526 655.079 769.92 654.908C770.315 654.737 770.731 654.599 771.168 654.492C771.606 654.375 772.059 654.316 772.528 654.316C773.286 654.316 773.92 654.465 774.432 654.764C774.944 655.063 775.328 655.505 775.584 656.092C775.84 656.679 775.968 657.404 775.968 658.268V663.5H774.048L773.888 662.54H773.808C773.424 662.881 773.008 663.164 772.56 663.388C772.112 663.612 771.627 663.724 771.104 663.724ZM771.888 661.884C772.219 661.884 772.518 661.809 772.784 661.66C773.062 661.5 773.339 661.281 773.616 661.004V659.212C772.891 659.297 772.315 659.42 771.888 659.58C771.462 659.74 771.158 659.932 770.976 660.156C770.795 660.369 770.704 660.609 770.704 660.876C770.704 661.228 770.811 661.484 771.024 661.644C771.248 661.804 771.536 661.884 771.888 661.884ZM781.518 663.724C780.771 663.724 780.12 663.537 779.566 663.164C779.022 662.791 778.6 662.252 778.302 661.548C778.003 660.844 777.854 660.001 777.854 659.02C777.854 658.049 778.03 657.217 778.382 656.524C778.744 655.82 779.214 655.276 779.79 654.892C780.366 654.508 780.974 654.316 781.614 654.316C782.115 654.316 782.536 654.407 782.878 654.588C783.23 654.759 783.566 654.993 783.886 655.292L783.806 653.884V650.732H786.158V663.5H784.238L784.062 662.572H783.998C783.667 662.892 783.288 663.164 782.862 663.388C782.435 663.612 781.987 663.724 781.518 663.724ZM782.126 661.788C782.446 661.788 782.739 661.719 783.006 661.58C783.283 661.431 783.55 661.191 783.806 660.86V656.924C783.539 656.679 783.262 656.508 782.974 656.412C782.696 656.305 782.414 656.252 782.126 656.252C781.795 656.252 781.486 656.359 781.198 656.572C780.92 656.775 780.696 657.079 780.526 657.484C780.355 657.889 780.27 658.391 780.27 658.988C780.27 659.607 780.339 660.124 780.478 660.54C780.627 660.956 780.84 661.271 781.118 661.484C781.395 661.687 781.731 661.788 782.126 661.788ZM790.854 663.724C790.332 663.724 789.868 663.612 789.462 663.388C789.068 663.153 788.758 662.833 788.534 662.428C788.321 662.023 788.214 661.564 788.214 661.052C788.214 660.103 788.625 659.367 789.446 658.844C790.268 658.311 791.574 657.948 793.366 657.756C793.356 657.457 793.302 657.196 793.206 656.972C793.11 656.737 792.95 656.551 792.726 656.412C792.513 656.273 792.22 656.204 791.846 656.204C791.43 656.204 791.02 656.284 790.614 656.444C790.209 656.604 789.798 656.812 789.382 657.068L788.55 655.5C788.902 655.276 789.276 655.079 789.67 654.908C790.065 654.737 790.481 654.599 790.918 654.492C791.356 654.375 791.809 654.316 792.278 654.316C793.036 654.316 793.67 654.465 794.182 654.764C794.694 655.063 795.078 655.505 795.334 656.092C795.59 656.679 795.718 657.404 795.718 658.268V663.5H793.798L793.638 662.54H793.558C793.174 662.881 792.758 663.164 792.31 663.388C791.862 663.612 791.377 663.724 790.854 663.724ZM791.638 661.884C791.969 661.884 792.268 661.809 792.534 661.66C792.812 661.5 793.089 661.281 793.366 661.004V659.212C792.641 659.297 792.065 659.42 791.638 659.58C791.212 659.74 790.908 659.932 790.726 660.156C790.545 660.369 790.454 660.609 790.454 660.876C790.454 661.228 790.561 661.484 790.774 661.644C790.998 661.804 791.286 661.884 791.638 661.884ZM808.052 655.372H812.228V656.94H808.052V655.372ZM800.42 656.492H805.764V657.884H801.716V664.716H800.42V656.492ZM802.66 653.26H804.26V657.388H802.66V653.26ZM805.252 656.492H806.628V663.132C806.628 663.463 806.59 663.729 806.516 663.932C806.441 664.145 806.292 664.316 806.068 664.444C805.844 664.551 805.566 664.615 805.236 664.636C804.905 664.668 804.505 664.679 804.036 664.668C804.014 664.476 803.961 664.252 803.876 663.996C803.801 663.74 803.721 663.516 803.636 663.324C803.934 663.335 804.212 663.34 804.468 663.34C804.734 663.34 804.916 663.335 805.012 663.324C805.172 663.324 805.252 663.249 805.252 663.1V656.492ZM802.644 658.62H804.676V662.396H802.644V661.212H803.86V659.804H802.644V658.62ZM802.244 658.62H803.044V662.892H802.244V658.62ZM807.812 653.212L809.46 653.516C809.246 654.679 808.948 655.799 808.564 656.876C808.19 657.953 807.742 658.86 807.22 659.596C807.134 659.489 807.017 659.367 806.868 659.228C806.718 659.079 806.558 658.935 806.388 658.796C806.228 658.647 806.084 658.529 805.956 658.444C806.436 657.825 806.825 657.052 807.124 656.124C807.433 655.185 807.662 654.215 807.812 653.212ZM800.1 654.172L801.268 653.628C801.513 653.937 801.742 654.284 801.956 654.668C802.169 655.052 802.318 655.388 802.404 655.676L801.156 656.284C801.081 655.996 800.942 655.655 800.74 655.26C800.548 654.855 800.334 654.492 800.1 654.172ZM808.516 656.62C808.718 657.633 808.99 658.599 809.332 659.516C809.673 660.423 810.105 661.228 810.628 661.932C811.15 662.625 811.774 663.18 812.5 663.596C812.318 663.745 812.116 663.953 811.892 664.22C811.678 664.487 811.508 664.732 811.38 664.956C810.612 664.444 809.956 663.788 809.412 662.988C808.878 662.177 808.436 661.255 808.084 660.22C807.742 659.175 807.47 658.055 807.268 656.86L808.516 656.62ZM805.348 653.612L806.804 654.076C806.569 654.471 806.329 654.871 806.084 655.276C805.838 655.671 805.609 656.012 805.396 656.3L804.212 655.868C804.34 655.665 804.473 655.436 804.612 655.18C804.761 654.913 804.9 654.641 805.028 654.364C805.166 654.087 805.273 653.836 805.348 653.612ZM799.476 651.324H812.18V652.924H799.476V651.324ZM798.324 651.324H800.068V656.172C800.068 656.801 800.046 657.495 800.004 658.252C799.972 659.009 799.908 659.788 799.812 660.588C799.716 661.377 799.572 662.145 799.38 662.892C799.198 663.628 798.964 664.3 798.676 664.908C798.58 664.791 798.441 664.657 798.26 664.508C798.078 664.369 797.892 664.231 797.7 664.092C797.518 663.964 797.358 663.868 797.22 663.804C797.486 663.26 797.689 662.668 797.828 662.028C797.977 661.377 798.084 660.711 798.148 660.028C798.222 659.345 798.27 658.679 798.292 658.028C798.313 657.367 798.324 656.748 798.324 656.172V651.324ZM810.116 656.172L811.764 656.348C811.636 657.223 811.454 658.081 811.22 658.924C810.996 659.767 810.702 660.572 810.34 661.34C809.977 662.108 809.524 662.807 808.98 663.436C808.446 664.065 807.796 664.599 807.028 665.036C806.921 664.865 806.772 664.652 806.58 664.396C806.398 664.14 806.233 663.943 806.084 663.804C806.777 663.42 807.358 662.951 807.828 662.396C808.308 661.841 808.702 661.228 809.012 660.556C809.321 659.873 809.561 659.159 809.732 658.412C809.913 657.665 810.041 656.919 810.116 656.172ZM804.18 650.268L805.892 649.628C806.062 649.852 806.222 650.108 806.372 650.396C806.532 650.684 806.649 650.935 806.724 651.148L804.916 651.884C804.862 651.671 804.766 651.409 804.628 651.1C804.489 650.78 804.34 650.503 804.18 650.268Z" fill="#FEFBF9"/>
</g>
<defs>
<filter id="filter0_dd_1497_16968" x="598.504" y="600.5" width="58" height="71.061" filterUnits="userSpaceOnUse" color-interpolation-filters="sRGB">
<feFlood flood-opacity="0" result="BackgroundImageFix"/>
<feColorMatrix in="SourceAlpha" type="matrix" values="0 0 0 0 0 0 0 0 0 0 0 0 0 0 0 0 0 0 127 0" result="hardAlpha"/>
<feOffset/>
<feGaussianBlur stdDeviation="8"/>
<feColorMatrix type="matrix" values="0 0 0 0 0.975962 0 0 0 0 0.830975 0 0 0 0 0.00938425 0 0 0 1 0"/>
<feBlend mode="normal" in2="BackgroundImageFix" result="effect1_dropShadow_1497_16968"/>
<feColorMatrix in="SourceAlpha" type="matrix" values="0 0 0 0 0 0 0 0 0 0 0 0 0 0 0 0 0 0 127 0" result="hardAlpha"/>
<feOffset/>
<feGaussianBlur stdDeviation="4"/>
<feComposite in2="hardAlpha" operator="out"/>
<feColorMatrix type="matrix" values="0 0 0 0 1 0 0 0 0 1 0 0 0 0 1 0 0 0 1 0"/>
<feBlend mode="normal" in2="effect1_dropShadow_1497_16968" result="effect2_dropShadow_1497_16968"/>
<feBlend mode="normal" in="SourceGraphic" in2="effect2_dropShadow_1497_16968" result="shape"/>
</filter>
<filter id="filter1_dd_1497_16968" x="598.504" y="624.5" width="58" height="71.061" filterUnits="userSpaceOnUse" color-interpolation-filters="sRGB">
<feFlood flood-opacity="0" result="BackgroundImageFix"/>
<feColorMatrix in="SourceAlpha" type="matrix" values="0 0 0 0 0 0 0 0 0 0 0 0 0 0 0 0 0 0 127 0" result="hardAlpha"/>
<feOffset/>
<feGaussianBlur stdDeviation="8"/>
<feColorMatrix type="matrix" values="0 0 0 0 0.975962 0 0 0 0 0.830975 0 0 0 0 0.00938425 0 0 0 1 0"/>
<feBlend mode="normal" in2="BackgroundImageFix" result="effect1_dropShadow_1497_16968"/>
<feColorMatrix in="SourceAlpha" type="matrix" values="0 0 0 0 0 0 0 0 0 0 0 0 0 0 0 0 0 0 127 0" result="hardAlpha"/>
<feOffset/>
<feGaussianBlur stdDeviation="4"/>
<feComposite in2="hardAlpha" operator="out"/>
<feColorMatrix type="matrix" values="0 0 0 0 1 0 0 0 0 1 0 0 0 0 1 0 0 0 1 0"/>
<feBlend mode="normal" in2="effect1_dropShadow_1497_16968" result="effect2_dropShadow_1497_16968"/>
<feBlend mode="normal" in="SourceGraphic" in2="effect2_dropShadow_1497_16968" result="shape"/>
</filter>
<filter id="filter2_d_1497_16968" x="449" y="605.911" width="164" height="60" filterUnits="userSpaceOnUse" color-interpolation-filters="sRGB">
<feFlood flood-opacity="0" result="BackgroundImageFix"/>
<feColorMatrix in="SourceAlpha" type="matrix" values="0 0 0 0 0 0 0 0 0 0 0 0 0 0 0 0 0 0 127 0" result="hardAlpha"/>
<feOffset dy="4"/>
<feGaussianBlur stdDeviation="5"/>
<feComposite in2="hardAlpha" operator="out"/>
<feColorMatrix type="matrix" values="0 0 0 0 0 0 0 0 0 0 0 0 0 0 0 0 0 0 0.2 0"/>
<feBlend mode="normal" in2="BackgroundImageFix" result="effect1_dropShadow_1497_16968"/>
<feBlend mode="normal" in="SourceGraphic" in2="effect1_dropShadow_1497_16968" result="shape"/>
</filter>
<filter id="filter3_d_1497_16968" x="637" y="631" width="202" height="60" filterUnits="userSpaceOnUse" color-interpolation-filters="sRGB">
<feFlood flood-opacity="0" result="BackgroundImageFix"/>
<feColorMatrix in="SourceAlpha" type="matrix" values="0 0 0 0 0 0 0 0 0 0 0 0 0 0 0 0 0 0 127 0" result="hardAlpha"/>
<feOffset dy="4"/>
<feGaussianBlur stdDeviation="5"/>
<feComposite in2="hardAlpha" operator="out"/>
<feColorMatrix type="matrix" values="0 0 0 0 0 0 0 0 0 0 0 0 0 0 0 0 0 0 0.2 0"/>
<feBlend mode="normal" in2="BackgroundImageFix" result="effect1_dropShadow_1497_16968"/>
<feBlend mode="normal" in="SourceGraphic" in2="effect1_dropShadow_1497_16968" result="shape"/>
</filter>
</defs>
</svg>
