<svg width="1531" height="806" viewBox="0 0 1531 806" fill="none" xmlns="http://www.w3.org/2000/svg">
<g clip-path="url(#clip0_1497_16947)">
<path fill-rule="evenodd" clip-rule="evenodd" d="M699.1 6.24665C706.9 4.54665 715.4 11.9467 719 18.8467C722.4 25.0467 722.3 33.5467 726.7 38.9467C730.2 42.5467 735.7 41.0467 739.1 45.1467C742.4 49.0467 743.2 55.3467 743.7 60.5467C744.4 77.8466 746.5 103.347 738 118.747C726.6 132.047 708.5 142.047 703.9 160.247C699.7 172.047 705.7 184.347 703.5 196.347C704.1 202.547 715.3 195.647 718.8 194.847C726.7 192.147 735.9 190.047 744.3 191.547C748.3 192.847 746.9 197.447 747.2 200.747C746.9 206.747 749.5 212.247 751 218.447C752.2 226.447 757.1 232.547 765.4 233.947C772.9 235.747 779.1 238.847 775.1 247.747C772.7 255.247 767.3 265.547 770.2 273.647C771.7 276.647 776.1 277.447 779.5 277.947C804.7 278.747 792.9 298.947 815.7 302.747C823.7 305.747 842.5 289.747 843.1 298.047C841.9 305.447 833.3 310.147 829 316.147C825.8 320.047 825 325.347 821.8 329.147C817.9 333.247 812.7 336.047 809.1 340.547C801.3 350.847 796.5 349.947 785.7 353.247C780.2 356.447 777.6 363.047 771 364.647C766.3 366.347 762.7 369.847 759.4 373.447C744.7 389.547 722.3 373.247 716.7 388.547C709.9 400.147 713.6 424.847 702.4 430.747C700.4 432.147 695.7 433.347 696.4 436.247C704 446.347 704.8 445.047 707.9 459.047C712.5 472.947 725.6 481.847 734.6 492.947C741.4 500.247 742.3 511.047 746.8 519.347C748.8 522.247 752 523.447 754.1 524.747C760.9 528.847 751.5 535.447 749.4 541.147C742.1 560.247 751 558.047 733.3 576.047C724.9 591.847 750.7 613.247 760.8 623.247C770.4 633.447 773.5 650.347 771.9 664.147C771.7 674.547 780 682.447 783.3 691.947C786.2 703.647 795.5 718.047 787.1 729.647C781 738.147 774.2 748.547 768.2 756.347C764.9 760.247 761.5 763.947 759.4 768.747C754.1 782.147 752.2 794.847 740.2 804.747C739.2 805.647 738.6 806.147 738.2 806.247C738.6 803.447 743.9 796.147 744.2 791.647C746.1 783.647 742.7 774.147 746.3 766.947C748.4 762.947 751.5 760.047 752.5 755.347C754.1 749.447 753.6 742.447 754.3 736.247C754.8 730.747 757.5 725.847 757.6 721.047C757.2 703.847 748.5 704.047 752.6 683.547C750.3 671.547 744.8 654.347 736.5 645.247C733.8 642.047 728.5 642.747 726.8 639.647C723.6 631.047 723 619.047 719.2 610.047C711.2 592.347 712.3 572.347 709.1 553.647C706.1 544.647 705.2 533.947 702.9 525.047C699.9 518.247 691.1 517.247 689.5 509.347C687.2 501.047 685 492.247 679.2 485.647C678 484.547 675 481.147 674.6 484.047C674.4 488.847 674.9 494.247 674 499.147C672.7 512.947 666 517.947 652.7 517.147C647.5 518.047 642.7 519.747 637.4 520.747C624.7 521.847 624.6 529.747 621.9 539.447C618.8 547.447 613.2 534.847 605.3 540.647C599.7 544.347 597.1 547.847 590.5 542.147C584.2 538.347 581.4 537.647 580.7 530.047C580.1 528.047 578 529.147 576.8 530.047C570.2 535.547 560.8 545.047 564 527.647C568.8 509.747 576.1 491.947 576.7 473.247C575.9 460.547 571.6 448.147 568.4 435.947C566 426.147 564.1 416.047 561.5 406.347C559.1 397.447 554.3 390.447 550 382.447C545.4 374.547 533.5 359.347 525.1 357.547C516.3 356.847 513.3 354.347 508.2 347.247C506.7 345.347 503.8 342.747 503.1 346.847C503 347.147 502.9 347.347 502.8 347.547C502.3 348.247 501.6 348.147 500.2 346.747C498.4 344.747 496.4 341.647 494.9 339.147C491.3 332.747 485.1 326.047 485 318.847C485 315.547 487.2 312.747 490.3 311.547C494.6 309.647 499 309.647 501.1 306.447C505.3 298.547 500.3 285.147 509.7 280.347C530 275.047 522.1 262.547 523.7 246.847C525.3 240.147 530.4 235.347 532.3 228.847C535.5 219.647 533.7 208.247 535.4 198.847C538 193.047 545.5 198.347 550.9 199.347C557.3 200.847 565 202.447 568.5 195.747C573 187.047 576.9 177.047 582 168.647C590.9 156.847 582 144.847 590.4 134.447C594.9 129.047 599.5 123.447 602.1 116.947C605.5 108.547 603.1 97.4467 607.5 89.1467C610.9 83.2467 617.1 79.8466 622.6 76.1467C629.8 71.6467 637.5 64.7467 645.2 60.3467C655.4 53.8467 666.3 53.7467 676.1 59.9467C677.8 60.7467 679 61.1467 679.6 60.6467C680.5 60.3467 680 57.8467 679.4 56.4467C672.8 43.4467 675.5 38.4467 686.3 29.0467C693.1 23.0467 689.6 9.54665 699 6.24665H699.1Z" fill="#C6E0F1"/>
<g filter="url(#filter0_d_1497_16947)">
<rect x="669" y="397" width="96" height="40" rx="20" fill="#004EA2" shape-rendering="crispEdges"/>
<path d="M694.056 415.196H695.384V423.708H694.056V415.196ZM696.328 415.196H697.672V423.708H696.328V415.196ZM691.272 410.636H700.472V412.332H691.272V410.636ZM694.6 417.004H696.984V418.524H694.6V417.004ZM694.6 419.82H696.984V421.324H694.6V419.82ZM692.744 422.62H699.064V424.268H692.744V422.62ZM694.92 411.324H696.936C696.84 411.943 696.728 412.577 696.6 413.228C696.483 413.868 696.365 414.423 696.248 414.892H694.328C694.445 414.401 694.557 413.836 694.664 413.196C694.781 412.545 694.867 411.921 694.92 411.324ZM691.72 414.108H700.088V424.844H698.456V415.756H693.256V424.924H691.72V414.108ZM689.16 416.476L690.392 416.012C690.552 416.353 690.707 416.721 690.856 417.116C691.016 417.5 691.155 417.879 691.272 418.252C691.389 418.615 691.469 418.94 691.512 419.228L690.2 419.772C690.157 419.484 690.083 419.153 689.976 418.78C689.869 418.407 689.747 418.017 689.608 417.612C689.469 417.207 689.32 416.828 689.16 416.476ZM687.704 420.684L689 420.364C689.096 420.897 689.181 421.473 689.256 422.092C689.331 422.711 689.384 423.249 689.416 423.708L688.072 424.076C688.061 423.607 688.019 423.057 687.944 422.428C687.88 421.788 687.8 421.207 687.704 420.684ZM685.96 420.476L687.352 420.7C687.299 421.415 687.213 422.124 687.096 422.828C686.979 423.532 686.845 424.129 686.696 424.62C686.525 424.535 686.301 424.444 686.024 424.348C685.747 424.252 685.517 424.183 685.336 424.14C685.517 423.66 685.651 423.095 685.736 422.444C685.832 421.783 685.907 421.127 685.96 420.476ZM685.912 416.268C685.891 416.151 685.848 416.001 685.784 415.82C685.72 415.628 685.651 415.436 685.576 415.244C685.512 415.041 685.448 414.871 685.384 414.732C685.533 414.689 685.677 414.593 685.816 414.444C685.955 414.295 686.099 414.103 686.248 413.868C686.365 413.719 686.536 413.441 686.76 413.036C686.984 412.62 687.219 412.14 687.464 411.596C687.709 411.052 687.923 410.503 688.104 409.948L689.64 410.588C689.405 411.153 689.133 411.729 688.824 412.316C688.525 412.903 688.205 413.457 687.864 413.98C687.533 414.503 687.203 414.977 686.872 415.404V415.436C686.872 415.436 686.819 415.463 686.712 415.516C686.616 415.569 686.504 415.639 686.376 415.724C686.259 415.809 686.152 415.9 686.056 415.996C685.96 416.092 685.912 416.183 685.912 416.268ZM685.912 416.268L685.864 415.036L686.584 414.556L689.304 414.364C689.261 414.588 689.224 414.833 689.192 415.1C689.16 415.367 689.139 415.591 689.128 415.772C688.52 415.825 688.024 415.879 687.64 415.932C687.256 415.975 686.952 416.012 686.728 416.044C686.504 416.076 686.328 416.113 686.2 416.156C686.083 416.188 685.987 416.225 685.912 416.268ZM686.024 419.98C686.003 419.873 685.96 419.724 685.896 419.532C685.843 419.34 685.779 419.143 685.704 418.94C685.629 418.737 685.56 418.567 685.496 418.428C685.699 418.375 685.891 418.257 686.072 418.076C686.264 417.884 686.477 417.639 686.712 417.34C686.84 417.191 687.027 416.945 687.272 416.604C687.517 416.252 687.789 415.841 688.088 415.372C688.397 414.892 688.701 414.375 689 413.82C689.299 413.265 689.571 412.711 689.816 412.156L691.208 413.052C690.835 413.777 690.419 414.508 689.96 415.244C689.501 415.969 689.016 416.663 688.504 417.324C688.003 417.975 687.501 418.572 687 419.116V419.164C687 419.164 686.952 419.191 686.856 419.244C686.76 419.297 686.643 419.367 686.504 419.452C686.376 419.537 686.264 419.628 686.168 419.724C686.072 419.82 686.024 419.905 686.024 419.98ZM686.024 419.98L685.944 418.716L686.664 418.236L690.728 417.676C690.696 417.879 690.675 418.113 690.664 418.38C690.653 418.647 690.653 418.865 690.664 419.036C689.736 419.185 688.989 419.313 688.424 419.42C687.859 419.516 687.416 419.596 687.096 419.66C686.776 419.724 686.536 419.783 686.376 419.836C686.227 419.879 686.109 419.927 686.024 419.98ZM689.432 420.3L690.632 419.9C690.813 420.38 690.984 420.903 691.144 421.468C691.315 422.023 691.443 422.503 691.528 422.908L690.28 423.388C690.205 422.972 690.083 422.476 689.912 421.9C689.752 421.324 689.592 420.791 689.432 420.3ZM705.016 417.916H710.92V419.356H705.016V417.916ZM705.064 415.148H712.168V422.236H705.064V420.668H710.36V416.716H705.064V415.148ZM703.896 415.148H705.656V423.212H703.896V415.148ZM707.144 415.724H708.808V421.532H707.144V415.724ZM705.048 411.98H714.664V413.884H705.048V411.98ZM714.056 411.98H716.04C716.04 411.98 716.04 412.044 716.04 412.172C716.04 412.289 716.04 412.423 716.04 412.572C716.04 412.721 716.035 412.839 716.024 412.924C715.971 414.769 715.912 416.343 715.848 417.644C715.795 418.945 715.725 420.017 715.64 420.86C715.555 421.703 715.453 422.369 715.336 422.86C715.219 423.34 715.069 423.692 714.888 423.916C714.653 424.247 714.408 424.476 714.152 424.604C713.896 424.732 713.592 424.823 713.24 424.876C712.92 424.94 712.509 424.967 712.008 424.956C711.517 424.956 711.021 424.945 710.52 424.924C710.509 424.743 710.472 424.529 710.408 424.284C710.355 424.039 710.275 423.793 710.168 423.548C710.072 423.303 709.955 423.089 709.816 422.908C710.371 422.951 710.877 422.977 711.336 422.988C711.805 422.988 712.152 422.988 712.376 422.988C712.547 422.988 712.685 422.972 712.792 422.94C712.899 422.897 713 422.823 713.096 422.716C713.245 422.567 713.368 422.268 713.464 421.82C713.571 421.361 713.656 420.721 713.72 419.9C713.795 419.068 713.859 418.033 713.912 416.796C713.965 415.559 714.013 414.087 714.056 412.38V411.98ZM705.224 409.884L707.192 410.38C706.861 411.319 706.472 412.236 706.024 413.132C705.576 414.028 705.085 414.86 704.552 415.628C704.019 416.396 703.464 417.068 702.888 417.644C702.781 417.516 702.627 417.367 702.424 417.196C702.232 417.025 702.029 416.86 701.816 416.7C701.613 416.529 701.437 416.391 701.288 416.284C701.853 415.793 702.381 415.212 702.872 414.54C703.373 413.868 703.821 413.132 704.216 412.332C704.621 411.532 704.957 410.716 705.224 409.884ZM721.368 416.604L722.632 416.252C722.76 416.583 722.883 416.94 723 417.324C723.117 417.697 723.224 418.065 723.32 418.428C723.427 418.791 723.496 419.105 723.528 419.372L722.184 419.82C722.141 419.543 722.077 419.223 721.992 418.86C721.907 418.487 721.811 418.103 721.704 417.708C721.597 417.313 721.485 416.945 721.368 416.604ZM719.864 420.668L721.112 420.364C721.208 420.908 721.293 421.489 721.368 422.108C721.453 422.727 721.507 423.265 721.528 423.724L720.216 424.06C720.216 423.751 720.195 423.399 720.152 423.004C720.12 422.609 720.077 422.215 720.024 421.82C719.971 421.415 719.917 421.031 719.864 420.668ZM718.28 420.476L719.624 420.7C719.549 421.404 719.437 422.108 719.288 422.812C719.149 423.516 718.989 424.108 718.808 424.588C718.659 424.513 718.445 424.428 718.168 424.332C717.901 424.247 717.683 424.183 717.512 424.14C717.715 423.66 717.875 423.095 717.992 422.444C718.12 421.783 718.216 421.127 718.28 420.476ZM717.944 416.268C717.912 416.151 717.864 415.996 717.8 415.804C717.736 415.601 717.667 415.399 717.592 415.196C717.517 414.983 717.448 414.807 717.384 414.668C717.544 414.625 717.693 414.529 717.832 414.38C717.971 414.231 718.115 414.033 718.264 413.788C718.381 413.639 718.547 413.361 718.76 412.956C718.984 412.551 719.219 412.076 719.464 411.532C719.72 410.977 719.933 410.417 720.104 409.852L721.768 410.54C721.405 411.404 720.973 412.268 720.472 413.132C719.971 413.985 719.469 414.732 718.968 415.372V415.404C718.968 415.404 718.915 415.436 718.808 415.5C718.712 415.553 718.595 415.628 718.456 415.724C718.317 415.809 718.195 415.9 718.088 415.996C717.992 416.092 717.944 416.183 717.944 416.268ZM717.944 416.268L717.912 415.036L718.632 414.556L721.4 414.364C721.357 414.577 721.32 414.817 721.288 415.084C721.256 415.351 721.235 415.575 721.224 415.756C720.403 415.831 719.773 415.9 719.336 415.964C718.899 416.017 718.584 416.071 718.392 416.124C718.2 416.167 718.051 416.215 717.944 416.268ZM718.072 419.98C718.04 419.873 717.992 419.724 717.928 419.532C717.864 419.34 717.795 419.143 717.72 418.94C717.656 418.737 717.587 418.567 717.512 418.428C717.715 418.375 717.907 418.257 718.088 418.076C718.28 417.884 718.499 417.639 718.744 417.34C718.872 417.191 719.059 416.945 719.304 416.604C719.549 416.263 719.821 415.857 720.12 415.388C720.419 414.919 720.717 414.412 721.016 413.868C721.315 413.324 721.587 412.775 721.832 412.22L723.336 413.052C722.952 413.777 722.52 414.508 722.04 415.244C721.571 415.969 721.08 416.668 720.568 417.34C720.056 418.001 719.539 418.599 719.016 419.132V419.164C719.016 419.164 718.968 419.196 718.872 419.26C718.776 419.313 718.664 419.383 718.536 419.468C718.419 419.553 718.312 419.644 718.216 419.74C718.12 419.825 718.072 419.905 718.072 419.98ZM718.072 419.98L717.96 418.684L718.664 418.172L722.632 417.484C722.611 417.697 722.6 417.943 722.6 418.22C722.6 418.487 722.605 418.705 722.616 418.876C721.709 419.057 720.979 419.207 720.424 419.324C719.869 419.441 719.437 419.543 719.128 419.628C718.819 419.703 718.584 419.767 718.424 419.82C718.275 419.873 718.157 419.927 718.072 419.98ZM721.4 420.348L722.6 419.996C722.739 420.412 722.861 420.86 722.968 421.34C723.085 421.809 723.171 422.22 723.224 422.572L721.96 422.972C721.917 422.609 721.837 422.183 721.72 421.692C721.613 421.201 721.507 420.753 721.4 420.348ZM729.96 420.604L731.24 420.092C731.4 420.455 731.56 420.844 731.72 421.26C731.891 421.665 732.051 422.065 732.2 422.46C732.349 422.844 732.472 423.191 732.568 423.5L731.24 424.108C731.144 423.788 731.027 423.425 730.888 423.02C730.749 422.615 730.595 422.204 730.424 421.788C730.264 421.361 730.109 420.967 729.96 420.604ZM725.192 420.268H726.776V422.844C726.776 423.036 726.808 423.164 726.872 423.228C726.936 423.281 727.085 423.308 727.32 423.308C727.373 423.308 727.464 423.308 727.592 423.308C727.72 423.308 727.859 423.308 728.008 423.308C728.157 423.308 728.296 423.308 728.424 423.308C728.563 423.308 728.669 423.308 728.744 423.308C728.883 423.308 728.984 423.276 729.048 423.212C729.123 423.137 729.176 422.993 729.208 422.78C729.24 422.567 729.267 422.247 729.288 421.82C729.437 421.948 729.651 422.06 729.928 422.156C730.205 422.252 730.445 422.327 730.648 422.38C730.605 422.977 730.52 423.436 730.392 423.756C730.264 424.087 730.083 424.316 729.848 424.444C729.613 424.572 729.299 424.636 728.904 424.636C728.829 424.636 728.707 424.636 728.536 424.636C728.365 424.636 728.184 424.636 727.992 424.636C727.8 424.636 727.619 424.636 727.448 424.636C727.288 424.636 727.171 424.636 727.096 424.636C726.584 424.636 726.189 424.583 725.912 424.476C725.645 424.369 725.459 424.183 725.352 423.916C725.245 423.66 725.192 423.308 725.192 422.86V420.268ZM723.816 420.22L725.128 420.684C725.043 421.068 724.947 421.484 724.84 421.932C724.733 422.369 724.611 422.807 724.472 423.244C724.333 423.671 724.184 424.044 724.024 424.364L722.68 423.74C722.84 423.431 722.995 423.079 723.144 422.684C723.293 422.279 723.427 421.863 723.544 421.436C723.661 421.009 723.752 420.604 723.816 420.22ZM726.728 409.772L728.664 410.076C728.493 410.439 728.317 410.791 728.136 411.132C727.955 411.463 727.795 411.745 727.656 411.98L726.168 411.66C726.275 411.372 726.381 411.052 726.488 410.7C726.595 410.348 726.675 410.039 726.728 409.772ZM727.752 412.988L728.904 413.196C728.605 413.729 728.221 414.236 727.752 414.716C727.283 415.196 726.707 415.639 726.024 416.044C725.949 415.916 725.837 415.767 725.688 415.596C725.539 415.425 725.405 415.303 725.288 415.228C725.885 414.908 726.387 414.551 726.792 414.156C727.208 413.761 727.528 413.372 727.752 412.988ZM725.704 413.724L726.648 413.1C727.096 413.463 727.533 413.873 727.96 414.332C728.397 414.78 728.797 415.228 729.16 415.676C729.533 416.113 729.827 416.513 730.04 416.876L729.032 417.612C728.808 417.228 728.515 416.807 728.152 416.348C727.789 415.889 727.395 415.431 726.968 414.972C726.541 414.503 726.12 414.087 725.704 413.724ZM729.048 413.98L730.2 414.172C729.816 414.823 729.315 415.452 728.696 416.06C728.088 416.668 727.336 417.217 726.44 417.708C726.376 417.569 726.275 417.42 726.136 417.26C725.997 417.089 725.864 416.956 725.736 416.86C726.269 416.593 726.749 416.3 727.176 415.98C727.603 415.66 727.971 415.329 728.28 414.988C728.6 414.636 728.856 414.3 729.048 413.98ZM725.448 412.908V417.74H730.072V412.908H725.448ZM723.8 411.372H731.8V419.276H723.8V411.372ZM726.968 419.788L728.2 419.212C728.371 419.468 728.547 419.751 728.728 420.06C728.92 420.359 729.101 420.647 729.272 420.924C729.443 421.201 729.581 421.447 729.688 421.66L728.376 422.332C728.28 422.119 728.152 421.868 727.992 421.58C727.843 421.281 727.677 420.977 727.496 420.668C727.315 420.348 727.139 420.055 726.968 419.788ZM744.2 415.372H748.376V416.94H744.2V415.372ZM736.568 416.492H741.912V417.884H737.864V424.716H736.568V416.492ZM738.808 413.26H740.408V417.388H738.808V413.26ZM741.4 416.492H742.776V423.132C742.776 423.463 742.739 423.729 742.664 423.932C742.589 424.145 742.44 424.316 742.216 424.444C741.992 424.551 741.715 424.615 741.384 424.636C741.053 424.668 740.653 424.679 740.184 424.668C740.163 424.476 740.109 424.252 740.024 423.996C739.949 423.74 739.869 423.516 739.784 423.324C740.083 423.335 740.36 423.34 740.616 423.34C740.883 423.34 741.064 423.335 741.16 423.324C741.32 423.324 741.4 423.249 741.4 423.1V416.492ZM738.792 418.62H740.824V422.396H738.792V421.212H740.008V419.804H738.792V418.62ZM738.392 418.62H739.192V422.892H738.392V418.62ZM743.96 413.212L745.608 413.516C745.395 414.679 745.096 415.799 744.712 416.876C744.339 417.953 743.891 418.86 743.368 419.596C743.283 419.489 743.165 419.367 743.016 419.228C742.867 419.079 742.707 418.935 742.536 418.796C742.376 418.647 742.232 418.529 742.104 418.444C742.584 417.825 742.973 417.052 743.272 416.124C743.581 415.185 743.811 414.215 743.96 413.212ZM736.248 414.172L737.416 413.628C737.661 413.937 737.891 414.284 738.104 414.668C738.317 415.052 738.467 415.388 738.552 415.676L737.304 416.284C737.229 415.996 737.091 415.655 736.888 415.26C736.696 414.855 736.483 414.492 736.248 414.172ZM744.664 416.62C744.867 417.633 745.139 418.599 745.48 419.516C745.821 420.423 746.253 421.228 746.776 421.932C747.299 422.625 747.923 423.18 748.648 423.596C748.467 423.745 748.264 423.953 748.04 424.22C747.827 424.487 747.656 424.732 747.528 424.956C746.76 424.444 746.104 423.788 745.56 422.988C745.027 422.177 744.584 421.255 744.232 420.22C743.891 419.175 743.619 418.055 743.416 416.86L744.664 416.62ZM741.496 413.612L742.952 414.076C742.717 414.471 742.477 414.871 742.232 415.276C741.987 415.671 741.757 416.012 741.544 416.3L740.36 415.868C740.488 415.665 740.621 415.436 740.76 415.18C740.909 414.913 741.048 414.641 741.176 414.364C741.315 414.087 741.421 413.836 741.496 413.612ZM735.624 411.324H748.328V412.924H735.624V411.324ZM734.472 411.324H736.216V416.172C736.216 416.801 736.195 417.495 736.152 418.252C736.12 419.009 736.056 419.788 735.96 420.588C735.864 421.377 735.72 422.145 735.528 422.892C735.347 423.628 735.112 424.3 734.824 424.908C734.728 424.791 734.589 424.657 734.408 424.508C734.227 424.369 734.04 424.231 733.848 424.092C733.667 423.964 733.507 423.868 733.368 423.804C733.635 423.26 733.837 422.668 733.976 422.028C734.125 421.377 734.232 420.711 734.296 420.028C734.371 419.345 734.419 418.679 734.44 418.028C734.461 417.367 734.472 416.748 734.472 416.172V411.324ZM746.264 416.172L747.912 416.348C747.784 417.223 747.603 418.081 747.368 418.924C747.144 419.767 746.851 420.572 746.488 421.34C746.125 422.108 745.672 422.807 745.128 423.436C744.595 424.065 743.944 424.599 743.176 425.036C743.069 424.865 742.92 424.652 742.728 424.396C742.547 424.14 742.381 423.943 742.232 423.804C742.925 423.42 743.507 422.951 743.976 422.396C744.456 421.841 744.851 421.228 745.16 420.556C745.469 419.873 745.709 419.159 745.88 418.412C746.061 417.665 746.189 416.919 746.264 416.172ZM740.328 410.268L742.04 409.628C742.211 409.852 742.371 410.108 742.52 410.396C742.68 410.684 742.797 410.935 742.872 411.148L741.064 411.884C741.011 411.671 740.915 411.409 740.776 411.1C740.637 410.78 740.488 410.503 740.328 410.268Z" fill="#FEFBF9"/>
</g>
<g filter="url(#filter1_dd_1497_16947)">
<ellipse cx="616.553" cy="420.339" rx="7.24288" ry="4.8201" fill="white" fill-opacity="0.6"/>
<path d="M616.554 413.127C619.669 413.127 622.466 413.968 624.471 415.302C626.478 416.638 627.642 418.429 627.642 420.339C627.642 422.249 626.479 424.04 624.471 425.376C622.466 426.71 619.669 427.552 616.554 427.552C613.438 427.552 610.64 426.71 608.636 425.376C606.628 424.04 605.465 422.249 605.465 420.339C605.465 418.429 606.628 416.638 608.636 415.302C610.64 413.968 613.438 413.127 616.554 413.127Z" stroke="white" stroke-opacity="0.6"/>
<path d="M627.756 407.51C626.121 410.673 620.994 415.234 616.507 419.49C611.954 415.427 606.893 409.714 605.835 408.276C604.778 406.839 602.305 400.551 605.835 395.625C608.692 391.494 611.697 389.509 616.507 389.491C621.35 389.472 624.154 391.415 627.275 395.625C629.606 400.736 629.39 404.347 627.756 407.51Z" fill="#FFC936" stroke="black"/>
<path d="M616.725 394.02C612.674 394.02 609.412 397.216 609.412 401.132C609.412 405.048 612.674 408.243 616.725 408.243C620.775 408.243 624.037 405.048 624.037 401.132C624.037 397.216 620.776 394.02 616.725 394.02Z" fill="#F5F5F5" stroke="black"/>
</g>
<g filter="url(#filter2_dd_1497_16947)">
<ellipse cx="648.553" cy="459.849" rx="7.24288" ry="4.8201" fill="white" fill-opacity="0.6"/>
<path d="M648.554 452.636C651.669 452.637 654.466 453.478 656.471 454.811C658.478 456.147 659.642 457.938 659.642 459.848C659.642 461.758 658.479 463.549 656.471 464.885C654.466 466.219 651.669 467.061 648.554 467.061C645.438 467.061 642.64 466.219 640.636 464.885C638.628 463.549 637.465 461.758 637.465 459.848C637.465 457.938 638.628 456.147 640.636 454.811C642.64 453.477 645.438 452.636 648.554 452.636Z" stroke="white" stroke-opacity="0.6"/>
<path d="M659.756 447.019C658.121 450.182 652.994 454.743 648.507 459C643.954 454.937 638.893 449.224 637.835 447.786C636.778 446.348 634.305 440.061 637.835 435.134C640.692 431.004 643.697 429.019 648.507 429C653.35 428.981 656.154 430.924 659.275 435.134C661.606 440.246 661.39 443.856 659.756 447.019Z" fill="#FFC936" stroke="black"/>
<path d="M648.725 433.529C644.674 433.529 641.412 436.726 641.412 440.642C641.412 444.557 644.674 447.753 648.725 447.753C652.775 447.753 656.037 444.557 656.037 440.642C656.037 436.726 652.776 433.529 648.725 433.529Z" fill="#F5F5F5" stroke="black"/>
</g>
<g filter="url(#filter3_dd_1497_16947)">
<ellipse cx="623.553" cy="508.849" rx="7.24288" ry="4.8201" fill="white" fill-opacity="0.6"/>
<path d="M623.554 501.636C626.669 501.637 629.466 502.478 631.471 503.811C633.478 505.147 634.642 506.938 634.642 508.848C634.642 510.758 633.479 512.549 631.471 513.885C629.466 515.219 626.669 516.061 623.554 516.061C620.438 516.061 617.64 515.219 615.636 513.885C613.628 512.549 612.465 510.758 612.465 508.848C612.465 506.938 613.628 505.147 615.636 503.811C617.64 502.477 620.438 501.636 623.554 501.636Z" stroke="white" stroke-opacity="0.6"/>
<path d="M634.756 496.019C633.121 499.182 627.994 503.743 623.507 508C618.954 503.937 613.893 498.224 612.835 496.786C611.778 495.348 609.305 489.061 612.835 484.134C615.692 480.004 618.697 478.019 623.507 478C628.35 477.981 631.154 479.924 634.275 484.134C636.606 489.246 636.39 492.856 634.756 496.019Z" fill="#FFC936" stroke="black"/>
<path d="M623.725 482.529C619.674 482.529 616.412 485.726 616.412 489.642C616.412 493.557 619.674 496.753 623.725 496.753C627.775 496.753 631.037 493.557 631.037 489.642C631.037 485.726 627.776 482.529 623.725 482.529Z" fill="#F5F5F5" stroke="black"/>
</g>
<g filter="url(#filter4_dd_1497_16947)">
<ellipse cx="672.553" cy="485.339" rx="7.24288" ry="4.8201" fill="white" fill-opacity="0.6"/>
<path d="M672.554 478.127C675.669 478.127 678.466 478.968 680.471 480.302C682.478 481.638 683.642 483.429 683.642 485.339C683.642 487.249 682.479 489.04 680.471 490.376C678.466 491.71 675.669 492.552 672.554 492.552C669.438 492.552 666.64 491.71 664.636 490.376C662.628 489.04 661.465 487.249 661.465 485.339C661.465 483.429 662.628 481.638 664.636 480.302C666.64 478.968 669.438 478.127 672.554 478.127Z" stroke="white" stroke-opacity="0.6"/>
<path d="M683.756 472.51C682.121 475.673 676.994 480.234 672.507 484.49C667.954 480.427 662.893 474.714 661.835 473.276C660.778 471.839 658.305 465.551 661.835 460.625C664.692 456.494 667.697 454.509 672.507 454.491C677.35 454.472 680.154 456.415 683.275 460.625C685.606 465.736 685.39 469.347 683.756 472.51Z" fill="#FFC936" stroke="black"/>
<path d="M672.725 459.02C668.674 459.02 665.412 462.216 665.412 466.132C665.412 470.048 668.674 473.243 672.725 473.243C676.775 473.243 680.037 470.048 680.037 466.132C680.037 462.216 676.776 459.02 672.725 459.02Z" fill="#F5F5F5" stroke="black"/>
</g>
<g filter="url(#filter5_d_1497_16947)">
<rect x="481" y="370" width="112" height="40" rx="20" fill="#004EA2" shape-rendering="crispEdges"/>
<path d="M506.056 388.196H507.384V396.708H506.056V388.196ZM508.328 388.196H509.672V396.708H508.328V388.196ZM503.272 383.636H512.472V385.332H503.272V383.636ZM506.6 390.004H508.984V391.524H506.6V390.004ZM506.6 392.82H508.984V394.324H506.6V392.82ZM504.744 395.62H511.064V397.268H504.744V395.62ZM506.92 384.324H508.936C508.84 384.943 508.728 385.577 508.6 386.228C508.483 386.868 508.365 387.423 508.248 387.892H506.328C506.445 387.401 506.557 386.836 506.664 386.196C506.781 385.545 506.867 384.921 506.92 384.324ZM503.72 387.108H512.088V397.844H510.456V388.756H505.256V397.924H503.72V387.108ZM501.16 389.476L502.392 389.012C502.552 389.353 502.707 389.721 502.856 390.116C503.016 390.5 503.155 390.879 503.272 391.252C503.389 391.615 503.469 391.94 503.512 392.228L502.2 392.772C502.157 392.484 502.083 392.153 501.976 391.78C501.869 391.407 501.747 391.017 501.608 390.612C501.469 390.207 501.32 389.828 501.16 389.476ZM499.704 393.684L501 393.364C501.096 393.897 501.181 394.473 501.256 395.092C501.331 395.711 501.384 396.249 501.416 396.708L500.072 397.076C500.061 396.607 500.019 396.057 499.944 395.428C499.88 394.788 499.8 394.207 499.704 393.684ZM497.96 393.476L499.352 393.7C499.299 394.415 499.213 395.124 499.096 395.828C498.979 396.532 498.845 397.129 498.696 397.62C498.525 397.535 498.301 397.444 498.024 397.348C497.747 397.252 497.517 397.183 497.336 397.14C497.517 396.66 497.651 396.095 497.736 395.444C497.832 394.783 497.907 394.127 497.96 393.476ZM497.912 389.268C497.891 389.151 497.848 389.001 497.784 388.82C497.72 388.628 497.651 388.436 497.576 388.244C497.512 388.041 497.448 387.871 497.384 387.732C497.533 387.689 497.677 387.593 497.816 387.444C497.955 387.295 498.099 387.103 498.248 386.868C498.365 386.719 498.536 386.441 498.76 386.036C498.984 385.62 499.219 385.14 499.464 384.596C499.709 384.052 499.923 383.503 500.104 382.948L501.64 383.588C501.405 384.153 501.133 384.729 500.824 385.316C500.525 385.903 500.205 386.457 499.864 386.98C499.533 387.503 499.203 387.977 498.872 388.404V388.436C498.872 388.436 498.819 388.463 498.712 388.516C498.616 388.569 498.504 388.639 498.376 388.724C498.259 388.809 498.152 388.9 498.056 388.996C497.96 389.092 497.912 389.183 497.912 389.268ZM497.912 389.268L497.864 388.036L498.584 387.556L501.304 387.364C501.261 387.588 501.224 387.833 501.192 388.1C501.16 388.367 501.139 388.591 501.128 388.772C500.52 388.825 500.024 388.879 499.64 388.932C499.256 388.975 498.952 389.012 498.728 389.044C498.504 389.076 498.328 389.113 498.2 389.156C498.083 389.188 497.987 389.225 497.912 389.268ZM498.024 392.98C498.003 392.873 497.96 392.724 497.896 392.532C497.843 392.34 497.779 392.143 497.704 391.94C497.629 391.737 497.56 391.567 497.496 391.428C497.699 391.375 497.891 391.257 498.072 391.076C498.264 390.884 498.477 390.639 498.712 390.34C498.84 390.191 499.027 389.945 499.272 389.604C499.517 389.252 499.789 388.841 500.088 388.372C500.397 387.892 500.701 387.375 501 386.82C501.299 386.265 501.571 385.711 501.816 385.156L503.208 386.052C502.835 386.777 502.419 387.508 501.96 388.244C501.501 388.969 501.016 389.663 500.504 390.324C500.003 390.975 499.501 391.572 499 392.116V392.164C499 392.164 498.952 392.191 498.856 392.244C498.76 392.297 498.643 392.367 498.504 392.452C498.376 392.537 498.264 392.628 498.168 392.724C498.072 392.82 498.024 392.905 498.024 392.98ZM498.024 392.98L497.944 391.716L498.664 391.236L502.728 390.676C502.696 390.879 502.675 391.113 502.664 391.38C502.653 391.647 502.653 391.865 502.664 392.036C501.736 392.185 500.989 392.313 500.424 392.42C499.859 392.516 499.416 392.596 499.096 392.66C498.776 392.724 498.536 392.783 498.376 392.836C498.227 392.879 498.109 392.927 498.024 392.98ZM501.432 393.3L502.632 392.9C502.813 393.38 502.984 393.903 503.144 394.468C503.315 395.023 503.443 395.503 503.528 395.908L502.28 396.388C502.205 395.972 502.083 395.476 501.912 394.9C501.752 394.324 501.592 393.791 501.432 393.3ZM517.016 390.916H522.92V392.356H517.016V390.916ZM517.064 388.148H524.168V395.236H517.064V393.668H522.36V389.716H517.064V388.148ZM515.896 388.148H517.656V396.212H515.896V388.148ZM519.144 388.724H520.808V394.532H519.144V388.724ZM517.048 384.98H526.664V386.884H517.048V384.98ZM526.056 384.98H528.04C528.04 384.98 528.04 385.044 528.04 385.172C528.04 385.289 528.04 385.423 528.04 385.572C528.04 385.721 528.035 385.839 528.024 385.924C527.971 387.769 527.912 389.343 527.848 390.644C527.795 391.945 527.725 393.017 527.64 393.86C527.555 394.703 527.453 395.369 527.336 395.86C527.219 396.34 527.069 396.692 526.888 396.916C526.653 397.247 526.408 397.476 526.152 397.604C525.896 397.732 525.592 397.823 525.24 397.876C524.92 397.94 524.509 397.967 524.008 397.956C523.517 397.956 523.021 397.945 522.52 397.924C522.509 397.743 522.472 397.529 522.408 397.284C522.355 397.039 522.275 396.793 522.168 396.548C522.072 396.303 521.955 396.089 521.816 395.908C522.371 395.951 522.877 395.977 523.336 395.988C523.805 395.988 524.152 395.988 524.376 395.988C524.547 395.988 524.685 395.972 524.792 395.94C524.899 395.897 525 395.823 525.096 395.716C525.245 395.567 525.368 395.268 525.464 394.82C525.571 394.361 525.656 393.721 525.72 392.9C525.795 392.068 525.859 391.033 525.912 389.796C525.965 388.559 526.013 387.087 526.056 385.38V384.98ZM517.224 382.884L519.192 383.38C518.861 384.319 518.472 385.236 518.024 386.132C517.576 387.028 517.085 387.86 516.552 388.628C516.019 389.396 515.464 390.068 514.888 390.644C514.781 390.516 514.627 390.367 514.424 390.196C514.232 390.025 514.029 389.86 513.816 389.7C513.613 389.529 513.437 389.391 513.288 389.284C513.853 388.793 514.381 388.212 514.872 387.54C515.373 386.868 515.821 386.132 516.216 385.332C516.621 384.532 516.957 383.716 517.224 382.884ZM529.912 388.548H544.104V390.372H529.912V388.548ZM535.112 386.34L537.128 386.788C536.712 388.217 536.2 389.577 535.592 390.868C534.995 392.159 534.323 393.343 533.576 394.42C532.829 395.487 532.008 396.409 531.112 397.188C531.005 397.06 530.851 396.9 530.648 396.708C530.456 396.516 530.253 396.329 530.04 396.148C529.827 395.967 529.64 395.817 529.48 395.7C530.365 395.017 531.165 394.196 531.88 393.236C532.595 392.276 533.219 391.209 533.752 390.036C534.296 388.863 534.749 387.631 535.112 386.34ZM539.096 393.172L540.712 392.276C541.085 392.745 541.485 393.257 541.912 393.812C542.349 394.367 542.771 394.911 543.176 395.444C543.581 395.977 543.912 396.447 544.168 396.852L542.392 397.924C542.168 397.519 541.869 397.044 541.496 396.5C541.123 395.945 540.723 395.375 540.296 394.788C539.869 394.201 539.469 393.663 539.096 393.172ZM530.024 384.436H543.96V387.764H542.008V386.18H531.896V387.764H530.024V384.436ZM535.72 383.3L537.736 382.756C537.875 383.044 538.024 383.369 538.184 383.732C538.344 384.084 538.472 384.383 538.568 384.628L536.44 385.252C536.376 384.996 536.275 384.681 536.136 384.308C535.997 383.935 535.859 383.599 535.72 383.3ZM534.024 397.7C533.981 397.561 533.923 397.38 533.848 397.156C533.784 396.943 533.709 396.724 533.624 396.5C533.539 396.265 533.459 396.068 533.384 395.908C533.587 395.855 533.773 395.753 533.944 395.604C534.125 395.444 534.328 395.231 534.552 394.964C534.68 394.825 534.845 394.617 535.048 394.34C535.261 394.052 535.496 393.716 535.752 393.332C536.019 392.937 536.285 392.505 536.552 392.036C536.829 391.567 537.085 391.092 537.32 390.612L539.32 391.236C538.755 392.281 538.125 393.279 537.432 394.228C536.739 395.177 536.072 395.999 535.432 396.692V396.724C535.432 396.724 535.363 396.756 535.224 396.82C535.085 396.895 534.92 396.98 534.728 397.076C534.536 397.183 534.371 397.289 534.232 397.396C534.093 397.503 534.024 397.604 534.024 397.7ZM534.024 397.7L533.976 396.276L535.016 395.668L541.656 395.268C541.688 395.513 541.736 395.796 541.8 396.116C541.875 396.425 541.939 396.681 541.992 396.884C540.701 396.991 539.613 397.076 538.728 397.14C537.853 397.204 537.133 397.263 536.568 397.316C536.013 397.369 535.571 397.412 535.24 397.444C534.909 397.487 534.653 397.524 534.472 397.556C534.291 397.599 534.141 397.647 534.024 397.7ZM548.872 382.964L550.68 383.524C550.339 384.431 549.939 385.343 549.48 386.26C549.032 387.167 548.541 388.025 548.008 388.836C547.475 389.647 546.925 390.356 546.36 390.964C546.307 390.804 546.216 390.601 546.088 390.356C545.971 390.1 545.843 389.849 545.704 389.604C545.565 389.348 545.443 389.14 545.336 388.98C545.805 388.489 546.259 387.924 546.696 387.284C547.144 386.644 547.555 385.956 547.928 385.22C548.301 384.484 548.616 383.732 548.872 382.964ZM547.288 387.428L549.192 385.54V385.556V397.924H547.288V387.428ZM551.032 384.692H559.496V386.468H551.032V384.692ZM550.712 391.844H559.816V393.652H550.712V391.844ZM550.28 388.148H560.232V389.972H550.28V388.148ZM549.8 395.572H560.52V397.412H549.8V395.572ZM554.232 382.9H556.184V389.236H554.232V382.9ZM554.232 390.42H556.184V396.9H554.232V390.42ZM572.2 388.372H576.376V389.94H572.2V388.372ZM564.568 389.492H569.912V390.884H565.864V397.716H564.568V389.492ZM566.808 386.26H568.408V390.388H566.808V386.26ZM569.4 389.492H570.776V396.132C570.776 396.463 570.739 396.729 570.664 396.932C570.589 397.145 570.44 397.316 570.216 397.444C569.992 397.551 569.715 397.615 569.384 397.636C569.053 397.668 568.653 397.679 568.184 397.668C568.163 397.476 568.109 397.252 568.024 396.996C567.949 396.74 567.869 396.516 567.784 396.324C568.083 396.335 568.36 396.34 568.616 396.34C568.883 396.34 569.064 396.335 569.16 396.324C569.32 396.324 569.4 396.249 569.4 396.1V389.492ZM566.792 391.62H568.824V395.396H566.792V394.212H568.008V392.804H566.792V391.62ZM566.392 391.62H567.192V395.892H566.392V391.62ZM571.96 386.212L573.608 386.516C573.395 387.679 573.096 388.799 572.712 389.876C572.339 390.953 571.891 391.86 571.368 392.596C571.283 392.489 571.165 392.367 571.016 392.228C570.867 392.079 570.707 391.935 570.536 391.796C570.376 391.647 570.232 391.529 570.104 391.444C570.584 390.825 570.973 390.052 571.272 389.124C571.581 388.185 571.811 387.215 571.96 386.212ZM564.248 387.172L565.416 386.628C565.661 386.937 565.891 387.284 566.104 387.668C566.317 388.052 566.467 388.388 566.552 388.676L565.304 389.284C565.229 388.996 565.091 388.655 564.888 388.26C564.696 387.855 564.483 387.492 564.248 387.172ZM572.664 389.62C572.867 390.633 573.139 391.599 573.48 392.516C573.821 393.423 574.253 394.228 574.776 394.932C575.299 395.625 575.923 396.18 576.648 396.596C576.467 396.745 576.264 396.953 576.04 397.22C575.827 397.487 575.656 397.732 575.528 397.956C574.76 397.444 574.104 396.788 573.56 395.988C573.027 395.177 572.584 394.255 572.232 393.22C571.891 392.175 571.619 391.055 571.416 389.86L572.664 389.62ZM569.496 386.612L570.952 387.076C570.717 387.471 570.477 387.871 570.232 388.276C569.987 388.671 569.757 389.012 569.544 389.3L568.36 388.868C568.488 388.665 568.621 388.436 568.76 388.18C568.909 387.913 569.048 387.641 569.176 387.364C569.315 387.087 569.421 386.836 569.496 386.612ZM563.624 384.324H576.328V385.924H563.624V384.324ZM562.472 384.324H564.216V389.172C564.216 389.801 564.195 390.495 564.152 391.252C564.12 392.009 564.056 392.788 563.96 393.588C563.864 394.377 563.72 395.145 563.528 395.892C563.347 396.628 563.112 397.3 562.824 397.908C562.728 397.791 562.589 397.657 562.408 397.508C562.227 397.369 562.04 397.231 561.848 397.092C561.667 396.964 561.507 396.868 561.368 396.804C561.635 396.26 561.837 395.668 561.976 395.028C562.125 394.377 562.232 393.711 562.296 393.028C562.371 392.345 562.419 391.679 562.44 391.028C562.461 390.367 562.472 389.748 562.472 389.172V384.324ZM574.264 389.172L575.912 389.348C575.784 390.223 575.603 391.081 575.368 391.924C575.144 392.767 574.851 393.572 574.488 394.34C574.125 395.108 573.672 395.807 573.128 396.436C572.595 397.065 571.944 397.599 571.176 398.036C571.069 397.865 570.92 397.652 570.728 397.396C570.547 397.14 570.381 396.943 570.232 396.804C570.925 396.42 571.507 395.951 571.976 395.396C572.456 394.841 572.851 394.228 573.16 393.556C573.469 392.873 573.709 392.159 573.88 391.412C574.061 390.665 574.189 389.919 574.264 389.172ZM568.328 383.268L570.04 382.628C570.211 382.852 570.371 383.108 570.52 383.396C570.68 383.684 570.797 383.935 570.872 384.148L569.064 384.884C569.011 384.671 568.915 384.409 568.776 384.1C568.637 383.78 568.488 383.503 568.328 383.268Z" fill="#FEFBF9"/>
</g>
<g filter="url(#filter6_d_1497_16947)">
<rect x="695" y="454" width="130" height="60" rx="30" fill="#004EA2" shape-rendering="crispEdges"/>
<path d="M733.517 472.696H734.845V481.208H733.517V472.696ZM735.789 472.696H737.133V481.208H735.789V472.696ZM730.733 468.136H739.933V469.832H730.733V468.136ZM734.061 474.504H736.445V476.024H734.061V474.504ZM734.061 477.32H736.445V478.824H734.061V477.32ZM732.205 480.12H738.525V481.768H732.205V480.12ZM734.381 468.824H736.397C736.301 469.443 736.189 470.077 736.061 470.728C735.944 471.368 735.826 471.923 735.709 472.392H733.789C733.906 471.901 734.018 471.336 734.125 470.696C734.242 470.045 734.328 469.421 734.381 468.824ZM731.181 471.608H739.549V482.344H737.917V473.256H732.717V482.424H731.181V471.608ZM728.621 473.976L729.853 473.512C730.013 473.853 730.168 474.221 730.317 474.616C730.477 475 730.616 475.379 730.733 475.752C730.85 476.115 730.93 476.44 730.973 476.728L729.661 477.272C729.618 476.984 729.544 476.653 729.437 476.28C729.33 475.907 729.208 475.517 729.069 475.112C728.93 474.707 728.781 474.328 728.621 473.976ZM727.165 478.184L728.461 477.864C728.557 478.397 728.642 478.973 728.717 479.592C728.792 480.211 728.845 480.749 728.877 481.208L727.533 481.576C727.522 481.107 727.48 480.557 727.405 479.928C727.341 479.288 727.261 478.707 727.165 478.184ZM725.421 477.976L726.813 478.2C726.76 478.915 726.674 479.624 726.557 480.328C726.44 481.032 726.306 481.629 726.157 482.12C725.986 482.035 725.762 481.944 725.485 481.848C725.208 481.752 724.978 481.683 724.797 481.64C724.978 481.16 725.112 480.595 725.197 479.944C725.293 479.283 725.368 478.627 725.421 477.976ZM725.373 473.768C725.352 473.651 725.309 473.501 725.245 473.32C725.181 473.128 725.112 472.936 725.037 472.744C724.973 472.541 724.909 472.371 724.845 472.232C724.994 472.189 725.138 472.093 725.277 471.944C725.416 471.795 725.56 471.603 725.709 471.368C725.826 471.219 725.997 470.941 726.221 470.536C726.445 470.12 726.68 469.64 726.925 469.096C727.17 468.552 727.384 468.003 727.565 467.448L729.101 468.088C728.866 468.653 728.594 469.229 728.285 469.816C727.986 470.403 727.666 470.957 727.325 471.48C726.994 472.003 726.664 472.477 726.333 472.904V472.936C726.333 472.936 726.28 472.963 726.173 473.016C726.077 473.069 725.965 473.139 725.837 473.224C725.72 473.309 725.613 473.4 725.517 473.496C725.421 473.592 725.373 473.683 725.373 473.768ZM725.373 473.768L725.325 472.536L726.045 472.056L728.765 471.864C728.722 472.088 728.685 472.333 728.653 472.6C728.621 472.867 728.6 473.091 728.589 473.272C727.981 473.325 727.485 473.379 727.101 473.432C726.717 473.475 726.413 473.512 726.189 473.544C725.965 473.576 725.789 473.613 725.661 473.656C725.544 473.688 725.448 473.725 725.373 473.768ZM725.485 477.48C725.464 477.373 725.421 477.224 725.357 477.032C725.304 476.84 725.24 476.643 725.165 476.44C725.09 476.237 725.021 476.067 724.957 475.928C725.16 475.875 725.352 475.757 725.533 475.576C725.725 475.384 725.938 475.139 726.173 474.84C726.301 474.691 726.488 474.445 726.733 474.104C726.978 473.752 727.25 473.341 727.549 472.872C727.858 472.392 728.162 471.875 728.461 471.32C728.76 470.765 729.032 470.211 729.277 469.656L730.669 470.552C730.296 471.277 729.88 472.008 729.421 472.744C728.962 473.469 728.477 474.163 727.965 474.824C727.464 475.475 726.962 476.072 726.461 476.616V476.664C726.461 476.664 726.413 476.691 726.317 476.744C726.221 476.797 726.104 476.867 725.965 476.952C725.837 477.037 725.725 477.128 725.629 477.224C725.533 477.32 725.485 477.405 725.485 477.48ZM725.485 477.48L725.405 476.216L726.125 475.736L730.189 475.176C730.157 475.379 730.136 475.613 730.125 475.88C730.114 476.147 730.114 476.365 730.125 476.536C729.197 476.685 728.45 476.813 727.885 476.92C727.32 477.016 726.877 477.096 726.557 477.16C726.237 477.224 725.997 477.283 725.837 477.336C725.688 477.379 725.57 477.427 725.485 477.48ZM728.893 477.8L730.093 477.4C730.274 477.88 730.445 478.403 730.605 478.968C730.776 479.523 730.904 480.003 730.989 480.408L729.741 480.888C729.666 480.472 729.544 479.976 729.373 479.4C729.213 478.824 729.053 478.291 728.893 477.8ZM744.477 475.416H750.381V476.856H744.477V475.416ZM744.525 472.648H751.629V479.736H744.525V478.168H749.821V474.216H744.525V472.648ZM743.357 472.648H745.117V480.712H743.357V472.648ZM746.605 473.224H748.269V479.032H746.605V473.224ZM744.509 469.48H754.125V471.384H744.509V469.48ZM753.517 469.48H755.501C755.501 469.48 755.501 469.544 755.501 469.672C755.501 469.789 755.501 469.923 755.501 470.072C755.501 470.221 755.496 470.339 755.485 470.424C755.432 472.269 755.373 473.843 755.309 475.144C755.256 476.445 755.186 477.517 755.101 478.36C755.016 479.203 754.914 479.869 754.797 480.36C754.68 480.84 754.53 481.192 754.349 481.416C754.114 481.747 753.869 481.976 753.613 482.104C753.357 482.232 753.053 482.323 752.701 482.376C752.381 482.44 751.97 482.467 751.469 482.456C750.978 482.456 750.482 482.445 749.981 482.424C749.97 482.243 749.933 482.029 749.869 481.784C749.816 481.539 749.736 481.293 749.629 481.048C749.533 480.803 749.416 480.589 749.277 480.408C749.832 480.451 750.338 480.477 750.797 480.488C751.266 480.488 751.613 480.488 751.837 480.488C752.008 480.488 752.146 480.472 752.253 480.44C752.36 480.397 752.461 480.323 752.557 480.216C752.706 480.067 752.829 479.768 752.925 479.32C753.032 478.861 753.117 478.221 753.181 477.4C753.256 476.568 753.32 475.533 753.373 474.296C753.426 473.059 753.474 471.587 753.517 469.88V469.48ZM744.685 467.384L746.653 467.88C746.322 468.819 745.933 469.736 745.485 470.632C745.037 471.528 744.546 472.36 744.013 473.128C743.48 473.896 742.925 474.568 742.349 475.144C742.242 475.016 742.088 474.867 741.885 474.696C741.693 474.525 741.49 474.36 741.277 474.2C741.074 474.029 740.898 473.891 740.749 473.784C741.314 473.293 741.842 472.712 742.333 472.04C742.834 471.368 743.282 470.632 743.677 469.832C744.082 469.032 744.418 468.216 744.685 467.384ZM757.917 481V469.144H760.285V474.296H760.333L764.253 469.144H766.861L763.245 473.816L767.501 481H764.909L761.837 475.672L760.285 477.672V481H757.917ZM768.886 481V469.144H771.254V473.832H775.734V469.144H778.086V481H775.734V475.88H771.254V481H768.886ZM790.739 472.872H794.915V474.44H790.739V472.872ZM783.107 473.992H788.451V475.384H784.403V482.216H783.107V473.992ZM785.347 470.76H786.947V474.888H785.347V470.76ZM787.939 473.992H789.315V480.632C789.315 480.963 789.278 481.229 789.203 481.432C789.128 481.645 788.979 481.816 788.755 481.944C788.531 482.051 788.254 482.115 787.923 482.136C787.592 482.168 787.192 482.179 786.723 482.168C786.702 481.976 786.648 481.752 786.563 481.496C786.488 481.24 786.408 481.016 786.323 480.824C786.622 480.835 786.899 480.84 787.155 480.84C787.422 480.84 787.603 480.835 787.699 480.824C787.859 480.824 787.939 480.749 787.939 480.6V473.992ZM785.331 476.12H787.363V479.896H785.331V478.712H786.547V477.304H785.331V476.12ZM784.931 476.12H785.731V480.392H784.931V476.12ZM790.499 470.712L792.147 471.016C791.934 472.179 791.635 473.299 791.251 474.376C790.878 475.453 790.43 476.36 789.907 477.096C789.822 476.989 789.704 476.867 789.555 476.728C789.406 476.579 789.246 476.435 789.075 476.296C788.915 476.147 788.771 476.029 788.643 475.944C789.123 475.325 789.512 474.552 789.811 473.624C790.12 472.685 790.35 471.715 790.499 470.712ZM782.787 471.672L783.955 471.128C784.2 471.437 784.43 471.784 784.643 472.168C784.856 472.552 785.006 472.888 785.091 473.176L783.843 473.784C783.768 473.496 783.63 473.155 783.427 472.76C783.235 472.355 783.022 471.992 782.787 471.672ZM791.203 474.12C791.406 475.133 791.678 476.099 792.019 477.016C792.36 477.923 792.792 478.728 793.315 479.432C793.838 480.125 794.462 480.68 795.187 481.096C795.006 481.245 794.803 481.453 794.579 481.72C794.366 481.987 794.195 482.232 794.067 482.456C793.299 481.944 792.643 481.288 792.099 480.488C791.566 479.677 791.123 478.755 790.771 477.72C790.43 476.675 790.158 475.555 789.955 474.36L791.203 474.12ZM788.035 471.112L789.491 471.576C789.256 471.971 789.016 472.371 788.771 472.776C788.526 473.171 788.296 473.512 788.083 473.8L786.899 473.368C787.027 473.165 787.16 472.936 787.299 472.68C787.448 472.413 787.587 472.141 787.715 471.864C787.854 471.587 787.96 471.336 788.035 471.112ZM782.163 468.824H794.867V470.424H782.163V468.824ZM781.011 468.824H782.755V473.672C782.755 474.301 782.734 474.995 782.691 475.752C782.659 476.509 782.595 477.288 782.499 478.088C782.403 478.877 782.259 479.645 782.067 480.392C781.886 481.128 781.651 481.8 781.363 482.408C781.267 482.291 781.128 482.157 780.947 482.008C780.766 481.869 780.579 481.731 780.387 481.592C780.206 481.464 780.046 481.368 779.907 481.304C780.174 480.76 780.376 480.168 780.515 479.528C780.664 478.877 780.771 478.211 780.835 477.528C780.91 476.845 780.958 476.179 780.979 475.528C781 474.867 781.011 474.248 781.011 473.672V468.824ZM792.803 473.672L794.451 473.848C794.323 474.723 794.142 475.581 793.907 476.424C793.683 477.267 793.39 478.072 793.027 478.84C792.664 479.608 792.211 480.307 791.667 480.936C791.134 481.565 790.483 482.099 789.715 482.536C789.608 482.365 789.459 482.152 789.267 481.896C789.086 481.64 788.92 481.443 788.771 481.304C789.464 480.92 790.046 480.451 790.515 479.896C790.995 479.341 791.39 478.728 791.699 478.056C792.008 477.373 792.248 476.659 792.419 475.912C792.6 475.165 792.728 474.419 792.803 473.672ZM786.867 467.768L788.579 467.128C788.75 467.352 788.91 467.608 789.059 467.896C789.219 468.184 789.336 468.435 789.411 468.648L787.603 469.384C787.55 469.171 787.454 468.909 787.315 468.6C787.176 468.28 787.027 468.003 786.867 467.768Z" fill="#FEFBF9"/>
<path d="M715.158 503.232C714.401 501.995 713.809 500.704 713.382 499.36C712.966 498.016 712.758 496.549 712.758 494.96C712.758 493.36 712.966 491.888 713.382 490.544C713.809 489.2 714.401 487.909 715.158 486.672L716.614 487.296C715.942 488.469 715.446 489.712 715.126 491.024C714.817 492.336 714.662 493.648 714.662 494.96C714.662 496.272 714.817 497.584 715.126 498.896C715.446 500.208 715.942 501.445 716.614 502.608L715.158 503.232ZM718.901 500V488.144H721.269V500H718.901ZM723.991 500V491.04H725.911L726.087 492.224H726.135C726.529 491.84 726.961 491.509 727.431 491.232C727.9 490.955 728.439 490.816 729.047 490.816C730.017 490.816 730.721 491.136 731.159 491.776C731.596 492.405 731.815 493.285 731.815 494.416V500H729.463V494.704C729.463 494.011 729.361 493.525 729.159 493.248C728.967 492.971 728.647 492.832 728.199 492.832C727.836 492.832 727.516 492.917 727.239 493.088C726.972 493.259 726.673 493.509 726.343 493.84V500H723.991ZM733.761 496.272V494.576H738.129V496.272H733.761ZM740.162 500V487.232H742.514V490.448L742.402 492.128C742.754 491.787 743.16 491.483 743.618 491.216C744.077 490.949 744.61 490.816 745.218 490.816C746.189 490.816 746.893 491.136 747.33 491.776C747.768 492.405 747.986 493.285 747.986 494.416V500H745.634V494.704C745.634 494.011 745.533 493.525 745.33 493.248C745.138 492.971 744.818 492.832 744.37 492.832C744.008 492.832 743.688 492.917 743.41 493.088C743.144 493.259 742.845 493.509 742.514 493.84V500H740.162ZM754.141 500.224C753.394 500.224 752.69 500.037 752.029 499.664C751.378 499.291 750.85 498.757 750.445 498.064C750.039 497.36 749.837 496.512 749.837 495.52C749.837 494.528 750.039 493.685 750.445 492.992C750.85 492.288 751.378 491.749 752.029 491.376C752.69 491.003 753.394 490.816 754.141 490.816C754.706 490.816 755.245 490.923 755.757 491.136C756.269 491.349 756.727 491.659 757.133 492.064C757.538 492.459 757.858 492.949 758.093 493.536C758.327 494.112 758.445 494.773 758.445 495.52C758.445 496.512 758.242 497.36 757.837 498.064C757.431 498.757 756.898 499.291 756.237 499.664C755.586 500.037 754.887 500.224 754.141 500.224ZM754.141 498.304C754.546 498.304 754.887 498.192 755.165 497.968C755.453 497.733 755.666 497.408 755.805 496.992C755.954 496.576 756.029 496.085 756.029 495.52C756.029 494.955 755.954 494.464 755.805 494.048C755.666 493.632 755.453 493.312 755.165 493.088C754.887 492.853 754.546 492.736 754.141 492.736C753.735 492.736 753.389 492.853 753.101 493.088C752.823 493.312 752.61 493.632 752.461 494.048C752.322 494.464 752.253 494.955 752.253 495.52C752.253 496.085 752.322 496.576 752.461 496.992C752.61 497.408 752.823 497.733 753.101 497.968C753.389 498.192 753.735 498.304 754.141 498.304ZM763.084 500.224C762.114 500.224 761.41 499.909 760.972 499.28C760.535 498.64 760.316 497.755 760.316 496.624V491.04H762.652V496.336C762.652 497.029 762.754 497.515 762.956 497.792C763.159 498.069 763.484 498.208 763.932 498.208C764.295 498.208 764.61 498.123 764.876 497.952C765.154 497.771 765.442 497.483 765.74 497.088V491.04H768.092V500H766.172L765.996 498.704H765.932C765.548 499.163 765.132 499.531 764.684 499.808C764.236 500.085 763.703 500.224 763.084 500.224ZM773.16 500.224C772.563 500.224 771.955 500.107 771.336 499.872C770.728 499.637 770.2 499.339 769.752 498.976L770.824 497.488C771.219 497.787 771.608 498.027 771.992 498.208C772.387 498.379 772.797 498.464 773.224 498.464C773.672 498.464 773.997 498.379 774.2 498.208C774.413 498.027 774.52 497.797 774.52 497.52C774.52 497.296 774.429 497.109 774.248 496.96C774.067 496.8 773.832 496.661 773.544 496.544C773.256 496.416 772.957 496.293 772.648 496.176C772.275 496.027 771.901 495.845 771.528 495.632C771.165 495.419 770.861 495.147 770.616 494.816C770.371 494.475 770.248 494.053 770.248 493.552C770.248 493.019 770.387 492.549 770.664 492.144C770.941 491.728 771.325 491.403 771.816 491.168C772.317 490.933 772.909 490.816 773.592 490.816C774.243 490.816 774.819 490.928 775.32 491.152C775.832 491.376 776.269 491.632 776.632 491.92L775.576 493.344C775.256 493.109 774.936 492.923 774.616 492.784C774.307 492.645 773.987 492.576 773.656 492.576C773.24 492.576 772.936 492.656 772.744 492.816C772.552 492.976 772.456 493.184 772.456 493.44C772.456 493.653 772.536 493.835 772.696 493.984C772.856 494.123 773.075 494.245 773.352 494.352C773.629 494.459 773.923 494.571 774.232 494.688C774.531 494.795 774.824 494.923 775.112 495.072C775.411 495.211 775.683 495.381 775.928 495.584C776.173 495.787 776.365 496.037 776.504 496.336C776.653 496.624 776.728 496.976 776.728 497.392C776.728 497.915 776.589 498.395 776.312 498.832C776.045 499.259 775.645 499.6 775.112 499.856C774.589 500.101 773.939 500.224 773.16 500.224ZM782.426 500.224C781.594 500.224 780.842 500.037 780.17 499.664C779.498 499.291 778.959 498.752 778.554 498.048C778.159 497.344 777.962 496.501 777.962 495.52C777.962 494.795 778.074 494.144 778.298 493.568C778.532 492.992 778.847 492.501 779.242 492.096C779.647 491.68 780.095 491.365 780.586 491.152C781.087 490.928 781.604 490.816 782.138 490.816C782.959 490.816 783.647 491.003 784.202 491.376C784.756 491.739 785.172 492.245 785.45 492.896C785.738 493.536 785.882 494.272 785.882 495.104C785.882 495.317 785.871 495.525 785.85 495.728C785.828 495.92 785.802 496.075 785.77 496.192H780.25C780.314 496.672 780.458 497.077 780.682 497.408C780.906 497.739 781.194 497.989 781.546 498.16C781.898 498.32 782.298 498.4 782.746 498.4C783.108 498.4 783.45 498.352 783.77 498.256C784.09 498.149 784.415 497.995 784.746 497.792L785.546 499.232C785.108 499.531 784.618 499.771 784.074 499.952C783.53 500.133 782.98 500.224 782.426 500.224ZM780.202 494.608H783.866C783.866 494.011 783.727 493.536 783.45 493.184C783.183 492.821 782.756 492.64 782.17 492.64C781.86 492.64 781.567 492.715 781.29 492.864C781.012 493.003 780.778 493.221 780.586 493.52C780.394 493.808 780.266 494.171 780.202 494.608ZM797.755 491.872H801.931V493.44H797.755V491.872ZM790.123 492.992H795.467V494.384H791.419V501.216H790.123V492.992ZM792.363 489.76H793.963V493.888H792.363V489.76ZM794.955 492.992H796.331V499.632C796.331 499.963 796.293 500.229 796.219 500.432C796.144 500.645 795.995 500.816 795.771 500.944C795.547 501.051 795.269 501.115 794.939 501.136C794.608 501.168 794.208 501.179 793.739 501.168C793.717 500.976 793.664 500.752 793.579 500.496C793.504 500.24 793.424 500.016 793.339 499.824C793.637 499.835 793.915 499.84 794.171 499.84C794.437 499.84 794.619 499.835 794.715 499.824C794.875 499.824 794.955 499.749 794.955 499.6V492.992ZM792.347 495.12H794.379V498.896H792.347V497.712H793.563V496.304H792.347V495.12ZM791.947 495.12H792.747V499.392H791.947V495.12ZM797.515 489.712L799.163 490.016C798.949 491.179 798.651 492.299 798.267 493.376C797.893 494.453 797.445 495.36 796.923 496.096C796.837 495.989 796.72 495.867 796.571 495.728C796.421 495.579 796.261 495.435 796.091 495.296C795.931 495.147 795.787 495.029 795.659 494.944C796.139 494.325 796.528 493.552 796.827 492.624C797.136 491.685 797.365 490.715 797.515 489.712ZM789.803 490.672L790.971 490.128C791.216 490.437 791.445 490.784 791.659 491.168C791.872 491.552 792.021 491.888 792.107 492.176L790.859 492.784C790.784 492.496 790.645 492.155 790.443 491.76C790.251 491.355 790.037 490.992 789.803 490.672ZM798.219 493.12C798.421 494.133 798.693 495.099 799.035 496.016C799.376 496.923 799.808 497.728 800.331 498.432C800.853 499.125 801.477 499.68 802.203 500.096C802.021 500.245 801.819 500.453 801.595 500.72C801.381 500.987 801.211 501.232 801.083 501.456C800.315 500.944 799.659 500.288 799.115 499.488C798.581 498.677 798.139 497.755 797.787 496.72C797.445 495.675 797.173 494.555 796.971 493.36L798.219 493.12ZM795.051 490.112L796.507 490.576C796.272 490.971 796.032 491.371 795.787 491.776C795.541 492.171 795.312 492.512 795.099 492.8L793.915 492.368C794.043 492.165 794.176 491.936 794.315 491.68C794.464 491.413 794.603 491.141 794.731 490.864C794.869 490.587 794.976 490.336 795.051 490.112ZM789.179 487.824H801.883V489.424H789.179V487.824ZM788.027 487.824H789.771V492.672C789.771 493.301 789.749 493.995 789.707 494.752C789.675 495.509 789.611 496.288 789.515 497.088C789.419 497.877 789.275 498.645 789.083 499.392C788.901 500.128 788.667 500.8 788.379 501.408C788.283 501.291 788.144 501.157 787.963 501.008C787.781 500.869 787.595 500.731 787.403 500.592C787.221 500.464 787.061 500.368 786.923 500.304C787.189 499.76 787.392 499.168 787.531 498.528C787.68 497.877 787.787 497.211 787.851 496.528C787.925 495.845 787.973 495.179 787.995 494.528C788.016 493.867 788.027 493.248 788.027 492.672V487.824ZM799.819 492.672L801.467 492.848C801.339 493.723 801.157 494.581 800.923 495.424C800.699 496.267 800.405 497.072 800.043 497.84C799.68 498.608 799.227 499.307 798.683 499.936C798.149 500.565 797.499 501.099 796.731 501.536C796.624 501.365 796.475 501.152 796.283 500.896C796.101 500.64 795.936 500.443 795.787 500.304C796.48 499.92 797.061 499.451 797.531 498.896C798.011 498.341 798.405 497.728 798.715 497.056C799.024 496.373 799.264 495.659 799.435 494.912C799.616 494.165 799.744 493.419 799.819 492.672ZM793.883 486.768L795.595 486.128C795.765 486.352 795.925 486.608 796.075 486.896C796.235 487.184 796.352 487.435 796.427 487.648L794.619 488.384C794.565 488.171 794.469 487.909 794.331 487.6C794.192 487.28 794.043 487.003 793.883 486.768ZM804.843 503.232L803.387 502.608C804.059 501.445 804.549 500.208 804.859 498.896C805.179 497.584 805.339 496.272 805.339 494.96C805.339 493.648 805.179 492.336 804.859 491.024C804.549 489.712 804.059 488.469 803.387 487.296L804.843 486.672C805.6 487.909 806.187 489.2 806.603 490.544C807.029 491.888 807.243 493.36 807.243 494.96C807.243 496.549 807.029 498.016 806.603 499.36C806.187 500.704 805.6 501.995 804.843 503.232Z" fill="#FEFBF9"/>
</g>
<g filter="url(#filter7_d_1497_16947)">
<rect x="492" y="463" width="112" height="40" rx="20" fill="#004EA2" shape-rendering="crispEdges"/>
<path d="M517.056 481.196H518.384V489.708H517.056V481.196ZM519.328 481.196H520.672V489.708H519.328V481.196ZM514.272 476.636H523.472V478.332H514.272V476.636ZM517.6 483.004H519.984V484.524H517.6V483.004ZM517.6 485.82H519.984V487.324H517.6V485.82ZM515.744 488.62H522.064V490.268H515.744V488.62ZM517.92 477.324H519.936C519.84 477.943 519.728 478.577 519.6 479.228C519.483 479.868 519.365 480.423 519.248 480.892H517.328C517.445 480.401 517.557 479.836 517.664 479.196C517.781 478.545 517.867 477.921 517.92 477.324ZM514.72 480.108H523.088V490.844H521.456V481.756H516.256V490.924H514.72V480.108ZM512.16 482.476L513.392 482.012C513.552 482.353 513.707 482.721 513.856 483.116C514.016 483.5 514.155 483.879 514.272 484.252C514.389 484.615 514.469 484.94 514.512 485.228L513.2 485.772C513.157 485.484 513.083 485.153 512.976 484.78C512.869 484.407 512.747 484.017 512.608 483.612C512.469 483.207 512.32 482.828 512.16 482.476ZM510.704 486.684L512 486.364C512.096 486.897 512.181 487.473 512.256 488.092C512.331 488.711 512.384 489.249 512.416 489.708L511.072 490.076C511.061 489.607 511.019 489.057 510.944 488.428C510.88 487.788 510.8 487.207 510.704 486.684ZM508.96 486.476L510.352 486.7C510.299 487.415 510.213 488.124 510.096 488.828C509.979 489.532 509.845 490.129 509.696 490.62C509.525 490.535 509.301 490.444 509.024 490.348C508.747 490.252 508.517 490.183 508.336 490.14C508.517 489.66 508.651 489.095 508.736 488.444C508.832 487.783 508.907 487.127 508.96 486.476ZM508.912 482.268C508.891 482.151 508.848 482.001 508.784 481.82C508.72 481.628 508.651 481.436 508.576 481.244C508.512 481.041 508.448 480.871 508.384 480.732C508.533 480.689 508.677 480.593 508.816 480.444C508.955 480.295 509.099 480.103 509.248 479.868C509.365 479.719 509.536 479.441 509.76 479.036C509.984 478.62 510.219 478.14 510.464 477.596C510.709 477.052 510.923 476.503 511.104 475.948L512.64 476.588C512.405 477.153 512.133 477.729 511.824 478.316C511.525 478.903 511.205 479.457 510.864 479.98C510.533 480.503 510.203 480.977 509.872 481.404V481.436C509.872 481.436 509.819 481.463 509.712 481.516C509.616 481.569 509.504 481.639 509.376 481.724C509.259 481.809 509.152 481.9 509.056 481.996C508.96 482.092 508.912 482.183 508.912 482.268ZM508.912 482.268L508.864 481.036L509.584 480.556L512.304 480.364C512.261 480.588 512.224 480.833 512.192 481.1C512.16 481.367 512.139 481.591 512.128 481.772C511.52 481.825 511.024 481.879 510.64 481.932C510.256 481.975 509.952 482.012 509.728 482.044C509.504 482.076 509.328 482.113 509.2 482.156C509.083 482.188 508.987 482.225 508.912 482.268ZM509.024 485.98C509.003 485.873 508.96 485.724 508.896 485.532C508.843 485.34 508.779 485.143 508.704 484.94C508.629 484.737 508.56 484.567 508.496 484.428C508.699 484.375 508.891 484.257 509.072 484.076C509.264 483.884 509.477 483.639 509.712 483.34C509.84 483.191 510.027 482.945 510.272 482.604C510.517 482.252 510.789 481.841 511.088 481.372C511.397 480.892 511.701 480.375 512 479.82C512.299 479.265 512.571 478.711 512.816 478.156L514.208 479.052C513.835 479.777 513.419 480.508 512.96 481.244C512.501 481.969 512.016 482.663 511.504 483.324C511.003 483.975 510.501 484.572 510 485.116V485.164C510 485.164 509.952 485.191 509.856 485.244C509.76 485.297 509.643 485.367 509.504 485.452C509.376 485.537 509.264 485.628 509.168 485.724C509.072 485.82 509.024 485.905 509.024 485.98ZM509.024 485.98L508.944 484.716L509.664 484.236L513.728 483.676C513.696 483.879 513.675 484.113 513.664 484.38C513.653 484.647 513.653 484.865 513.664 485.036C512.736 485.185 511.989 485.313 511.424 485.42C510.859 485.516 510.416 485.596 510.096 485.66C509.776 485.724 509.536 485.783 509.376 485.836C509.227 485.879 509.109 485.927 509.024 485.98ZM512.432 486.3L513.632 485.9C513.813 486.38 513.984 486.903 514.144 487.468C514.315 488.023 514.443 488.503 514.528 488.908L513.28 489.388C513.205 488.972 513.083 488.476 512.912 487.9C512.752 487.324 512.592 486.791 512.432 486.3ZM528.016 483.916H533.92V485.356H528.016V483.916ZM528.064 481.148H535.168V488.236H528.064V486.668H533.36V482.716H528.064V481.148ZM526.896 481.148H528.656V489.212H526.896V481.148ZM530.144 481.724H531.808V487.532H530.144V481.724ZM528.048 477.98H537.664V479.884H528.048V477.98ZM537.056 477.98H539.04C539.04 477.98 539.04 478.044 539.04 478.172C539.04 478.289 539.04 478.423 539.04 478.572C539.04 478.721 539.035 478.839 539.024 478.924C538.971 480.769 538.912 482.343 538.848 483.644C538.795 484.945 538.725 486.017 538.64 486.86C538.555 487.703 538.453 488.369 538.336 488.86C538.219 489.34 538.069 489.692 537.888 489.916C537.653 490.247 537.408 490.476 537.152 490.604C536.896 490.732 536.592 490.823 536.24 490.876C535.92 490.94 535.509 490.967 535.008 490.956C534.517 490.956 534.021 490.945 533.52 490.924C533.509 490.743 533.472 490.529 533.408 490.284C533.355 490.039 533.275 489.793 533.168 489.548C533.072 489.303 532.955 489.089 532.816 488.908C533.371 488.951 533.877 488.977 534.336 488.988C534.805 488.988 535.152 488.988 535.376 488.988C535.547 488.988 535.685 488.972 535.792 488.94C535.899 488.897 536 488.823 536.096 488.716C536.245 488.567 536.368 488.268 536.464 487.82C536.571 487.361 536.656 486.721 536.72 485.9C536.795 485.068 536.859 484.033 536.912 482.796C536.965 481.559 537.013 480.087 537.056 478.38V477.98ZM528.224 475.884L530.192 476.38C529.861 477.319 529.472 478.236 529.024 479.132C528.576 480.028 528.085 480.86 527.552 481.628C527.019 482.396 526.464 483.068 525.888 483.644C525.781 483.516 525.627 483.367 525.424 483.196C525.232 483.025 525.029 482.86 524.816 482.7C524.613 482.529 524.437 482.391 524.288 482.284C524.853 481.793 525.381 481.212 525.872 480.54C526.373 479.868 526.821 479.132 527.216 478.332C527.621 477.532 527.957 476.716 528.224 475.884ZM540.704 476.508H546.128V478.22H540.704V476.508ZM542.384 479.916H545.136V481.484H542.384V479.916ZM542.384 483.18H545.136V484.748H542.384V483.18ZM541.296 477.42H542.832V487.468H541.296V477.42ZM544.048 477.42H545.648V490.94H544.048V477.42ZM540.448 487.068C541.067 486.983 541.797 486.876 542.64 486.748C543.493 486.62 544.357 486.487 545.232 486.348L545.36 487.916C544.571 488.065 543.781 488.215 542.992 488.364C542.203 488.503 541.477 488.631 540.816 488.748L540.448 487.068ZM548.912 481.18L550.016 480.908C550.112 481.185 550.208 481.489 550.304 481.82C550.411 482.151 550.507 482.471 550.592 482.78C550.677 483.089 550.741 483.356 550.784 483.58L549.632 483.932C549.568 483.569 549.467 483.132 549.328 482.62C549.2 482.097 549.061 481.617 548.912 481.18ZM546.272 480.796C546.251 480.657 546.213 480.487 546.16 480.284C546.117 480.071 546.064 479.857 546 479.644C545.947 479.42 545.893 479.233 545.84 479.084C545.957 479.052 546.069 478.993 546.176 478.908C546.283 478.812 546.395 478.684 546.512 478.524C546.587 478.428 546.704 478.252 546.864 477.996C547.035 477.74 547.216 477.436 547.408 477.084C547.6 476.721 547.765 476.348 547.904 475.964L549.264 476.54C548.955 477.169 548.603 477.788 548.208 478.396C547.813 478.993 547.429 479.479 547.056 479.852V479.884C547.056 479.884 546.992 479.937 546.864 480.044C546.736 480.151 546.603 480.273 546.464 480.412C546.336 480.551 546.272 480.679 546.272 480.796ZM546.272 480.796L546.256 479.772L546.784 479.356L548.928 479.26C548.885 479.431 548.843 479.633 548.8 479.868C548.757 480.092 548.725 480.273 548.704 480.412C548.107 480.465 547.643 480.513 547.312 480.556C546.981 480.588 546.741 480.625 546.592 480.668C546.453 480.7 546.347 480.743 546.272 480.796ZM546.192 483.772C546.171 483.655 546.133 483.495 546.08 483.292C546.037 483.089 545.989 482.881 545.936 482.668C545.893 482.444 545.845 482.257 545.792 482.108C545.931 482.076 546.075 481.996 546.224 481.868C546.384 481.74 546.549 481.575 546.72 481.372C546.848 481.233 547.051 480.988 547.328 480.636C547.605 480.284 547.904 479.868 548.224 479.388C548.544 478.897 548.837 478.391 549.104 477.868L550.368 478.54C549.856 479.372 549.307 480.172 548.72 480.94C548.133 481.708 547.557 482.353 546.992 482.876V482.924C546.992 482.924 546.923 482.972 546.784 483.068C546.656 483.153 546.523 483.265 546.384 483.404C546.256 483.532 546.192 483.655 546.192 483.772ZM546.192 483.772L546.176 482.684L546.72 482.252L550.064 481.932C550.064 482.124 550.075 482.332 550.096 482.556C550.128 482.78 550.149 482.967 550.16 483.116C549.36 483.212 548.715 483.292 548.224 483.356C547.733 483.42 547.349 483.479 547.072 483.532C546.805 483.575 546.608 483.617 546.48 483.66C546.352 483.692 546.256 483.729 546.192 483.772ZM553.68 481.1L554.736 480.748C554.907 481.164 555.088 481.628 555.28 482.14C555.472 482.641 555.611 483.063 555.696 483.404L554.576 483.852C554.491 483.489 554.357 483.047 554.176 482.524C554.005 482.001 553.84 481.527 553.68 481.1ZM550.848 480.7C550.816 480.583 550.779 480.428 550.736 480.236C550.693 480.033 550.645 479.831 550.592 479.628C550.539 479.425 550.485 479.255 550.432 479.116C550.656 479.073 550.875 478.903 551.088 478.604C551.163 478.508 551.285 478.332 551.456 478.076C551.627 477.82 551.808 477.521 552 477.18C552.192 476.828 552.357 476.465 552.496 476.092L553.712 476.732C553.413 477.319 553.077 477.889 552.704 478.444C552.341 478.988 551.989 479.436 551.648 479.788V479.836C551.648 479.836 551.579 479.884 551.44 479.98C551.312 480.076 551.179 480.188 551.04 480.316C550.912 480.444 550.848 480.572 550.848 480.7ZM550.848 480.7L550.832 479.66L551.36 479.26L553.472 479.164C553.429 479.335 553.387 479.532 553.344 479.756C553.301 479.98 553.275 480.167 553.264 480.316C552.656 480.369 552.187 480.417 551.856 480.46C551.536 480.492 551.307 480.529 551.168 480.572C551.029 480.604 550.923 480.647 550.848 480.7ZM551.072 483.788C551.051 483.66 551.019 483.5 550.976 483.308C550.933 483.116 550.885 482.919 550.832 482.716C550.779 482.503 550.725 482.321 550.672 482.172C550.811 482.14 550.949 482.06 551.088 481.932C551.237 481.804 551.392 481.633 551.552 481.42C551.669 481.281 551.845 481.031 552.08 480.668C552.325 480.305 552.592 479.879 552.88 479.388C553.168 478.887 553.424 478.375 553.648 477.852L554.88 478.508C554.453 479.34 553.984 480.145 553.472 480.924C552.971 481.692 552.469 482.348 551.968 482.892V482.908C551.968 482.908 551.925 482.935 551.84 482.988C551.755 483.041 551.648 483.116 551.52 483.212C551.403 483.297 551.296 483.393 551.2 483.5C551.115 483.596 551.072 483.692 551.072 483.788ZM551.072 483.788L551.04 482.684L551.584 482.236L554.912 481.788C554.923 481.969 554.939 482.172 554.96 482.396C554.981 482.62 555.008 482.801 555.04 482.94C554.229 483.068 553.579 483.18 553.088 483.276C552.597 483.361 552.219 483.436 551.952 483.5C551.685 483.553 551.488 483.607 551.36 483.66C551.243 483.703 551.147 483.745 551.072 483.788ZM548.704 483.948H550.304V486.348C550.304 486.903 550.224 487.468 550.064 488.044C549.915 488.62 549.621 489.164 549.184 489.676C548.757 490.199 548.133 490.647 547.312 491.02C547.259 490.892 547.168 490.743 547.04 490.572C546.912 490.401 546.784 490.231 546.656 490.06C546.528 489.9 546.411 489.783 546.304 489.708C547.019 489.409 547.547 489.073 547.888 488.7C548.229 488.327 548.448 487.937 548.544 487.532C548.651 487.116 548.704 486.711 548.704 486.316V483.948ZM546.832 486.268H549.744V487.868H546.832V486.268ZM550.96 483.948H552.608V490.94H550.96V483.948ZM546.416 483.964H547.952V487.868H546.416V483.964ZM553.392 484.06H554.944V488.412H553.392V484.06ZM551.872 486.22H554.288V487.868H551.872V486.22ZM563.216 479.02L564.448 477.996C564.928 478.156 565.451 478.353 566.016 478.588C566.592 478.823 567.147 479.063 567.68 479.308C568.213 479.543 568.656 479.772 569.008 479.996L567.696 481.132C567.376 480.929 566.955 480.7 566.432 480.444C565.92 480.188 565.381 479.937 564.816 479.692C564.251 479.436 563.717 479.212 563.216 479.02ZM561.728 479.916H569.776V481.308H563.424V488.204H561.728V479.916ZM569.088 479.916H570.816V486.604C570.816 486.977 570.773 487.271 570.688 487.484C570.603 487.687 570.432 487.852 570.176 487.98C569.941 488.097 569.648 488.167 569.296 488.188C568.955 488.209 568.544 488.22 568.064 488.22C568.043 488.007 567.984 487.767 567.888 487.5C567.803 487.233 567.712 486.999 567.616 486.796C567.872 486.807 568.117 486.812 568.352 486.812C568.597 486.812 568.763 486.812 568.848 486.812C568.944 486.812 569.008 486.796 569.04 486.764C569.072 486.732 569.088 486.673 569.088 486.588V479.916ZM561.92 476.444H569.536V477.852H561.92V476.444ZM562.768 482.172H569.648V483.516H562.768V482.172ZM562.768 484.412H569.648V485.804H562.768V484.412ZM565.392 480.572H567.024V488.14H565.392V480.572ZM568.848 476.444H569.296L569.664 476.348L570.8 477.26C570.427 477.612 570.005 477.969 569.536 478.332C569.077 478.695 568.597 479.036 568.096 479.356C567.595 479.665 567.099 479.937 566.608 480.172C566.501 480.012 566.347 479.825 566.144 479.612C565.952 479.399 565.792 479.228 565.664 479.1C566.069 478.908 566.475 478.679 566.88 478.412C567.296 478.135 567.675 477.852 568.016 477.564C568.368 477.276 568.645 477.015 568.848 476.78V476.444ZM557.088 476.78L558.512 475.9C558.768 476.156 559.029 476.428 559.296 476.716C559.563 477.004 559.813 477.287 560.048 477.564C560.293 477.841 560.491 478.092 560.64 478.316L559.184 479.372C559.045 479.137 558.853 478.871 558.608 478.572C558.373 478.273 558.123 477.969 557.856 477.66C557.589 477.34 557.333 477.047 557.088 476.78ZM556.688 479.644H560.08V481.164H556.688V479.644ZM559.936 486.588C560.224 487.303 560.619 487.836 561.12 488.188C561.632 488.529 562.256 488.753 562.992 488.86C563.739 488.956 564.597 489.009 565.568 489.02C566.133 489.02 566.779 489.009 567.504 488.988C568.229 488.967 568.96 488.935 569.696 488.892C570.443 488.849 571.12 488.801 571.728 488.748C571.643 488.876 571.557 489.047 571.472 489.26C571.387 489.473 571.312 489.692 571.248 489.916C571.195 490.14 571.147 490.343 571.104 490.524C570.56 490.556 569.973 490.583 569.344 490.604C568.725 490.636 568.091 490.652 567.44 490.652C566.789 490.663 566.149 490.668 565.52 490.668C564.592 490.668 563.765 490.625 563.04 490.54C562.315 490.455 561.675 490.289 561.12 490.044C560.576 489.799 560.101 489.441 559.696 488.972C559.291 488.503 558.939 487.884 558.64 487.116L559.936 486.588ZM559.536 483.532H560L560.304 483.484L561.216 483.82C560.949 485.591 560.496 487.068 559.856 488.252C559.216 489.436 558.432 490.332 557.504 490.94C557.429 490.823 557.317 490.679 557.168 490.508C557.019 490.348 556.864 490.188 556.704 490.028C556.544 489.868 556.4 489.745 556.272 489.66C557.136 489.137 557.845 488.385 558.4 487.404C558.965 486.423 559.344 485.228 559.536 483.82V483.532ZM556.976 485.26V483.884L557.664 483.532H560.08L560.064 485.02H557.968C557.776 485.02 557.579 485.041 557.376 485.084C557.184 485.127 557.051 485.185 556.976 485.26ZM556.976 485.26C556.944 485.121 556.891 484.956 556.816 484.764C556.741 484.561 556.661 484.364 556.576 484.172C556.491 483.969 556.421 483.815 556.368 483.708C556.496 483.676 556.629 483.623 556.768 483.548C556.907 483.473 557.051 483.356 557.2 483.196C557.317 483.079 557.483 482.881 557.696 482.604C557.909 482.327 558.139 482.017 558.384 481.676C558.64 481.324 558.88 480.983 559.104 480.652C559.339 480.321 559.525 480.044 559.664 479.82V479.756L560.144 479.564L561.312 480.092C561.131 480.359 560.912 480.679 560.656 481.052C560.4 481.415 560.128 481.788 559.84 482.172C559.563 482.556 559.285 482.929 559.008 483.292C558.741 483.655 558.496 483.964 558.272 484.22C558.272 484.22 558.208 484.252 558.08 484.316C557.952 484.38 557.797 484.471 557.616 484.588C557.445 484.695 557.296 484.807 557.168 484.924C557.04 485.041 556.976 485.153 556.976 485.26ZM583.2 481.372H587.376V482.94H583.2V481.372ZM575.568 482.492H580.912V483.884H576.864V490.716H575.568V482.492ZM577.808 479.26H579.408V483.388H577.808V479.26ZM580.4 482.492H581.776V489.132C581.776 489.463 581.739 489.729 581.664 489.932C581.589 490.145 581.44 490.316 581.216 490.444C580.992 490.551 580.715 490.615 580.384 490.636C580.053 490.668 579.653 490.679 579.184 490.668C579.163 490.476 579.109 490.252 579.024 489.996C578.949 489.74 578.869 489.516 578.784 489.324C579.083 489.335 579.36 489.34 579.616 489.34C579.883 489.34 580.064 489.335 580.16 489.324C580.32 489.324 580.4 489.249 580.4 489.1V482.492ZM577.792 484.62H579.824V488.396H577.792V487.212H579.008V485.804H577.792V484.62ZM577.392 484.62H578.192V488.892H577.392V484.62ZM582.96 479.212L584.608 479.516C584.395 480.679 584.096 481.799 583.712 482.876C583.339 483.953 582.891 484.86 582.368 485.596C582.283 485.489 582.165 485.367 582.016 485.228C581.867 485.079 581.707 484.935 581.536 484.796C581.376 484.647 581.232 484.529 581.104 484.444C581.584 483.825 581.973 483.052 582.272 482.124C582.581 481.185 582.811 480.215 582.96 479.212ZM575.248 480.172L576.416 479.628C576.661 479.937 576.891 480.284 577.104 480.668C577.317 481.052 577.467 481.388 577.552 481.676L576.304 482.284C576.229 481.996 576.091 481.655 575.888 481.26C575.696 480.855 575.483 480.492 575.248 480.172ZM583.664 482.62C583.867 483.633 584.139 484.599 584.48 485.516C584.821 486.423 585.253 487.228 585.776 487.932C586.299 488.625 586.923 489.18 587.648 489.596C587.467 489.745 587.264 489.953 587.04 490.22C586.827 490.487 586.656 490.732 586.528 490.956C585.76 490.444 585.104 489.788 584.56 488.988C584.027 488.177 583.584 487.255 583.232 486.22C582.891 485.175 582.619 484.055 582.416 482.86L583.664 482.62ZM580.496 479.612L581.952 480.076C581.717 480.471 581.477 480.871 581.232 481.276C580.987 481.671 580.757 482.012 580.544 482.3L579.36 481.868C579.488 481.665 579.621 481.436 579.76 481.18C579.909 480.913 580.048 480.641 580.176 480.364C580.315 480.087 580.421 479.836 580.496 479.612ZM574.624 477.324H587.328V478.924H574.624V477.324ZM573.472 477.324H575.216V482.172C575.216 482.801 575.195 483.495 575.152 484.252C575.12 485.009 575.056 485.788 574.96 486.588C574.864 487.377 574.72 488.145 574.528 488.892C574.347 489.628 574.112 490.3 573.824 490.908C573.728 490.791 573.589 490.657 573.408 490.508C573.227 490.369 573.04 490.231 572.848 490.092C572.667 489.964 572.507 489.868 572.368 489.804C572.635 489.26 572.837 488.668 572.976 488.028C573.125 487.377 573.232 486.711 573.296 486.028C573.371 485.345 573.419 484.679 573.44 484.028C573.461 483.367 573.472 482.748 573.472 482.172V477.324ZM585.264 482.172L586.912 482.348C586.784 483.223 586.603 484.081 586.368 484.924C586.144 485.767 585.851 486.572 585.488 487.34C585.125 488.108 584.672 488.807 584.128 489.436C583.595 490.065 582.944 490.599 582.176 491.036C582.069 490.865 581.92 490.652 581.728 490.396C581.547 490.14 581.381 489.943 581.232 489.804C581.925 489.42 582.507 488.951 582.976 488.396C583.456 487.841 583.851 487.228 584.16 486.556C584.469 485.873 584.709 485.159 584.88 484.412C585.061 483.665 585.189 482.919 585.264 482.172ZM579.328 476.268L581.04 475.628C581.211 475.852 581.371 476.108 581.52 476.396C581.68 476.684 581.797 476.935 581.872 477.148L580.064 477.884C580.011 477.671 579.915 477.409 579.776 477.1C579.637 476.78 579.488 476.503 579.328 476.268Z" fill="#FEFBF9"/>
</g>
</g>
<defs>
<filter id="filter0_d_1497_16947" x="659" y="391" width="116" height="60" filterUnits="userSpaceOnUse" color-interpolation-filters="sRGB">
<feFlood flood-opacity="0" result="BackgroundImageFix"/>
<feColorMatrix in="SourceAlpha" type="matrix" values="0 0 0 0 0 0 0 0 0 0 0 0 0 0 0 0 0 0 127 0" result="hardAlpha"/>
<feOffset dy="4"/>
<feGaussianBlur stdDeviation="5"/>
<feComposite in2="hardAlpha" operator="out"/>
<feColorMatrix type="matrix" values="0 0 0 0 0 0 0 0 0 0 0 0 0 0 0 0 0 0 0.2 0"/>
<feBlend mode="normal" in2="BackgroundImageFix" result="effect1_dropShadow_1497_16947"/>
<feBlend mode="normal" in="SourceGraphic" in2="effect1_dropShadow_1497_16947" result="shape"/>
</filter>
<filter id="filter1_dd_1497_16947" x="587.504" y="352" width="75.3301" height="92.0513" filterUnits="userSpaceOnUse" color-interpolation-filters="sRGB">
<feFlood flood-opacity="0" result="BackgroundImageFix"/>
<feColorMatrix in="SourceAlpha" type="matrix" values="0 0 0 0 0 0 0 0 0 0 0 0 0 0 0 0 0 0 127 0" result="hardAlpha"/>
<feOffset/>
<feGaussianBlur stdDeviation="8"/>
<feColorMatrix type="matrix" values="0 0 0 0 0.975962 0 0 0 0 0.830975 0 0 0 0 0.00938425 0 0 0 1 0"/>
<feBlend mode="normal" in2="BackgroundImageFix" result="effect1_dropShadow_1497_16947"/>
<feColorMatrix in="SourceAlpha" type="matrix" values="0 0 0 0 0 0 0 0 0 0 0 0 0 0 0 0 0 0 127 0" result="hardAlpha"/>
<feOffset/>
<feGaussianBlur stdDeviation="4"/>
<feComposite in2="hardAlpha" operator="out"/>
<feColorMatrix type="matrix" values="0 0 0 0 1 0 0 0 0 1 0 0 0 0 1 0 0 0 1 0"/>
<feBlend mode="normal" in2="effect1_dropShadow_1497_16947" result="effect2_dropShadow_1497_16947"/>
<feBlend mode="normal" in="SourceGraphic" in2="effect2_dropShadow_1497_16947" result="shape"/>
</filter>
<filter id="filter2_dd_1497_16947" x="619.504" y="391" width="75.4961" height="92.5608" filterUnits="userSpaceOnUse" color-interpolation-filters="sRGB">
<feFlood flood-opacity="0" result="BackgroundImageFix"/>
<feColorMatrix in="SourceAlpha" type="matrix" values="0 0 0 0 0 0 0 0 0 0 0 0 0 0 0 0 0 0 127 0" result="hardAlpha"/>
<feOffset/>
<feGaussianBlur stdDeviation="8"/>
<feColorMatrix type="matrix" values="0 0 0 0 0.975962 0 0 0 0 0.830975 0 0 0 0 0.00938425 0 0 0 1 0"/>
<feBlend mode="normal" in2="BackgroundImageFix" result="effect1_dropShadow_1497_16947"/>
<feColorMatrix in="SourceAlpha" type="matrix" values="0 0 0 0 0 0 0 0 0 0 0 0 0 0 0 0 0 0 127 0" result="hardAlpha"/>
<feOffset/>
<feGaussianBlur stdDeviation="4"/>
<feComposite in2="hardAlpha" operator="out"/>
<feColorMatrix type="matrix" values="0 0 0 0 1 0 0 0 0 1 0 0 0 0 1 0 0 0 1 0"/>
<feBlend mode="normal" in2="effect1_dropShadow_1497_16947" result="effect2_dropShadow_1497_16947"/>
<feBlend mode="normal" in="SourceGraphic" in2="effect2_dropShadow_1497_16947" result="shape"/>
</filter>
<filter id="filter3_dd_1497_16947" x="594.504" y="440" width="75.4961" height="92.5608" filterUnits="userSpaceOnUse" color-interpolation-filters="sRGB">
<feFlood flood-opacity="0" result="BackgroundImageFix"/>
<feColorMatrix in="SourceAlpha" type="matrix" values="0 0 0 0 0 0 0 0 0 0 0 0 0 0 0 0 0 0 127 0" result="hardAlpha"/>
<feOffset/>
<feGaussianBlur stdDeviation="8"/>
<feColorMatrix type="matrix" values="0 0 0 0 0.975962 0 0 0 0 0.830975 0 0 0 0 0.00938425 0 0 0 1 0"/>
<feBlend mode="normal" in2="BackgroundImageFix" result="effect1_dropShadow_1497_16947"/>
<feColorMatrix in="SourceAlpha" type="matrix" values="0 0 0 0 0 0 0 0 0 0 0 0 0 0 0 0 0 0 127 0" result="hardAlpha"/>
<feOffset/>
<feGaussianBlur stdDeviation="4"/>
<feComposite in2="hardAlpha" operator="out"/>
<feColorMatrix type="matrix" values="0 0 0 0 1 0 0 0 0 1 0 0 0 0 1 0 0 0 1 0"/>
<feBlend mode="normal" in2="effect1_dropShadow_1497_16947" result="effect2_dropShadow_1497_16947"/>
<feBlend mode="normal" in="SourceGraphic" in2="effect2_dropShadow_1497_16947" result="shape"/>
</filter>
<filter id="filter4_dd_1497_16947" x="643.504" y="417" width="75.3301" height="92.0513" filterUnits="userSpaceOnUse" color-interpolation-filters="sRGB">
<feFlood flood-opacity="0" result="BackgroundImageFix"/>
<feColorMatrix in="SourceAlpha" type="matrix" values="0 0 0 0 0 0 0 0 0 0 0 0 0 0 0 0 0 0 127 0" result="hardAlpha"/>
<feOffset/>
<feGaussianBlur stdDeviation="8"/>
<feColorMatrix type="matrix" values="0 0 0 0 0.975962 0 0 0 0 0.830975 0 0 0 0 0.00938425 0 0 0 1 0"/>
<feBlend mode="normal" in2="BackgroundImageFix" result="effect1_dropShadow_1497_16947"/>
<feColorMatrix in="SourceAlpha" type="matrix" values="0 0 0 0 0 0 0 0 0 0 0 0 0 0 0 0 0 0 127 0" result="hardAlpha"/>
<feOffset/>
<feGaussianBlur stdDeviation="4"/>
<feComposite in2="hardAlpha" operator="out"/>
<feColorMatrix type="matrix" values="0 0 0 0 1 0 0 0 0 1 0 0 0 0 1 0 0 0 1 0"/>
<feBlend mode="normal" in2="effect1_dropShadow_1497_16947" result="effect2_dropShadow_1497_16947"/>
<feBlend mode="normal" in="SourceGraphic" in2="effect2_dropShadow_1497_16947" result="shape"/>
</filter>
<filter id="filter5_d_1497_16947" x="471" y="364" width="132" height="60" filterUnits="userSpaceOnUse" color-interpolation-filters="sRGB">
<feFlood flood-opacity="0" result="BackgroundImageFix"/>
<feColorMatrix in="SourceAlpha" type="matrix" values="0 0 0 0 0 0 0 0 0 0 0 0 0 0 0 0 0 0 127 0" result="hardAlpha"/>
<feOffset dy="4"/>
<feGaussianBlur stdDeviation="5"/>
<feComposite in2="hardAlpha" operator="out"/>
<feColorMatrix type="matrix" values="0 0 0 0 0 0 0 0 0 0 0 0 0 0 0 0 0 0 0.2 0"/>
<feBlend mode="normal" in2="BackgroundImageFix" result="effect1_dropShadow_1497_16947"/>
<feBlend mode="normal" in="SourceGraphic" in2="effect1_dropShadow_1497_16947" result="shape"/>
</filter>
<filter id="filter6_d_1497_16947" x="685" y="448" width="150" height="80" filterUnits="userSpaceOnUse" color-interpolation-filters="sRGB">
<feFlood flood-opacity="0" result="BackgroundImageFix"/>
<feColorMatrix in="SourceAlpha" type="matrix" values="0 0 0 0 0 0 0 0 0 0 0 0 0 0 0 0 0 0 127 0" result="hardAlpha"/>
<feOffset dy="4"/>
<feGaussianBlur stdDeviation="5"/>
<feComposite in2="hardAlpha" operator="out"/>
<feColorMatrix type="matrix" values="0 0 0 0 0 0 0 0 0 0 0 0 0 0 0 0 0 0 0.2 0"/>
<feBlend mode="normal" in2="BackgroundImageFix" result="effect1_dropShadow_1497_16947"/>
<feBlend mode="normal" in="SourceGraphic" in2="effect1_dropShadow_1497_16947" result="shape"/>
</filter>
<filter id="filter7_d_1497_16947" x="482" y="457" width="132" height="60" filterUnits="userSpaceOnUse" color-interpolation-filters="sRGB">
<feFlood flood-opacity="0" result="BackgroundImageFix"/>
<feColorMatrix in="SourceAlpha" type="matrix" values="0 0 0 0 0 0 0 0 0 0 0 0 0 0 0 0 0 0 127 0" result="hardAlpha"/>
<feOffset dy="4"/>
<feGaussianBlur stdDeviation="5"/>
<feComposite in2="hardAlpha" operator="out"/>
<feColorMatrix type="matrix" values="0 0 0 0 0 0 0 0 0 0 0 0 0 0 0 0 0 0 0.2 0"/>
<feBlend mode="normal" in2="BackgroundImageFix" result="effect1_dropShadow_1497_16947"/>
<feBlend mode="normal" in="SourceGraphic" in2="effect1_dropShadow_1497_16947" result="shape"/>
</filter>
<clipPath id="clip0_1497_16947">
<rect width="1531" height="806" fill="white"/>
</clipPath>
</defs>
</svg>
