<svg width="35" height="32" viewBox="0 0 35 32" fill="none" xmlns="http://www.w3.org/2000/svg">
<path d="M10.2041 3.68066C10.8512 3.73776 11.4624 4.01465 11.9346 4.46875H11.9355C13.0472 5.53833 13.0585 7.24157 12.1475 8.3584L11.9531 8.57324L11.248 9.27734L23.9795 9.28711H23.9785C29.2305 9.28716 33.5 13.5573 33.5 18.8086C33.4999 24.0599 29.2305 28.33 23.9785 28.3301H10.8594C10.101 28.33 9.3732 28.0285 8.83691 27.4922C8.36784 27.023 8.07868 26.4074 8.01367 25.7529L8 25.4697L8.01367 25.1875C8.07867 24.533 8.36784 23.9175 8.83691 23.4482L9.04688 23.2578C9.55574 22.8409 10.1957 22.6104 10.8594 22.6104H23.9941C24.4966 22.6155 24.9952 22.5207 25.4609 22.332C25.9267 22.1433 26.3508 21.8643 26.708 21.5107C27.0652 21.1572 27.3485 20.7363 27.542 20.2725C27.7355 19.8087 27.8359 19.3111 27.8359 18.8086C27.8359 18.3061 27.7355 17.8085 27.542 17.3447C27.3485 16.881 27.0652 16.4599 26.708 16.1064C26.3508 15.753 25.9267 15.4738 25.4609 15.2852C24.9953 15.0965 24.4965 15.0016 23.9941 15.0068H23.9775L11.2539 14.998L11.9863 15.7305C12.5154 16.2683 12.8107 16.9936 12.8076 17.748C12.8044 18.5021 12.5028 19.2235 11.9697 19.7568L11.9707 19.7578C11.4373 20.2912 10.7143 20.5925 9.95996 20.5957C9.20551 20.5988 8.48019 20.3035 7.94238 19.7744L7.93359 19.7666L2.34961 14.1846C2.08032 13.9155 1.86646 13.5958 1.7207 13.2441C1.57503 12.8926 1.5 12.5153 1.5 12.1348C1.50005 11.7542 1.57499 11.3769 1.7207 11.0254L1.84277 10.7686C1.97696 10.5177 2.14766 10.2877 2.34961 10.0859L7.92969 4.50879C8.45917 3.97914 9.17592 3.67727 9.9248 3.66992L10.2041 3.68066Z" fill="white" stroke="black" stroke-width="3"/>
</svg>
