<svg width="32" height="32" viewBox="0 0 32 32" fill="none" xmlns="http://www.w3.org/2000/svg">
<path d="M16.0013 29.3334C23.3651 29.3334 29.3346 23.3639 29.3346 16.0001C29.3346 8.63628 23.3651 2.66675 16.0013 2.66675C8.63751 2.66675 2.66797 8.63628 2.66797 16.0001C2.66797 23.3639 8.63751 29.3334 16.0013 29.3334Z" fill="white"/>
<path d="M16.0013 21.3334V16.0001M16.0013 10.6667H16.0146M29.3346 16.0001C29.3346 23.3639 23.3651 29.3334 16.0013 29.3334C8.63751 29.3334 2.66797 23.3639 2.66797 16.0001C2.66797 8.63628 8.63751 2.66675 16.0013 2.66675C23.3651 2.66675 29.3346 8.63628 29.3346 16.0001Z" stroke="black" stroke-width="3" stroke-linecap="round" stroke-linejoin="round"/>
</svg>
