<svg width="39" height="39" viewBox="0 0 39 39" fill="none" xmlns="http://www.w3.org/2000/svg">
<rect x="17.5" y="17.5" width="20" height="20" rx="3" fill="white"/>
<rect x="17.5" y="17.5" width="20" height="20" rx="3" stroke="black" stroke-width="3" stroke-linejoin="round"/>
<path d="M20.5352 33.7499L25.3607 20.5356H28.9239L33.7494 33.7499H30.5731L28.4352 26.8664C28.2045 26.1768 27.9805 25.4635 27.7633 24.7264C27.5597 23.9774 27.3425 23.2522 27.1118 22.5508H27.0303C26.8403 23.2641 26.6299 23.9893 26.3991 24.7264C26.1819 25.4635 25.9648 26.1768 25.7476 26.8664L23.5893 33.7499H20.5352ZM23.5282 30.3617V28.3109H30.6953V30.3617H23.5282Z" fill="black" stroke="black" stroke-width="0.5" stroke-linejoin="round"/>
<rect x="1.5" y="1.5" width="20" height="20" rx="3" fill="white"/>
<rect x="1.5" y="1.5" width="20" height="20" rx="3" stroke="black" stroke-width="3" stroke-linejoin="round"/>
<path d="M11.5615 4.26074C11.6712 4.22797 11.79 4.27373 11.8486 4.37207C12.0478 4.7061 12.2357 5.07664 12.4141 5.48242L12.5459 5.77734C12.6685 6.0634 12.7632 6.32135 12.8291 6.5498C12.8488 6.61837 12.8374 6.68798 12.8037 6.74512H17.4512C17.5892 6.74515 17.7012 6.85707 17.7012 6.99512V8.62598C17.7012 8.76403 17.5892 8.87594 17.4512 8.87598H15.501C14.9667 10.362 14.2906 11.667 13.4697 12.7881L13.4688 12.7891C13.2589 13.0735 13.0375 13.346 12.8076 13.6094C13.0562 13.7944 13.3127 13.9734 13.5801 14.1426L14.04 14.4131C15.1339 15.0242 16.3767 15.4909 17.7705 15.8115C17.8589 15.8319 17.9289 15.8992 17.9541 15.9863C17.9792 16.0734 17.9555 16.1671 17.8916 16.2314C17.7822 16.3415 17.6572 16.4839 17.5166 16.6602L17.1191 17.2393C16.9923 17.4307 16.8896 17.5968 16.8105 17.7383C16.7547 17.8382 16.6379 17.888 16.5273 17.8584C14.8058 17.397 13.3064 16.7357 12.0332 15.8721H12.0322C11.7225 15.6604 11.4247 15.4363 11.1377 15.2012C10.8122 15.4588 10.4737 15.7028 10.1201 15.9307C8.81367 16.7724 7.30034 17.4466 5.58203 17.9541C5.45813 17.9907 5.3271 17.9266 5.2793 17.8066C5.23125 17.6858 5.15106 17.5322 5.03516 17.3438C4.91811 17.1535 4.79173 16.9624 4.65625 16.7715L4.65137 16.7656L4.86035 16.627L4.65137 16.7646C4.52589 16.5753 4.41191 16.4209 4.30957 16.3008C4.25367 16.2349 4.2353 16.1448 4.26172 16.0625C4.2882 15.9802 4.35558 15.9174 4.43945 15.8965C6.06414 15.4923 7.46734 14.9382 8.65234 14.2373C8.96437 14.0527 9.26213 13.8539 9.54688 13.6436C9.2891 13.3425 9.04339 13.0288 8.81152 12.7012C8.01176 11.571 7.33463 10.2951 6.77637 8.87598H4.7627C4.62485 8.87572 4.5127 8.76389 4.5127 8.62598V6.99512C4.5127 6.85721 4.62485 6.74538 4.7627 6.74512H10.3066C10.256 6.59795 10.1976 6.43806 10.1279 6.2666L10.125 6.26074C9.97084 5.85009 9.80825 5.47781 9.6377 5.14355C9.604 5.07752 9.60175 4.99982 9.63086 4.93164C9.66005 4.86342 9.71796 4.81128 9.78906 4.79004L11.5615 4.26074ZM9.05176 8.87598C9.46269 9.78456 9.96395 10.6267 10.5576 11.4014C10.7514 11.6542 10.9564 11.8975 11.1709 12.1328C11.3231 11.9554 11.4723 11.7749 11.6123 11.5859L11.6133 11.584C12.1999 10.8013 12.6934 9.89906 13.0947 8.87598H9.05176Z" fill="black" stroke="black" stroke-width="0.5" stroke-linejoin="round"/>
</svg>
