<svg width="32" height="32" viewBox="0 0 32 32" fill="none" xmlns="http://www.w3.org/2000/svg">
<g clip-path="url(#clip0_1649_6680)">
<path d="M30.0528 8.55992C29.8944 7.92713 29.5718 7.34735 29.1177 6.87913C28.6635 6.41091 28.0938 6.07083 27.4661 5.89325C25.1728 5.33325 15.9995 5.33325 15.9995 5.33325C15.9995 5.33325 6.82613 5.33325 4.53279 5.94659C3.90512 6.12416 3.33543 6.46424 2.88126 6.93246C2.42708 7.40068 2.10451 7.98047 1.94613 8.61325C1.52641 10.9407 1.32111 13.3017 1.33279 15.6666C1.31783 18.0493 1.52315 20.4283 1.94613 22.7733C2.12074 23.3864 2.45054 23.9441 2.90365 24.3926C3.35677 24.841 3.91789 25.165 4.53279 25.3333C6.82613 25.9466 15.9995 25.9466 15.9995 25.9466C15.9995 25.9466 25.1728 25.9466 27.4661 25.3333C28.0938 25.1557 28.6635 24.8156 29.1177 24.3474C29.5718 23.8792 29.8944 23.2994 30.0528 22.6666C30.4693 20.3567 30.6746 18.0137 30.6661 15.6666C30.6811 13.2839 30.4758 10.9049 30.0528 8.55992Z" fill="white"/>
<path d="M12.9995 20.0266L20.6661 15.6666L12.9995 11.3066V20.0266Z" fill="white"/>
<path d="M30.0528 8.55992C29.8944 7.92713 29.5718 7.34735 29.1177 6.87913C28.6635 6.41091 28.0938 6.07083 27.4661 5.89325C25.1728 5.33325 15.9995 5.33325 15.9995 5.33325C15.9995 5.33325 6.82613 5.33325 4.53279 5.94659C3.90512 6.12416 3.33543 6.46424 2.88126 6.93246C2.42708 7.40068 2.10451 7.98047 1.94613 8.61325C1.52641 10.9407 1.32111 13.3017 1.33279 15.6666C1.31783 18.0493 1.52315 20.4283 1.94613 22.7733C2.12074 23.3864 2.45054 23.9441 2.90365 24.3926C3.35677 24.841 3.91789 25.165 4.53279 25.3333C6.82613 25.9466 15.9995 25.9466 15.9995 25.9466C15.9995 25.9466 25.1728 25.9466 27.4661 25.3333C28.0938 25.1557 28.6635 24.8156 29.1177 24.3474C29.5718 23.8792 29.8944 23.2994 30.0528 22.6666C30.4693 20.3567 30.6746 18.0137 30.6661 15.6666C30.6811 13.2839 30.4758 10.9049 30.0528 8.55992Z" stroke="black" stroke-width="3" stroke-linecap="round" stroke-linejoin="round"/>
<path d="M12.9995 20.0266L20.6661 15.6666L12.9995 11.3066V20.0266Z" stroke="black" stroke-width="3" stroke-linecap="round" stroke-linejoin="round"/>
</g>
<defs>
<clipPath id="clip0_1649_6680">
<rect width="32" height="32" fill="white"/>
</clipPath>
</defs>
</svg>
