<svg width="35" height="32" viewBox="0 0 35 32" fill="none" xmlns="http://www.w3.org/2000/svg">
<path d="M30.5 10.5L30.6533 10.5078C31.4097 10.5846 32 11.2233 32 12V28C32 28.8284 31.3284 29.5 30.5 29.5H26.5C25.6716 29.5 25 28.8284 25 28V12C25 11.1716 25.6716 10.5 26.5 10.5H30.5Z" fill="white" stroke="black" stroke-width="3" stroke-linejoin="round"/>
<path d="M19.5 2.5L19.6533 2.50781C20.4097 2.58461 21 3.22334 21 4V28C21 28.8284 20.3284 29.5 19.5 29.5H15.5C14.6716 29.5 14 28.8284 14 28V4C14 3.17157 14.6716 2.5 15.5 2.5H19.5Z" fill="white" stroke="black" stroke-width="3" stroke-linejoin="round"/>
<path d="M8.5 16.5L8.65332 16.5078C9.40972 16.5846 10 17.2233 10 18V28C10 28.8284 9.32843 29.5 8.5 29.5H4.5C3.67157 29.5 3 28.8284 3 28V18C3 17.1716 3.67157 16.5 4.5 16.5H8.5Z" fill="white" stroke="black" stroke-width="3" stroke-linejoin="round"/>
<path d="M1.5 30H33.5" stroke="black" stroke-width="3" stroke-linecap="round" stroke-linejoin="round"/>
</svg>
