<svg width="80" height="80" viewBox="0 0 80 80" fill="none" xmlns="http://www.w3.org/2000/svg">
<rect x="4" y="4" width="72" height="72" rx="36" fill="white"/>
<rect x="4" y="4" width="72" height="72" rx="36" stroke="white" stroke-width="8"/>
<mask id="mask0_1649_73" style="mask-type:luminance" maskUnits="userSpaceOnUse" x="19" y="14" width="42" height="52">
<path d="M60.7992 14.4H19.1992V65.6H60.7992V14.4Z" fill="white"/>
</mask>
<g mask="url(#mask0_1649_73)">
<mask id="mask1_1649_73" style="mask-type:luminance" maskUnits="userSpaceOnUse" x="19" y="14" width="42" height="52">
<path d="M60.7992 14.4H19.1992V65.6H60.7992V14.4Z" fill="white"/>
</mask>
<g mask="url(#mask1_1649_73)">
<path d="M19.457 57.6775H21.4418V31.302C20.7769 31.1143 20.112 30.897 19.457 30.6797V57.6775Z" fill="#2B74C6"/>
<path d="M34.3326 17.7089C29.2814 17.7089 24.2899 16.731 19.457 14.775V30.3237C19.8837 30.4817 20.3204 30.6003 20.7472 30.7287C23.0891 31.44 25.4608 31.9734 27.8723 32.3093V23.4582H28.7654L28.8845 23.4977C32.9929 25.2363 37.2601 26.1352 41.5769 26.1352C44.3853 26.1352 46.8365 25.75 48.8113 25.2758V14.8343C46.7075 15.7727 41.4081 17.7089 34.3226 17.7089H34.3326Z" fill="#2B74C6"/>
<path d="M29.0352 60.9574H30.7123V38.7506C30.1467 38.5926 29.5909 38.4246 29.0352 38.2172V60.9574Z" fill="#2B74C6"/>
<path d="M50.1925 26.116C49.9642 26.1851 49.7458 26.2444 49.4977 26.3136C49.2794 26.3629 49.0512 26.4222 48.8131 26.4815C46.8085 26.9359 44.3573 27.2816 41.5787 27.2816C37.3214 27.2816 33.1039 26.4617 29.0352 24.8219V37.9306C29.4321 38.0492 29.8192 38.1875 30.2161 38.2961C32.568 39.0074 34.9795 39.5013 37.4009 39.7581V31.7862H38.1947L38.2939 31.8257C38.8198 32.0431 39.3359 32.2406 39.8619 32.4382C40.3581 32.616 40.8443 32.7741 41.3504 32.9321C41.8863 33.0902 42.4123 33.2383 42.9481 33.3569C45.1512 33.8903 47.3939 34.1768 49.6466 34.1768C51.1451 34.1768 52.5245 34.0484 53.7649 33.8607V24.8713C53.0207 25.1874 51.7902 25.6714 50.1825 26.116H50.1925Z" fill="#2B74C6"/>
<path d="M38.4531 65.3531H39.9516V45.4875C39.4455 45.3492 38.9394 45.1911 38.4531 45.0133V65.3531Z" fill="#2B74C6"/>
<path d="M54.9444 34.7297C54.7559 34.7495 54.5575 34.7988 54.359 34.8186C54.1704 34.8581 53.972 34.8779 53.7735 34.9075C52.5231 35.0754 51.1437 35.2137 49.6552 35.2137C46.5689 35.2137 43.5124 34.7198 40.5253 33.7517C40.0292 33.5937 39.5331 33.4257 39.027 33.2282C38.8384 33.1491 38.63 33.0899 38.4414 33.0109V39.8566V40.4394V44.7168C38.7689 44.8353 39.0864 44.9144 39.4238 45.023C42.7483 46.0405 46.1819 46.5641 49.6353 46.5641C55.3116 46.5641 59.42 45.1613 60.5513 44.7366V33.0504C59.559 33.4949 57.5941 34.2358 54.9345 34.7396L54.9444 34.7297Z" fill="#2B74C6"/>
</g>
</g>
</svg>
