<svg width="80" height="80" viewBox="0 0 80 80" fill="none" xmlns="http://www.w3.org/2000/svg">
<rect x="4" y="4" width="72" height="72" rx="36" fill="white"/>
<rect x="4" y="4" width="72" height="72" rx="36" stroke="white" stroke-width="8"/>
<mask id="mask0_1649_519" style="mask-type:luminance" maskUnits="userSpaceOnUse" x="22" y="14" width="34" height="52">
<path d="M55.6484 14.7496V65.2496H22.748V14.7496H55.6484Z" fill="white" stroke="white" stroke-width="0.7" stroke-linecap="round" stroke-linejoin="round"/>
</mask>
<g mask="url(#mask0_1649_519)">
<mask id="mask1_1649_519" style="mask-type:luminance" maskUnits="userSpaceOnUse" x="22" y="14" width="34" height="52">
<path d="M55.6484 14.7496V65.2496H22.748V14.7496H55.6484Z" fill="white" stroke="white" stroke-width="0.7" stroke-linecap="round" stroke-linejoin="round"/>
</mask>
<g mask="url(#mask1_1649_519)">
<path d="M25.916 15.1858C26.5237 15.9241 27.2214 16.9553 27.792 18.0383C28.4521 19.2913 28.9121 20.5586 28.9121 21.5022C28.9121 23.4129 27.5368 24.8967 25.916 24.8967C24.2954 24.8965 22.9199 23.4128 22.9199 21.5022C22.9199 20.5597 23.3957 19.2735 24.0645 18.009C24.6388 16.9233 25.3316 15.8973 25.916 15.1858Z" stroke="#2B74C6" stroke-width="0.7" stroke-linecap="round" stroke-linejoin="round"/>
<path d="M35.1662 32.0005C35.1662 32.0005 35.3744 32.3564 35.5594 32.6813C35.7444 33.0062 36.2147 33.3621 36.7621 33.6716C40.7096 35.9229 44.0557 38.2206 45.644 39.2651C46.6617 39.9381 47.9184 41.6324 47.9184 41.6324L50.7866 46.5683C50.9253 46.8081 50.8327 47.0247 50.6169 47.2568C50.3933 47.5585 50.3779 47.6823 50.5475 47.9686C50.7171 48.2626 50.825 48.3013 51.1951 48.2471C51.4958 48.162 51.7272 48.1774 51.866 48.4173L53.5698 51.3417C53.7086 51.5815 53.6161 51.7982 53.4002 52.0302C53.1766 52.332 53.1612 52.4557 53.3308 52.742C53.5004 53.0282 53.6084 53.0746 53.9785 53.0127C54.2869 52.9276 54.5105 52.9431 54.6492 53.183L55.5435 54.7303L55.5512 54.7457C51.2028 60.6951 44.1174 63.8129 36.7159 65.1204L36.3304 64.4628C36.1839 64.2229 36.2764 64.0063 36.4923 63.7742C36.7236 63.4648 36.739 63.341 36.5694 63.0547C36.3997 62.7685 36.2918 62.7298 35.9218 62.7839C35.6134 62.869 35.3898 62.8536 35.251 62.6137L33.5471 59.6893C33.4083 59.4495 33.5008 59.2329 33.7167 59.0008C33.9403 58.6991 33.9557 58.5753 33.7861 58.289C33.6242 57.995 33.5163 57.9486 33.1385 58.0105C32.8378 58.0956 32.6065 58.0801 32.4677 57.8403L29.5996 52.9045C29.5996 52.9045 28.7438 50.9626 28.6512 49.7247C28.5125 47.7906 28.127 43.6671 28.0653 39.0252C28.0576 38.3831 27.9805 37.7874 27.7877 37.4624C27.6027 37.1375 27.3945 36.7816 27.3945 36.7816L31.6042 34.1899L35.1662 32.0005ZM35.1662 32.0005L31.5965 34.1899L26.7237 37.1839C26.4462 37.3541 26.0916 37.2536 25.9297 36.975C25.7678 36.6888 25.8526 36.3252 26.1302 36.155L26.6853 35.8146L33.0382 31.9077L35.2201 30.5615C35.4977 30.3913 35.8601 30.4764 36.022 30.7627V30.7781C36.1916 31.0644 36.0991 31.428 35.8215 31.5982L35.1662 32.0005ZM31.5965 34.1744L35.1662 31.985M26.6853 35.8068L33.0382 31.8999L34.5802 30.9561L31.4731 25.6024L23.5781 30.4532L26.693 35.6598" stroke="#2B74C6" stroke-width="0.7" stroke-linecap="round" stroke-linejoin="round"/>
<path d="M24.4336 31.4125L32.1358 26.229M26.3919 34.7778L34.0942 29.5944M32.7911 27.3508L25.0889 32.5343M33.4389 28.4726L25.7366 33.656" stroke="#2B74C6" stroke-width="0.7" stroke-miterlimit="10" stroke-linecap="round" stroke-linejoin="round"/>
</g>
</g>
</svg>
