<svg width="80" height="80" viewBox="0 0 80 80" fill="none" xmlns="http://www.w3.org/2000/svg">
<rect x="4" y="4" width="72" height="72" rx="36" fill="white"/>
<rect x="4" y="4" width="72" height="72" rx="36" stroke="white" stroke-width="8"/>
<path d="M43.9646 41.0305C48.7438 41.0305 52.6182 44.9643 52.6182 49.8169V58.6034C52.6182 59.8165 46.9681 60.8 39.9984 60.8C33.0288 60.8 27.3787 59.8165 27.3787 58.6034V49.8169C27.3787 44.9643 31.253 41.0305 36.0322 41.0305H43.9646Z" fill="#2B74C6"/>
<path d="M31.0491 33.7092C31.3342 36.1264 32.5472 38.2536 34.316 39.7141C29.5578 40.5415 25.9365 44.7496 25.9365 49.8169V53.4686C19.4732 53.3731 14.3984 52.4311 14.3984 51.2813V42.4949C14.3984 37.6423 18.2728 33.7085 23.052 33.7085H30.9844C31.006 33.7085 31.0276 33.709 31.0491 33.7092Z" fill="#2B74C6"/>
<path d="M56.9449 33.7085C61.7241 33.7085 65.5984 37.6423 65.5984 42.4949V51.2813C65.5984 52.4311 60.5237 53.3731 54.0604 53.4686V49.8169C54.0604 44.7496 50.4391 40.5415 45.6808 39.7141C47.4497 38.2536 48.6627 36.1264 48.9477 33.7092C48.9693 33.709 48.9909 33.7085 49.0125 33.7085H56.9449Z" fill="#2B74C6"/>
<path d="M39.9984 24.922C44.1802 24.922 47.5703 28.3641 47.5703 32.6101C47.5703 36.8562 44.1802 40.2983 39.9984 40.2983C35.8166 40.2983 32.4266 36.8562 32.4266 32.6101C32.4266 28.3641 35.8166 24.922 39.9984 24.922Z" fill="#2B74C6"/>
<path d="M27.0182 17.6C31.2 17.6 34.59 21.0421 34.59 25.2881C32.5968 26.8084 31.2444 29.1477 31.0182 31.8143C29.8572 32.5495 28.4872 32.9762 27.0182 32.9762C22.8363 32.9762 19.4463 29.5342 19.4463 25.2881C19.4463 21.0421 22.8363 17.6 27.0182 17.6Z" fill="#2B74C6"/>
<path d="M52.9787 17.6C57.1605 17.6 60.5506 21.0421 60.5506 25.2881C60.5506 29.5342 57.1605 32.9762 52.9787 32.9762C51.5097 32.9762 50.1397 32.5495 48.9787 31.8143C48.7525 29.1477 47.4001 26.8084 45.4069 25.2881C45.4069 21.0421 48.7969 17.6 52.9787 17.6Z" fill="#2B74C6"/>
</svg>
