<svg width="80" height="80" viewBox="0 0 80 80" fill="none" xmlns="http://www.w3.org/2000/svg">
<rect x="4" y="4" width="72" height="72" rx="36" fill="white"/>
<rect x="4" y="4" width="72" height="72" rx="36" stroke="white" stroke-width="8"/>
<path d="M20.2047 62.4H14.3984V45.2044H20.2047V62.4Z" fill="#2B74C6"/>
<path d="M27.6699 62.4H21.8636V43.5667H27.6699V62.4Z" fill="#2B74C6"/>
<path d="M35.1351 62.4H29.3288V41.9291H35.1351V62.4Z" fill="#2B74C6"/>
<path d="M42.6002 62.4H36.794V37.016H42.6002V62.4Z" fill="#2B74C6"/>
<path d="M50.0654 62.4H44.2592V38.6537H50.0654V62.4Z" fill="#2B74C6"/>
<path d="M57.5306 62.4H51.7243V37.8349H57.5306V62.4Z" fill="#2B74C6"/>
<path d="M64.9958 62.4H59.1895V31.2842H64.9958V62.4Z" fill="#2B74C6"/>
<path d="M63.3676 27.4203L61.7784 25.8514L51.4716 35.2448C50.9723 35.6997 50.2791 35.8844 49.6159 35.739L39.3115 33.4784L28.863 40.7376C28.635 40.8959 28.3766 41.007 28.104 41.0646L16.4915 43.5211L15.6232 39.5181L26.821 37.1488L37.6745 29.6097L37.8584 29.4962C38.2999 29.2532 38.8188 29.1766 39.3172 29.2859L49.4563 31.5097L58.8445 22.9551L57.2722 21.403L65.5984 19.2L63.3676 27.4203Z" fill="#2B74C6"/>
</svg>
